<?xml version="1.0" encoding="UTF-8"?>
<svg xmlns="http://www.w3.org/2000/svg" xmlns:xlink="http://www.w3.org/1999/xlink" viewBox="0 0 250 250">
  <defs>
    <style>
      .cls-1 {
        fill: none;
      }

      .cls-2 {
        isolation: isolate;
      }

      .cls-3 {
        mix-blend-mode: multiply;
      }

      .cls-4 {
        fill: #6b6b6b;
      }

      .cls-5 {
        clip-path: url(#clippath);
      }
    </style>
    <clipPath id="clippath">
      <rect class="cls-1" x="-329.797" y="-1052.719" width="1920" height="963"/>
    </clipPath>
  </defs>
  <g class="cls-2">
    <g id="Capa_1">
      <g class="cls-5">
        <image width="4079" height="2719" transform="translate(-420 -1345) scale(.515)" xlink:href="../../Editables/shutterstock_2477491041.jpg"/>
      </g>
      <circle class="cls-4" cx="125" cy="125" r="125"/>
      <g id="qHRP08" class="cls-3">
        <g>
          <path class="cls-4" d="M178.268,129.715c0,20.201.003,40.402-.002,60.604-.001,5.246-1.357,6.389-6.398,5.313-14.625-3.123-29.225-6.364-43.881-9.328-2.488-.503-5.28-.216-7.807.308-13.883,2.879-27.726,5.951-41.585,8.945-5.522,1.193-6.861.123-6.862-5.448-.002-39.959-.004-79.917,0-119.876.001-10.551,5.656-16.211,16.265-16.219,24.629-.02,49.259-.018,73.888-.001,10.813.007,16.377,5.61,16.38,16.43.005,19.757.001,39.515.001,59.272ZM171.005,188.115c.074-1.266.157-2.022.157-2.778.006-38.603.017-77.205-.009-115.808-.004-5.872-2.641-8.359-8.664-8.361-24.725-.009-49.45-.005-74.175-.003-7.249,0-9.432,2.213-9.433,9.594-.004,37.826-.002,75.653-.002,113.479,0,1.184,0,2.367,0,3.706,1.309-.16,2.191-.2,3.042-.383,12.773-2.739,25.519-5.614,38.329-8.163,3.035-.604,6.316-.411,9.427-.069,3.282.361,6.495,1.349,9.742,2.043,10.384,2.222,20.77,4.434,31.585,6.742Z"/>
          <path class="cls-4" d="M127.601,79.349c5.211-2.075,9.501-5.109,11.478-10.917.505-1.484,2.186-3.27,3.613-3.576,2.292-.491,3.249,1.639,3.878,3.698,2.771,9.076,3.954,18.228.93,27.45-2.532,7.723-8.141,12.257-14.61,11.834-6.041-.395-10.256-3.885-13.131-8.957-.891-1.572-1.737-2.49-3.564-2.848-13.389-2.623-17.226-15.15-15.929-24.304.166-1.172,1.415-3.012,2.336-3.125,7.626-.934,15.164-.858,21.047,5.213,1.513,1.561,2.568,3.565,3.951,5.532ZM133.443,100.514c6.092,1.97,10.859-12.685,8.08-21.086-4.105,2.441-8.292,4.866-12.411,7.4-3.654,2.248-4.509,5.307-2.154,9.838,1.866-2.794,3.677-5.075,4.994-7.613,1.108-2.134,2.291-3.663,4.822-2.734,2.545.933,2.867,3.107,1.832,5.206-1.533,3.109-3.441,6.033-5.163,8.989ZM118.541,89.034c2.19-3.14,3.626-6.219.554-9.764-2.677-3.09-7.604-4.73-11.889-3.565.312,7.827,4.707,12.989,11.335,13.329Z"/>
          <path class="cls-4" d="M118.622,160.542c1.786,1.569,3.364,2.91,4.889,4.307,1.595,1.461,2.122,3.214.657,4.988-1.544,1.87-3.461,1.791-5.268.323-2.48-2.015-4.89-4.115-7.879-6.643-.09,1.638-.116,2.759-.22,3.872-.211,2.264-1.222,3.851-3.735,3.733-2.298-.108-3.335-1.616-3.351-3.759-.05-6.867-.057-13.735.002-20.602.022-2.537,1.453-3.831,4.007-3.833,2.657-.003,5.315-.044,7.971.005,4.635.086,7.753,2.364,8.945,6.458,1.141,3.919-.476,7.687-4.363,10.155-.441.28-.895.539-1.655.995ZM111.034,153.543c1.724,0,3.267.191,4.725-.08.742-.138,1.33-1.105,1.988-1.698-.636-.611-1.201-1.623-1.922-1.75-1.538-.271-3.156-.083-4.965-.083.069,1.44.115,2.376.174,3.61Z"/>
          <path class="cls-4" d="M125.196,117.276c1.719-2.08,2.798-3.845,4.317-5.055.96-.764,2.802-1.263,3.838-.85,1.033.411,2.164,2.092,2.198,3.246.201,6.975.147,13.959.07,20.938-.024,2.155-1.206,3.578-3.5,3.609-2.335.032-3.463-1.463-3.534-3.577-.13-3.836-.037-7.679-.037-11.059h-7.074c0,3.18.056,6.864-.019,10.545-.053,2.569-1.183,4.367-4.054,4.049-2.277-.252-3.056-1.936-3.058-4.049-.006-6.648-.112-13.3.091-19.942.04-1.306,1.037-3.326,2.049-3.669,1.221-.414,3.15.278,4.369,1.094,1.426.954,2.417,2.559,4.343,4.719Z"/>
          <path class="cls-4" d="M160.398,125.078c0,1.439.075,2.883-.013,4.317-.324,5.271-4.382,9.409-9.528,9.781-5.669.41-10.537-2.984-11.293-8.461-.494-3.576-.506-7.314-.073-10.899.687-5.691,5.526-9.209,11.341-8.807,5.271.364,9.312,4.603,9.573,10.085.063,1.326.009,2.657.009,3.985-.005,0-.011,0-.016,0ZM146.331,124.938h-.01c0,1.109,0,2.219,0,3.328.001,2.229,1.132,3.71,3.3,3.849,2.396.153,3.673-1.407,3.791-3.712.12-2.322.154-4.669-.042-6.982-.182-2.157-1.662-3.79-3.738-3.249-1.31.342-2.451,2.107-3.215,3.485-.47.848-.087,2.17-.087,3.28Z"/>
          <path class="cls-4" d="M89.56,124.917c0-.333.021-.667-.003-.999-.804-10.968,4.142-13.616,13.771-12.985,2.378.156,3.863,1.109,3.8,3.598-.058,2.307-1.522,3.21-3.724,3.359-6.874.465-6.872.496-6.872,7.505,0,.999-.013,1.998.003,2.996.056,3.437,2.773,5.163,5.807,3.527,1.595-.861,2.215-2.366.235-3.46-1.977-1.093-3.089-2.741-2.023-4.548.706-1.196,2.725-2.132,4.229-2.249,5.112-.398,5.828.609,6.036,5.81.42,10.48-5.919,12.786-14.448,11.491-3.645-.554-6.452-3.971-6.723-7.724-.151-2.097-.027-4.214-.027-6.323-.02,0-.04,0-.06,0Z"/>
          <path class="cls-4" d="M135.985,160.566c-.709,2.563.236,3.627,2.502,3.692,1.548.044,3.28-.379,4.596.185,1.283.55,2.791,1.99,2.982,3.227.153.991-1.427,3.146-2.4,3.249-3.026.32-6.27.433-9.169-.346-3.901-1.048-5.773-4.314-5.93-8.329-.134-3.428-.169-6.872.005-10.296.282-5.546,3.892-8.883,9.475-8.982,1.659-.03,3.515-.437,4.924.164,1.342.572,2.911,2.149,3.072,3.448.119.96-1.676,2.612-2.958,3.165-1.316.568-3.05.112-4.594.217-2.435.166-2.688.551-2.499,3.67,2.18,0,4.381-.03,6.58.008,2.235.039,3.632,1.242,3.648,3.444.015,2.217-1.401,3.415-3.622,3.471-2.2.056-4.402.012-6.611.012Z"/>
          <path class="cls-4" d="M157.214,153.632c2.298,0,4.5-.038,6.7.011,2.237.05,3.617,1.278,3.607,3.48-.01,2.219-1.446,3.388-3.662,3.436-2.2.047-4.402.01-6.566.01-.729,2.615.277,3.639,2.538,3.692,1.549.036,3.244-.338,4.604.181,1.231.47,2.795,1.819,2.924,2.931.13,1.117-1.297,3.44-2.097,3.466-3.571.113-7.335.161-10.694-.864-3.105-.948-4.55-4.108-4.677-7.438-.135-3.539-.193-7.094-.012-10.627.282-5.524,3.92-8.848,9.511-8.942,1.659-.028,3.478-.393,4.933.161,1.293.493,3.119,2.14,3.021,3.107-.131,1.297-1.676,2.868-3.006,3.508-1.268.61-3.037.167-4.586.206-2.071.052-3.088.993-2.537,3.683Z"/>
          <path class="cls-4" d="M89.731,149.87v3.707c1.163,0,2.231-.066,3.288.013,2.784.207,6.457-1.131,7.018,3.392.331,2.67-1.541,3.509-7.179,3.573-.971.011-1.941.108-3.34.19,0,2.23.054,4.299-.015,6.363-.073,2.225-.935,3.988-3.453,4.018-2.663.032-3.653-1.699-3.659-4.129-.015-6.639-.015-13.278,0-19.917.006-2.663,1.284-4.145,4.038-4.149,3.318-.005,6.636-.015,9.953.011,2.247.017,3.629,1.22,3.651,3.423.022,2.195-1.312,3.455-3.571,3.497-2.19.041-4.38.009-6.732.009Z"/>
        </g>
      </g>
    </g>
  </g>
</svg>