<?xml version="1.0" encoding="UTF-8"?>
<svg xmlns="http://www.w3.org/2000/svg" xmlns:xlink="http://www.w3.org/1999/xlink" viewBox="0 0 250 250">
  <defs>
    <style>
      .cls-1 {
        fill: none;
      }

      .cls-2 {
        isolation: isolate;
      }

      .cls-3 {
        mix-blend-mode: multiply;
      }

      .cls-4 {
        fill: #6b6b6b;
      }

      .cls-5 {
        clip-path: url(#clippath);
      }
    </style>
    <clipPath id="clippath">
      <rect class="cls-1" x="-660.797" y="-1052.719" width="1920" height="963"/>
    </clipPath>
  </defs>
  <g class="cls-2">
    <g id="Capa_1">
      <g class="cls-5">
        <image width="4079" height="2719" transform="translate(-751 -1345) scale(.515)" xlink:href="../../Editables/shutterstock_2477491041.jpg"/>
      </g>
      <circle class="cls-4" cx="125" cy="125" r="125"/>
      <g id="Vfuzgp" class="cls-3">
        <path class="cls-4" d="M140.74,132.268c11.471-21.392,30.602-26.611,52.233-26.894,1.302-.017,2.605.074,3.908.122,2.967.109,4.877,1.718,5,4.578.723,16.809-1.619,32.854-13.091,46.173-7.092,8.234-16.511,12.757-27.024,14.469-22.723,3.701-45.365,3.464-67.397-4.058-23.214-7.926-36.714-24.755-42.714-48.078-2.889-11.229-3.97-22.655-3.578-34.228.196-5.762,1.384-7.066,7.12-7.295,15.167-.604,29.973,1.235,44.264,6.613,21.136,7.953,33.932,23.33,40.103,44.668.328,1.133.675,2.261,1.175,3.93ZM133.401,156.402c.335-.25.671-.5,1.006-.751-.554-11.762-2.529-23.231-7.272-34.117-4.578-10.507-11.611-18.879-21.603-24.655-7.72-4.463-16.062-7.183-24.805-8.736-7.592-1.349-15.229-2.124-23.158-1.688-.32,8.333.356,16.377,1.945,24.335,2.323,11.638,6.36,22.545,14.32,31.636,9.126,10.421,21.146,15.538,34.328,18.44,6.207,1.367,12.484,2.182,19.479,2.369-1.212-1.275-1.935-2.069-2.693-2.827-10.279-10.278-20.567-20.548-30.839-30.833-.774-.775-1.58-1.571-2.139-2.496-1.187-1.966-.842-3.903.721-5.497,1.57-1.601,3.522-1.933,5.498-.815.937.53,1.717,1.369,2.493,2.142,10.01,9.98,20.019,19.961,29.99,29.981,1.038,1.043,1.825,2.336,2.729,3.514ZM144.486,156.051c1.132-1.058,1.868-1.707,2.562-2.399,5.751-5.736,11.513-11.461,17.227-17.234,1.606-1.623,3.379-2.563,5.653-1.815,3.486,1.148,4.106,5.304,1.171,8.277-5.847,5.923-11.773,11.768-17.635,17.677-.577.582-1.562.966-1.413,2.334,11.951-1.472,23.212-4.426,31.022-14.406,7.703-9.844,9.382-21.502,9.573-33.606-30.982,0-45.725,13.778-48.16,41.172Z"/>
      </g>
    </g>
  </g>
</svg>