<?xml version="1.0" encoding="UTF-8"?>
<svg xmlns="http://www.w3.org/2000/svg" xmlns:xlink="http://www.w3.org/1999/xlink" viewBox="0 0 250 250">
  <defs>
    <style>
      .cls-1 {
        fill: none;
      }

      .cls-2 {
        isolation: isolate;
      }

      .cls-3 {
        mix-blend-mode: multiply;
      }

      .cls-4 {
        fill: #6b6b6b;
      }

      .cls-5 {
        clip-path: url(#clippath);
      }
    </style>
    <clipPath id="clippath">
      <rect class="cls-1" x="1.203" y="-1052.719" width="1920" height="963"/>
    </clipPath>
  </defs>
  <g class="cls-2">
    <g id="Capa_1">
      <g class="cls-5">
        <image width="4079" height="2719" transform="translate(-89 -1345) scale(.515)" xlink:href="../../Editables/shutterstock_2477491041.jpg"/>
      </g>
      <circle class="cls-4" cx="125" cy="125" r="125"/>
      <g id="j8YmME" class="cls-3">
        <path class="cls-4" d="M173.973,130.545c6.311,0,12.408-.015,18.504.006,3.35.011,3.596.658,3.035,3.97-1.48,8.733-4.027,17.063-8.329,24.84-24.009,43.408-84.195,49.446-116.324,11.658-.359-.423-.915-.82-1.006-1.3-.197-1.037-.151-2.12-.204-3.184,1.116.184,2.465.04,3.293.628,1.237.88,2.106,2.275,3.141,3.461,3.608-2.678,7.094-5.215,10.499-7.857.417-.324.688-1.286.541-1.818-1.445-5.244-2.993-10.459-4.57-15.883-5.947-.503-9.492-3.92-10.375-10.15h-13.736c1.416,4.907,2.489,9.562,4.127,14.01,1.332,3.618,3.298,7.009,5.069,10.456.696,1.355,1.256,2.654-.365,3.594-1.661.963-2.541-.284-3.285-1.531-4.498-7.541-7.538-15.624-8.999-24.291-.154-.912-.268-1.835-.497-2.729-.826-3.228-.346-3.861,3.108-3.874,4.793-.018,9.585-.004,14.555-.004v-33.126c-4.536,0-8.954.003-13.373-.002-.925,0-1.944.21-2.748-.111-.803-.32-1.39-1.184-2.071-1.81.69-.72,1.546-2.164,2.044-2.049,5.028,1.154,6.492-2.407,8.551-5.755,28.358-46.11,96.166-44.599,122.453,2.734,1.262,2.272,2.603,3.316,5.112,2.9.54-.089,1.238-.212,1.636.04.838.53,1.525,1.298,2.273,1.968-.725.684-1.347,1.722-2.199,1.968-1.198.347-2.566.115-3.861.116-5.26.004-10.519.001-16.002.001v33.126ZM113.402,114.642c-8.056,8.062-15.776,15.774-23.478,23.505-2.341,2.35-2.584,4.472-.803,6.273,1.713,1.732,4.036,1.479,6.288-.753,3.811-3.777,7.598-7.579,11.385-11.381,1.053-1.057,2.197-1.955,3.559-.648,1.399,1.342.463,2.496-.584,3.543-3.141,3.139-6.296,6.265-9.415,9.426-2.311,2.342-2.549,4.503-.769,6.28,1.8,1.796,3.908,1.56,6.271-.782,4.074-4.038,8.119-8.105,12.173-12.163,1.024-1.024,2.159-2.089,3.552-.803,1.51,1.394.535,2.633-.598,3.76-3.084,3.065-6.164,6.134-9.222,9.225-2.232,2.256-2.497,4.591-.769,6.293,1.804,1.777,3.928,1.531,6.287-.807,4.14-4.103,8.308-8.18,12.344-12.384,1.683-1.754,3.184-2.463,5.018-.151,2.061-4.113,5.304-5.215,8.814-5.035,1.211-1.503,2.669-2.9,4.408-3.613,1.698-.696,3.682-.693,5.571-1.002.042-.123.151-.295.151-.467.026-11.194.009-22.388.091-33.581.014-1.971-1.074-1.975-2.484-1.97-6.939.027-13.878.012-20.816.011-1.906,0-3.812,0-5.718,0-.206.335-.413.67-.619,1.005,2.061,1.802,4.258,3.477,6.11,5.473.663.714,1.05,2.588.587,3.257-1.025,1.483-2.403.675-3.485-.415-2.217-2.231-4.495-4.405-6.655-6.69-1.777-1.88-3.887-2.667-6.443-2.647-6.383.05-12.769.102-19.15-.031-2.153-.045-2.632.724-2.611,2.727.093,8.973.036,17.948.051,26.922.001.651.149,1.301.288,2.429,6.259-6.259,12.13-12.143,18.017-18.011,2.267-2.26,2.918-2.251,5.223.04,3.478,3.456,6.899,6.972,10.432,10.37.897.863,2.05,1.678,3.225,1.989,2.583.683,4.755-.217,6.179-2.548,1.441-2.359,1.027-4.709-1.298-7.27-.996-1.097-2.005-2.261-.7-3.572,1.413-1.419,2.654-.387,3.775.737,3.997,4.008,4.224,10.027.499,13.973-3.869,4.097-9.905,4.223-14.129.146-3.517-3.396-6.886-6.946-10.55-10.661ZM122.712,93.114v-34.641c-12.222.075-25.131,14.352-29.582,27.534,6.217,3.814,18.422,8.6,29.582,7.107ZM156.943,85.881c-4.941-14.588-19.707-28.202-29.648-27.271v34.434c10.317,1.721,23.494-3.114,29.648-7.163ZM92.54,163.691c6.68,13.635,14.176,25.253,30.32,28.247,0-8.923.012-17.312-.033-25.701-.002-.452-.408-.966-.748-1.341-1.273-1.409-2.596-2.772-4.043-4.304-3.727,1.832-7.384,1.594-10.597-1.751-.326-.34-1.228-.445-1.715-.263-4.293,1.606-8.553,3.302-13.186,5.113ZM173.886,170.642c9.322-10.12,15.074-21.885,17.278-35.875-5.596,0-10.918-.043-16.237.074-.473.01-1.207,1.003-1.335,1.637-.645,3.194-2.382,5.507-5.102,7.239-.677.431-1.291,1.277-1.514,2.053-1.426,4.953-2.781,9.928-4.027,14.929-.164.66.183,1.808.699,2.218,3.243,2.577,6.602,5.009,10.238,7.725ZM127.268,191.465c10.793.331,26.658-14.538,29.605-27.838-3.644-1.564-7.34-3.151-11.155-4.789-1.374,2.966-3.252,4.813-6.236,5.443-.51.108-.954,1.146-1.187,1.836-1.016,3.006-3.008,4.934-6.171,5.214-1.574.139-3.204-.362-4.856-.579v20.714ZM157.771,106.882c0,9.155-.014,18.102.006,27.05.01,4.224,2.34,6.826,5.978,6.769,3.54-.056,5.729-2.553,5.745-6.698.032-8.039.013-16.079.003-24.119,0-.672-.097-1.344-.169-2.272-4.202,4.929-7.79,4.666-11.564-.731ZM76.629,107.265c0,9.814-.038,19.036.054,28.257.01,1.013.491,2.381,1.238,2.949,1.317,1.002,2.959,1.818,4.566,2.072.594.094,1.486-1.61,2.219-2.511.697-.856,1.494-1.665,2.012-2.622.658-1.216,1.501-2.55,1.531-3.85.155-6.559.071-13.124.071-19.686,0-1.488,0-2.975,0-5.061-3.695,5.502-7.526,5.628-11.692.452ZM104.959,188.611c-6.956-6.202-11.865-13.811-15.862-22.651-3.398,2.642-6.597,5.129-9.958,7.742,7.765,7.165,16.156,12.096,25.82,14.909ZM145.064,61.389c6.954,6.176,11.837,13.828,15.85,22.619,3.368-2.61,6.533-5.062,9.948-7.708-7.678-7.106-16.068-12.046-25.799-14.91ZM88.796,83.805c2.555-4.34,4.597-8.4,7.199-12.064,2.63-3.702,5.814-7.011,8.785-10.528-9.545,3.048-18.026,7.933-25.612,15.127,3.374,2.616,6.485,5.028,9.627,7.465ZM145.123,188.554c9.663-2.897,18.159-7.734,25.725-14.947-3.464-2.639-6.634-5.054-9.996-7.615-3.966,8.829-8.836,16.368-15.729,22.562ZM75.807,79.097c-3.273,4.579-6.516,9.116-10.16,14.213,6.864,0,12.677-.04,18.489.017,2.747.027,2.106-2.392,2.718-3.778.292-.661-.152-2.127-.757-2.622-3.135-2.563-6.431-4.93-10.29-7.831ZM174.156,79.115c-3.836,2.884-7.111,5.275-10.283,7.795-.563.447-1.15,1.602-.947,2.133.574,1.502,1.482,4.014,2.383,4.068,6.026.363,12.084.188,19.097.188-3.722-5.151-6.972-9.649-10.25-14.184ZM160.06,144.386c-1.176,2.917-3.076,4.871-6.18,5.467-.407.078-.836.603-1.05,1.025-.851,1.684-1.621,3.408-2.478,5.241,2.528,1.154,5.358,2.446,8.602,3.928,1.37-5.046,2.705-9.965,4.074-15.01-1.28-.281-2.071-.454-2.969-.652ZM87.952,149.31c1.076,3.608,2.115,7.093,3.191,10.704,3.027-1.404,5.741-2.663,7.996-3.709-1.859-2.216-3.641-4.341-5.514-6.575-1.49-.11-3.379-.25-5.673-.42ZM145.996,153.153c.791-.648,1.935-1.154,2.282-1.991.353-.852.298-2.324-.238-3.007-1.405-1.791-2.993-3.57-4.87-4.803-.881-.578-3.101-.363-3.788.366-.671.712-.664,2.857-.061,3.802,1.11,1.738,2.838,3.098,4.392,4.524.502.461,1.27.633,2.283,1.11ZM134.202,144.746c-.745.654-1.236,1.039-1.673,1.477-3.065,3.074-6.22,6.067-9.139,9.274-1.824,2.003-1.284,4.014.956,5.59,1.462-1.162,2.905-2.247,4.264-3.428.411-.358.866-1.006.829-1.484-.309-3.958,1.715-6.432,5.082-8.086-.102-1.067-.193-2.025-.318-3.342ZM153.585,146.068c.785-1.131,1.98-2.171,2.256-3.415.386-1.741-3.007-4.913-4.849-4.863-1.875.05-2.862,1.176-2.975,2.949-.117,1.835,3.045,4.871,5.568,5.329ZM139.318,160.448c.742-1.16,1.903-2.246,2.125-3.499.316-1.788-3.13-4.848-4.954-4.742-1.878.109-2.82,1.247-2.845,3.043-.027,1.907,3.132,4.831,5.674,5.198ZM157.871,103.144c1.476-1.015,2.982-2.556,4.803-3.185,2.769-.956,4.834.809,6.668,3.324v-5.675h-11.471v5.536ZM76.744,102.366c1.866-.822,3.938-2.479,5.947-2.406,1.953.071,3.841,1.915,5.422,2.794v-5.185h-11.369v4.797ZM130.657,167.669c.435.003.871.006,1.306.009.792-1.126,2.06-2.172,2.263-3.396.292-1.761-1.095-2.941-2.863-2.951-1.76-.01-3.176,1.114-2.89,2.908.196,1.228,1.42,2.292,2.184,3.43ZM96.971,93.197c.052-.125.104-.251.156-.376-1.907-.91-3.815-1.821-5.894-2.814-.372,1.165-.667,2.087-1.019,3.19h6.757ZM152.887,92.822c.036.131.072.261.107.392h6.818c-.402-1.161-.739-2.139-1.109-3.208-2.094,1.014-3.955,1.915-5.816,2.817Z"/>
      </g>
    </g>
  </g>
</svg>