<?xml version="1.0" encoding="UTF-8"?>
<svg xmlns="http://www.w3.org/2000/svg" xmlns:xlink="http://www.w3.org/1999/xlink" viewBox="0 0 250 250">
  <defs>
    <style>
      .cls-1 {
        fill: none;
      }

      .cls-2 {
        isolation: isolate;
      }

      .cls-3 {
        mix-blend-mode: multiply;
      }

      .cls-4 {
        fill: #6b6b6b;
      }

      .cls-5 {
        clip-path: url(#clippath);
      }
    </style>
    <clipPath id="clippath">
      <rect class="cls-1" x="-991.797" y="-1052.719" width="1920" height="963"/>
    </clipPath>
  </defs>
  <g class="cls-2">
    <g id="Capa_1">
      <g class="cls-5">
        <image width="4079" height="2719" transform="translate(-1082 -1345) scale(.515)" xlink:href="../../Editables/shutterstock_2477491041.jpg"/>
      </g>
      <circle class="cls-4" cx="125" cy="125" r="125"/>
      <g id="nZ9FJc" class="cls-3">
        <g>
          <path class="cls-4" d="M53.983,124.846c.037-39.175,31.942-70.905,71.239-70.845,39.168.059,70.868,31.981,70.796,71.289-.072,39.116-32.066,70.811-71.377,70.711-39.008-.1-70.693-32.008-70.657-71.154ZM173.657,171.303c16.974-19.885,22.983-41.751,15.201-66.081-8.469-26.474-27.234-42.252-54.688-46.494-20.892-3.228-39.258,3.239-55.34,17.703,1.782,1.625,3.256,2.888,4.639,4.245,2.967,2.914,5.97,5.801,8.757,8.881.561.62.228,2.049.308,3.105-.99-.098-2.057-.002-2.946-.356-.711-.283-1.208-1.108-1.794-1.698-3.765-3.784-7.528-7.57-11.571-11.636-15.655,17.805-21.888,38.036-16.46,60.807,6.332,26.561,23.368,43.746,49.892,50.301,22.966,5.676,43.37-.544,61.532-16.421-2.342-2.224-4.414-4.167-6.454-6.14-1.018-.985-2.158-2.079-.793-3.514,1.365-1.435,2.514-.416,3.511.635,1.964,2.07,3.892,4.174,6.207,6.664Z"/>
          <path class="cls-4" d="M82.464,136.296c-.744-.085-1.954-.117-3.115-.374-6.756-1.495-10.492-7.438-8.987-14.212,1.788-8.045,9.417-15.09,17.806-16.128,2.112-.261,2.953-1.082,3.459-3.047,1.652-6.424,4.318-12.369,8.934-17.282.253-.269.509-.54.794-.774,2.193-1.799,4.258-4.244,7.532-2.646,3.259,1.59,2.851,4.605,2.502,7.511-.031.256.06.526.116.949,1.607-.632,3.109-1.623,4.67-1.726,1.686-.111,3.966.076,4.991,1.115,1.014,1.028,1.431,3.47.994,4.967-2.335,7.996-7.914,13.602-14.441,18.389-1.042.764-2.209,1.375-3.17,2.225-.441.39-.523,1.186-.768,1.798.646.039,1.351.265,1.929.086,3.496-1.083,6.887-2.842,10.452-3.304,15.745-2.04,29.549,11.127,28.75,26.992-.061,1.22.407,2.655,1.087,3.69,2.235,3.402,2.69,6.893.745,10.459-2.01,3.687-5.315,5.134-9.485,5.006-1.245-.038-2.707.258-3.733.921-4.477,2.892-9.329,4.443-14.629,4.474-9.521.057-19.043-.014-28.564.042-2.963.017-5.25-.886-6.421-3.788-1.155-2.862-.244-5.18,1.785-7.304.516-.54,1.021-1.557.867-2.195-1.24-5.162-2.639-10.286-4.1-15.842ZM110.952,152.213c-.476-.727-.939-1.386-1.352-2.075-4.379-7.289.286-16.831,8.739-17.861,1.418-.173,2.998-.271,3.3,1.583.309,1.895-1.116,2.133-2.627,2.366-4.3.666-7.171,3.911-7.151,7.881.018,3.719,3.472,7.695,7.11,8.553.878.207,1.537,1.341,2.297,2.049-.887.61-1.734,1.661-2.67,1.747-2.659.242-5.379-.118-8.023.197-1.04.124-2.551,1.26-2.778,2.195-.44,1.812,1.071,2.582,2.745,2.583,3.418,0,6.862.159,10.25-.189,12.4-1.273,21.393-12.099,19.986-23.842-1.542-12.874-12.331-21.377-25.166-19.522-2.841.411-5.587,1.786-8.262,2.973-3.798,1.685-7.268.125-7.722-3.678-.681-5.695-3.783-8.369-9.509-7.838-6.905.64-11.973,4.255-14.946,10.448-3.329,6.933.359,12.48,8.038,12.459,3.369-.009,4.037.635,4.095,3.998.091,5.233,1.029,10.279,3.302,15.029,1.667,3.484,1.613,3.388-1.56,5.658-.803.575-1.364,1.911-1.415,2.929-.025.488,1.385,1.481,2.169,1.506,4.607.145,9.22.071,13.825.071.145-6.58,1.136-7.829,7.325-9.217ZM118.682,92.757c-.206-.253-.412-.505-.619-.758-1.41.597-2.889,1.069-4.217,1.812-4.954,2.771-8.365,7.092-11.65,11.587-1.735,2.374-2.087,4.285.682,6.169,7.062-4.789,13.3-10.261,15.803-18.811ZM107.618,85.758c-.239-.155-.478-.311-.718-.466-.732.509-1.523.952-2.187,1.538-5.287,4.675-7.662,10.956-9.489,17.504-.131.47.476,1.147.74,1.727.583-.305,1.347-.468,1.719-.94,2.284-2.893,4.227-6.099,6.769-8.732,3.064-3.175,2.826-6.909,3.166-10.632ZM139.493,155.52c3.671-.62,5.257-3.396,3.801-6.652-1.268,2.22-2.532,4.432-3.801,6.652Z"/>
          <path class="cls-4" d="M151.496,109.429c-4.766-1.012-4.427.221-4.444-6.217-.009-3.429.016-3.429,4.204-4.174-.185-1.586-.31-3.212-.577-4.814-.5-3,.21-5.552,2.795-7.285,2.362-1.583,4.914-1.604,7.295-.047,2.601,1.7,3.377,4.23,2.863,7.244-.275,1.616-.434,3.252-.642,4.853q4.613.98,4.261,7.387c-.13,2.375-.221,2.439-4.458,2.883,0,1.009.018,2.072-.003,3.134-.182,9.128-.3,18.259-.637,27.381-.051,1.369-.934,3.684-1.782,3.858-2.255.463-4.726.151-7.052-.224-.509-.082-1.034-1.687-1.099-2.622-.325-4.687-.606-9.382-.7-14.079-.114-5.713-.027-11.429-.027-17.277ZM155.457,109.2c0,7.68-.024,15.147.015,22.614.011,2.12.121,4.25.373,6.352.076.633.783,1.191,1.201,1.783.467-.624,1.336-1.244,1.342-1.872.086-9.576.06-19.153.06-28.877h-2.991ZM158.852,99.104c.308-2.036.701-4.097.909-6.176.185-1.853-.733-3.091-2.652-3.056-1.92.035-2.724,1.308-2.564,3.156.103,1.184.427,2.357.452,3.539.052,2.364,1.024,3.395,3.854,2.538ZM151.16,104.723c4.899,1.027,11.462.469,12.005-1.022-5.062-1.03-11.458-.485-12.005,1.022Z"/>
          <path class="cls-4" d="M157.016,163.847c-4.381-.077-7.504-4.295-5.989-8.449.904-2.479,2.222-4.846,3.63-7.09,1.335-2.128,3.601-2.148,4.921-.031,1.45,2.324,2.837,4.77,3.723,7.345,1.432,4.162-1.892,8.303-6.285,8.226ZM157.113,151.501c-1.025,2.204-1.906,3.548-2.233,5.015-.19.849.249,2.195.893,2.764.535.472,2.092.508,2.638.059.666-.548,1.182-1.904.991-2.733-.351-1.525-1.266-2.921-2.29-5.105Z"/>
          <path class="cls-4" d="M92.199,119.622c-.069,2.852-2.572,5.251-5.416,5.189-2.915-.063-5.184-2.446-5.138-5.396.046-2.959,2.366-5.185,5.347-5.13,2.922.054,5.276,2.466,5.207,5.337Z"/>
        </g>
      </g>
    </g>
  </g>
</svg>