<?xml version="1.0" encoding="UTF-8"?>
<svg xmlns="http://www.w3.org/2000/svg" xmlns:xlink="http://www.w3.org/1999/xlink" viewBox="0 0 250 250">
  <defs>
    <style>
      .cls-1 {
        fill: none;
      }

      .cls-2 {
        isolation: isolate;
      }

      .cls-3 {
        mix-blend-mode: multiply;
      }

      .cls-4 {
        fill: #6b6b6b;
      }

      .cls-5 {
        clip-path: url(#clippath);
      }
    </style>
    <clipPath id="clippath">
      <rect class="cls-1" x="-1322.797" y="-1052.719" width="1920" height="963"/>
    </clipPath>
  </defs>
  <g class="cls-2">
    <g id="Capa_1">
      <g class="cls-5">
        <image width="4079" height="2719" transform="translate(-1413 -1345) scale(.515)" xlink:href="../../Editables/shutterstock_2477491041.jpg"/>
      </g>
      <circle class="cls-4" cx="125" cy="125" r="125"/>
      <g id="KLeIWG" class="cls-3">
        <path class="cls-4" d="M85.341,84.198c24.938,3.372,37.282,17.984,41.39,41.796,9.961-22.105,27.675-28.679,49.591-27.31-7.015-15.833-34.491-30.761-52.562-28.127,3.761,2.829,7.146,5.407,10.567,7.937,1.654,1.223,3.068,2.633,1.449,4.641-1.507,1.867-3.155.759-4.65-.367-5.232-3.94-10.495-7.839-15.707-11.805-2.745-2.088-2.756-3.707-.041-5.772,5.302-4.032,10.653-7.999,15.973-12.006,1.571-1.183,3.468-1.964,4.516.065.478.924-.36,3.198-1.318,4.069-2.733,2.483-5.835,4.561-9.055,6.997,5.407.826,10.383,1.203,15.162,2.383,18.376,4.537,32.268,15.201,42.063,31.37.88,1.452,2.554,2.528,4.049,3.481,4.367,2.784,9.025,5.152,13.194,8.196,3.261,2.382,2.958,3.669-.129,6.202-1.197.982-2.31,2.078-3.387,3.194-3.401,3.524-5.069,7.346-5.087,12.654-.118,34.853-26.503,62.325-59.122,65.804-36.917,3.938-67.547-21.837-73.122-55.432-1.415-8.526-1.053-17.019.691-25.492.271-1.316-.004-3.191-.799-4.202-3.133-3.987-6.43-7.871-9.955-11.513-2.074-2.142-1.513-3.601.281-5.292,7.232-6.816,15.954-10.187,25.695-11.416,1.716-.216,3.472-1.12,4.94-2.108,4.406-2.967,8.588-6.278,13.074-9.111,1.008-.636,3.579-.44,4.241.358,1.425,1.718.061,3.14-1.666,4.192-3.17,1.933-6.253,4.01-10.273,6.61ZM120.779,136.63c-.084-.312-.113-.652-.261-.93-.417-.782-.864-1.549-1.333-2.301-5.804-9.299-13.416-16.756-22.817-22.391-1.636-.981-3.604-1.982-2.222-4.341,1.34-2.288,3.178-1.291,4.877-.286,7.428,4.394,13.86,9.945,19.322,16.625.71.868,1.444,1.715,2.166,2.572-2.2-15.218-8.4-27.647-23.586-33.132-14.854-5.365-29.073-4.123-42.069,5.333,3.503,4.777,6.778,9.216,10.024,13.676,2.87,3.944,5.622,7.977,8.577,11.855,11.454,15.03,30.799,17.712,47.322,13.319ZM194.706,112.336c-9.981-9.549-30.55-11.416-45.481-3.93-11.099,5.565-21.142,21.347-19.925,31.637.805-.977,1.501-1.809,2.184-2.651,5.438-6.704,11.891-12.229,19.312-16.631,1.696-1.006,3.513-2.05,4.873.236,1.384,2.327-.504,3.377-2.169,4.364-6.847,4.057-12.835,9.139-17.78,15.363-2.506,3.154-4.666,6.584-7.26,10.284,9.697,2.364,18.622,2.547,27.619.252,11.032-2.813,18.361-10.271,24.615-19.181,4.578-6.522,9.221-12.998,14.012-19.743ZM122.095,142.095c-23.386,4.735-43.322.064-57.244-21.497-4.399,20.413,4.432,44.725,20.215,57.376,1.409,1.129,2.319.956,3.778.145,4.06-2.256,8.074-4.823,12.439-6.248,6.682-2.182,13.643-3.512,20.811-5.284v-24.491ZM185.751,134.637c-14.042,21.577-34.048,26.825-57.852,21.884v10.931c12.256.665,23.29,4.223,33.417,10.683.757.483,2.477.532,3.09.009,13.293-11.354,20.445-25.815,21.346-43.507ZM158.115,182.672c-20.401-14.036-49.571-12.267-66.203.075,16.58,13.124,49.43,13.155,66.203-.075Z"/>
      </g>
    </g>
  </g>
</svg>