<?xml version="1.0" encoding="UTF-8"?>
<svg id="Capa_1" xmlns="http://www.w3.org/2000/svg" viewBox="0 0 180.05 180.05">
  <defs>
    <style>
      .cls-1 {
        fill: #5d7f6f;
      }
    </style>
  </defs>
  <g id="D9qfYV">
    <g>
      <path class="cls-1" d="M142.623,96.485c2.844-1.272,3.565-2.974,3.691-5.514.552-11.138,6.798-16.619,17.929-16.277,2.796.086,3.73,1.244,3.826,3.889.381,10.573-4.853,16.694-15.33,17.735-6.109.607-10.078,4.967-10.08,11.076-.001,4.277,0,8.554,0,13.61,4.488-2.136,7.895-.55,10.618,2.533,4.056,4.593,9.095,5.677,14.931,5.171,1.903-.165,5.465-1.386,5.361,2.065-.09,2.993-3.433,1.691-5.31,1.693-52.22.073-104.44.071-156.659.005-1.768-.002-4.886,1.201-4.959-1.697-.082-3.241,3.171-2.064,5.049-2.068,33.678-.067,67.356-.086,101.034.012,3.213.009,5.928-.492,8.134-2.93.586-.648,1.347-1.137,2.025-1.703q7.41-6.181,15.383-2.057c1.647-5.638-.36-9.86-4.87-13.32-1.388-1.065-2.788-.973-4.255-1.083-10.986-.823-16.53-7.378-15.702-18.41.166-2.219,1.046-3.034,3.24-3.185,11.205-.771,17.814,4.912,18.268,16.158.105,2.602,1.082,4.17,3.68,5.612,0-10.285.09-20.187-.063-30.085-.039-2.503-5.965-7.204-8.625-7.341-11.425-.587-16.95-6.712-16.506-18.03.103-2.637,1.169-3.457,3.66-3.561,11.209-.469,17.356,4.922,17.89,16.151.122,2.571,1.025,4.208,3.685,5.583,0-8.123-.018-15.887.016-23.651.007-1.496-1.1-2.185-1.93-3.083-9.198-9.947-8.667-20.061,1.392-28.968,1.94-1.718,3.315-1.601,5.175.043,9.863,8.715,10.481,19.017,1.441,28.684-1.605,1.717-2.295,3.377-2.218,5.686.149,4.496.044,8.999.044,13.991,2.708-1.327,3.571-2.929,3.691-5.481.53-11.293,6.97-16.922,18.209-16.362,2.378.118,3.489,1.041,3.514,3.383.103,9.276-3.15,17.334-15.182,18.213-6.067.443-10.194,5.005-10.196,10.972-.002,7.388,0,14.776,0,22.54ZM140.886,18.128c-6.35,4.943-10.092,13.966-2.537,20.686.716-.874.304-1.906.408-2.855.17-1.544-.388-3.689,2.091-3.658,2.258.028,1.67,2.054,1.852,3.463.139,1.073-.396,2.281.602,3.2,6.072-6.387,5.306-13.433-2.417-20.836ZM117.764,90.269c-1.277,5.901,2.893,13.425,9.725,12.818-.556-1.771-4.022-2.788-2.167-4.959,2.24-2.621,3.458,1.453,5.453,1.759-.974-7.246-5.481-10.531-13.011-9.618ZM163.976,45.665c-7.807-.847-12.805,2.881-13.026,9.519,1.834-.32,2.815-3.905,4.996-1.913,2.574,2.35-1.665,3.393-1.78,5.434,7.038-1.085,9.783-4.714,9.81-13.041ZM163.762,78.977c-7.442-.967-12.418,2.682-12.85,9.492,1.905-.229,2.973-4.169,5.238-1.682,2.097,2.302-1.858,3.193-2.005,5.185,7.124-.997,10.364-5.409,9.618-12.995ZM118.002,52.855c-1.925,5.541,2.81,13.752,9.335,12.978-.448-1.819-3.909-2.906-2.024-5.024,2.245-2.523,3.463,1.572,5.524,1.784-1.228-7.231-4.873-9.946-12.835-9.739ZM136.338,126.277c-4.697-4.519-7.857-3.835-11.585,2.472,3.915-.925,8.204,1.585,11.585-2.472ZM152.484,128.454c-5.372-5.909-7.197-5.876-11.285,0h11.285Z"/>
      <path class="cls-1" d="M45.338,71.07c.036-3.736,1.283-6.847,4.975-8.475.785-.346.895-1.13,1.159-1.841.303-.817.541-1.899,1.171-2.317,4.745-3.152,9.693-6.063,15.218-7.486,1.447-.373,2.668-.57,3.875-1.541,3.656-2.943,8.162-2.35,10.915,1.431.903,1.24,1.94,2.119,3.181,3.024,4.861,3.547,9.607,7.268,14.208,11.147,1.199,1.011,2.24,1.711,3.793,2.041,5.645,1.197,8.011,7.577,3.971,11.65-11.194,11.285-22.849,22.065-36.893,29.876-5.341,2.971-10.717,3.416-16.258.725-3.734-1.813-7.618-3.398-11.123-5.584-5.669-3.536-11.844-2.89-17.985-2.884-.459,0-1.117.166-1.346.491-4.059,5.783-10.107,3.036-15.364,3.591-1.256.133-2.318-.601-2.356-1.924-.048-1.701,1.295-1.923,2.646-1.928,2.647-.009,5.295-.039,7.942-.012,2.485.026,3.694-1.07,3.682-3.645-.046-9.706-.032-19.413-.013-29.12.005-2.34-.995-3.487-3.424-3.412-2.645.081-5.294.011-7.941.009-1.517-.001-2.935-.343-2.862-2.182.068-1.719,1.545-1.713,2.833-1.714,3.025-.002,6.051.016,9.076.02,1.583.002,3.286.329,4.05,1.645,1.542,2.658,3.919,2.397,6.266,2.249,5.164-.325,9.725.904,13.477,4.65.782.781,1.652,1.587,3.126,1.515ZM25.041,96.861c1.958,0,3.581.078,5.193-.014,5.968-.34,11.502.888,16.531,4.241,1.355.903,2.948,1.444,4.327,2.316,8.125,5.138,15.652,4.239,23.415-1.275,10.424-7.404,19.963-15.773,29.149-24.601,1.616-1.553,3.243-3.194,1.408-5.478-1.771-2.204-3.865-1.185-5.761-.044-9.051,5.445-18.804,9.684-27.369,15.966-1.469,1.078-3.218,1.325-5.029,1.318-6.807-.027-13.615.011-20.422-.024-1.428-.007-3.449.482-3.552-1.718-.113-2.412,1.951-2.157,3.573-2.16,6.555-.014,13.111.019,19.666-.017,3.736-.021,5.722-1.62,5.758-4.498.037-2.899-1.939-4.561-5.655-4.591-5.42-.043-10.841-.009-16.262.008-3.794.012-7.389-.885-10.07-3.587-4.259-4.294-9.327-4.267-14.9-3.607v27.765ZM97.822,68.333c-.709-.63-1.13-1.335-1.613-1.381-4.453-.421-4.994-6.797-9.919-6.5-.197.012-.484-.823-.664-1.289-.55-1.423-1.583-2.291-3.068-2.474-1.491-.183-1.95-1.106-2.51-2.379-1.603-3.645-4.754-3.938-6.762-.573-1.121,1.879-2.012,2.549-4.14,1.465-2.313-1.178-4.421-.326-5.119,2.136-.696,2.453-1.784,2.978-4.083,2.199-2.285-.775-4.319.103-4.576,2.483-.272,2.513-1.063,3.822-3.597,4.385-1.798.399-2.523,2.015-2.188,3.862.344,1.895,1.73,2.169,3.415,2.135,3.78-.075,7.578.19,11.341-.073,5.999-.419,10.35,1.437,11.895,8.057,7.323-4.089,14.327-7.999,21.588-12.053Z"/>
      <path class="cls-1" d="M125.449,151.076c-3.563-.297-6.202-3.384-5.981-6.993.222-3.619,3.228-6.221,6.907-5.978,3.577.236,6.339,3.386,6.054,6.905-.284,3.514-3.551,6.353-6.981,6.067ZM128.494,144.433c-.307-1.484-1.105-2.454-2.763-2.359-1.45.083-2.276.895-2.321,2.359-.051,1.675.956,2.584,2.489,2.61,1.569.026,2.438-.997,2.594-2.61Z"/>
      <path class="cls-1" d="M46.101,160.139c-.069,3.501-3.027,6.352-6.576,6.336-3.78-.017-6.58-2.978-6.41-6.776.16-3.583,3.1-6.315,6.665-6.195,3.472.117,6.389,3.179,6.321,6.636ZM39.536,157.407c-1.53.228-2.507,1.032-2.469,2.685.033,1.446.855,2.333,2.296,2.437,1.667.121,2.641-.894,2.713-2.419.073-1.551-.919-2.492-2.54-2.703Z"/>
      <path class="cls-1" d="M101.156,157.223c.102,3.049-2.444,5.864-5.488,6.069-3.14.211-6.148-2.532-6.256-5.706-.108-3.164,2.704-6.056,5.898-6.065,3.088-.009,5.742,2.58,5.846,5.702Z"/>
      <path class="cls-1" d="M26.516,143.874c.009,3.134-2.603,5.8-5.748,5.866-3.3.069-6.04-2.7-5.948-6.014.089-3.215,2.666-5.681,5.899-5.643,3.169.037,5.788,2.652,5.797,5.791Z"/>
      <path class="cls-1" d="M66.986,146.73c-.142,3.229-2.731,5.597-6.006,5.495-3.181-.099-5.755-2.763-5.684-5.882.074-3.268,2.971-5.921,6.258-5.728,3.134.184,5.573,2.93,5.433,6.115Z"/>
      <path class="cls-1" d="M158.847,148.603c3.279.042,6.021,2.76,6.084,6.031.065,3.366-2.902,6.337-6.27,6.278-3.306-.058-5.965-2.749-6.009-6.082-.047-3.526,2.686-6.273,6.196-6.227ZM160.927,154.602c-.233-1.183-.858-2.018-2.235-1.963-1.349.053-2.062.794-2.04,2.153.023,1.39.865,2.06,2.156,2.042,1.334-.019,1.992-.872,2.119-2.231Z"/>
      <path class="cls-1" d="M75.314,67.235c.251-3.157,1.938-5.098,5.008-5.807,1.262-.291,2.316.156,2.724,1.408.383,1.173-.433,1.725-1.399,2.288-3.206,1.867-3.169,2.279.234,4.427.943.595,1.619,1.298,1.155,2.445-.434,1.072-1.376,1.344-2.492,1.262-2.714-.199-5.259-3.105-5.23-6.023Z"/>
      <path class="cls-1" d="M64.702,65.644c.934.017,1.297-.642,1.544-1.373.482-1.432,1.41-2.166,2.843-1.461,1.24.61,1.097,1.838.765,2.97-.669,2.282-2.176,3.606-4.568,3.806-2.544.213-4.428-.871-5.365-3.224-.495-1.244-.941-2.837.751-3.598,1.5-.675,2.299.337,2.747,1.682.208.624.566,1.109,1.283,1.198Z"/>
    </g>
  </g>
</svg>