<?xml version="1.0" encoding="UTF-8"?>
<svg id="Capa_1" xmlns="http://www.w3.org/2000/svg" viewBox="0 0 180.05 180.05">
  <defs>
    <style>
      .cls-1 {
        fill: #5d7f6f;
      }
    </style>
  </defs>
  <g id="HHlMcQ">
    <path class="cls-1" d="M85.413,163.39h11.478c.294-2.246.605-4.281.813-6.327.183-1.803.316-3.809,2.723-3.64,2.739.192,2.244,2.394,2.091,4.241-.151,1.821-.293,3.643-.465,5.797,7.696,0,15.177.009,22.658-.007,1.559-.003,1.554-1.262,1.693-2.323.268-2.05.454-4.111.742-6.157.191-1.354,1.044-2.245,2.416-2.172,1.518.081,2.385,1.081,2.286,2.625-.161,2.49-.441,4.972-.666,7.397,1.001.961,2.149.615,3.192.617,6.754.016,13.507.011,20.261-.042,7.844-.062,12.759-4.06,13.462-10.875.648-6.285-3.503-11.257-10.793-12.919-.942-.215-1.891-.399-3.134-.659-.607,5.235-1.179,10.293-1.792,15.345-.143,1.176-.244,2.433-1.611,2.978-1.981.789-3.511-.678-3.253-3.389.494-5.198,1.14-10.381,1.782-16.102-12.208-2.796-24.426-5.594-36.82-8.433-.255,1.69-.49,3.07-.666,4.457-.215,1.695-.465,3.474-2.729,3.281-2.534-.216-2.248-2.218-2.118-3.97.112-1.51.316-3.014.52-4.886-7.867-1.806-15.66-3.594-23.8-5.463-.499,4.078-1,7.918-1.427,11.766-.184,1.655-.612,3.185-2.577,3.109-2.247-.086-2.406-1.817-2.232-3.573.394-3.984.811-7.965,1.236-12.123-1.175-.172-2.125-.332-3.081-.448-1.42-.172-2.202-.994-2.171-2.381.036-1.567.998-2.292,2.544-2.372,2.645-.138,5.201.419,7.748.981,4.035.889,8.048,1.881,12.081,2.783,1.235.276,2.481.754,3.358-.908,4.204-7.968,9.518-15.46,11.455-24.431,3.342-15.479.739-29.584-11.367-40.65-9.356-8.553-22.359-9.042-32.86-1.961-3.611,2.435-5.83,2.699-8.965.344-12.377-9.294-31.884-6.216-40.879,10.546-.514.958-.992,1.934-1.502,2.895-.796,1.499-2.065,2.044-3.529,1.217-1.312-.741-1.441-1.973-.818-3.403,8.612-19.761,29.664-26.103,45.742-17.687.747.391,1.355,1.125,2.531,1.011v-6.263c-1.763-.595-3.286.332-4.886.414-7.906.406-14.424-2.669-20.099-7.868-5.134-4.703-8.816-10.462-11.879-16.652-1.156-2.336-.773-4.107,2.007-4.631,8.44-1.591,16.68-1.356,24.428,2.949,4.256,2.365,7.364,5.923,10.636,10.648,0-3.289.028-5.631-.009-7.972-.03-1.876.172-3.776,2.539-3.717,2.155.054,2.308,1.892,2.306,3.629-.013,8.82-.015,17.641.01,26.461.003.941-.266,1.942.527,3.155,6.709-3.969,13.971-5.64,21.752-4.426,7.813,1.218,14.275,5.014,19.871,10.93,1.338-3.64,1.326-7.098,1.443-10.54.236-6.925,2.12-13.301,6.457-18.81,8.894-11.297,23.552-11.219,32.355.16,4.069,5.26,6.189,11.301,6.238,17.878.089,11.853,4.14,21.769,11.971,30.833,10.196,11.801,10.861,25.889,6.772,40.373-2.232,7.905-6.453,14.699-12.602,20.177.329,1.264,1.44.974,2.139,1.211,8.37,2.837,13.209,10.313,11.969,18.637-1.212,8.137-8.313,14.259-16.954,14.309-17.646.102-35.293.063-52.94.082-8.497.009-16.993.018-25.49.028-12.044.013-20.513-5.476-25.398-16.485-.172-.387-.391-.752-.7-1.341-5.852,1.39-11.143,3.676-15.359,8.058-1.531,1.592-3.11,3.062-5.453,3.297-3.414.344-6.251-.669-8.179-3.618-1.835-2.808-1.676-6.303.42-9.169.89-1.217,1.946-2.312,3.309-3.911-2.877-.371-5.375-.695-7.873-1.015-1.727-.221-3.477-.33-5.179-.674-4.276-.865-6.893-4.552-6.403-8.862.469-4.125,3.72-7.05,8.043-6.993,2.599.035,5.193.391,8.011.621.067-1.304-.787-2.175-1.286-3.157-4.381-8.613-10.035-16.593-12.938-25.938-2.366-7.618-2.886-15.369-1.48-23.23.311-1.737.641-3.77,3.047-3.382,2.353.38,2.182,2.308,1.866,4.132-1.767,10.221-.238,19.937,4.596,29.107,2.475,4.695,5.068,9.327,7.577,13.93,1.103-.249.948-1.05,1.175-1.612,1.267-3.131,3.676-4.873,6.935-5.217,3.323-.351,6.002,1.052,7.655,3.969,3.188,5.625,7.995,9.369,13.919,12.355,2.633-3.747,5.655-7.124,9.778-9.31,1.597-.847,3.351-1.883,4.559.172,1.186,2.019-.418,3.064-2.036,4.036-8.864,5.328-12.789,14.931-10.014,24.309,2.776,9.382,11.745,15.5,21.968,15.134,1.798-.064,2.501-.658,2.65-2.426.302-3.577.796-7.137,1.174-10.708.17-1.603.837-2.844,2.581-2.728,1.95.13,2.42,1.579,2.238,3.301-.422,3.991-.86,7.98-1.324,12.271ZM116.577,78.181c1.264-.601,2.218-1.066,3.181-1.511,14.265-6.59,31.273.764,36.061,15.645.599,1.86,1.941,4.365-.944,5.295-2.971.959-3.079-1.88-3.704-3.761-4.416-13.299-20.437-18.904-32.049-11.235-1.44.951-2.33,1.943-2.341,3.89-.04,6.618-1.526,13-4.505,18.881-1.363,2.69-.887,4.637.656,6.82,5.026,7.107,11.898,10.627,20.508,9.489,8.979-1.187,15-6.484,17.907-15.13.62-1.845.817-4.336,3.606-3.454,2.757.871,1.58,3.17,1.054,4.972-3.818,13.069-17.393,21.035-30.669,18.123-7.41-1.625-12.97-5.843-17.262-12.263-1.775,2.757-3.319,5.266-4.397,8.192.631.214,1.02.384,1.426.477,14.419,3.292,28.862,6.486,43.242,9.941,2.802.673,4.705.062,6.788-1.668,15.318-12.724,18.762-41.214,4.421-55.867-3.463-3.538-6.067-7.652-8.053-12.188-2.945-6.728-3.342-13.879-3.881-21.058-.495-6.602-2.88-12.507-8.074-16.93-5.62-4.786-13.207-4.727-18.828.056-3.792,3.227-6.023,7.421-7.172,12.172-1.739,7.192-.652,14.813-3.225,21.897-.128.353-.014.903.183,1.249,3.145,5.516,4.926,11.515,6.069,17.967ZM15.819,132.656c-2.215-.213-4.037.441-4.196,2.923-.146,2.284,1.455,3.188,3.544,3.422,5.516.618,11.028,1.279,16.545,1.883,1.434.157,2.934.167,3.452,1.864.574,1.881-.799,2.738-2.074,3.626-2.062,1.438-3.937,3.091-5.63,4.951-1.403,1.542-2.025,3.227-.373,4.896,1.648,1.665,3.41,1.211,4.857-.349,4.59-4.946,10.322-7.912,16.721-9.692,1.464-.407,1.84-1.11,1.743-2.56-.175-2.614.069-5.232.878-7.74.494-1.53.046-2.363-1.366-3.1-5.804-3.03-10.634-7.145-13.966-12.884-1.093-1.883-2.795-2.571-4.692-1.386-1.774,1.108-1.779,2.832-.812,4.593,1.264,2.302,2.777,4.426,4.571,6.339,1.003,1.069,1.957,2.154,1.329,3.735-.697,1.753-2.275,1.432-3.651,1.293-5.63-.57-11.254-1.204-16.88-1.814ZM28.081,17.174c5.148,12.288,18.355,23.06,29.176,18.448-1.94-12.95-15.688-21.643-29.176-18.448Z"/>
  </g>
</svg>