<?xml version="1.0" encoding="UTF-8"?>
<svg id="Capa_1" xmlns="http://www.w3.org/2000/svg" viewBox="0 0 180.05 180.05">
  <defs>
    <style>
      .cls-1 {
        fill: #5d7f6f;
      }
    </style>
  </defs>
  <g id="ii8AvE">
    <g>
      <path class="cls-1" d="M33.198,106.916c2.453-.633,4.221-2.02,6.131-3.083,5.653-3.146,11.259-6.375,16.89-9.56,1.484-.84,3.064-1.937,4.508-.067,1.362,1.764-.225,2.845-1.454,4.238,5.432,3.084,10.759,6.106,16.083,9.132,4.242,2.41,8.476,4.833,12.725,7.231.898.507,1.717,1.136,2.92.448,9.834-5.625,19.7-11.196,29.809-16.926-.534-.477-.803-.749-1.104-.978-1.205-.918-1.53-2.12-.684-3.334.985-1.413,2.367-1.139,3.683-.395,6.37,3.602,12.735,7.212,19.103,10.819,1.459.826,2.92,1.649,4.712,2.661v-5.612c-6.44-3.494-8.748-7.283-7.622-12.592,1.03-4.856,5.027-8.241,9.879-8.366,4.936-.127,9.153,2.951,10.48,7.651,1.304,4.618-.659,9.829-5.091,11.878-2.473,1.143-2.807,2.672-2.689,4.92.134,2.555-.565,5.079,2.757,6.642,4.881,2.296,9.488,5.184,14.158,7.912,3.567,2.083,3.587,4.911.048,7.046-4.45,2.684-8.979,5.236-13.458,7.872-1.518.894-3.092,1.405-4.12-.442-1.04-1.867.329-2.892,1.814-3.749,3.936-2.273,7.854-4.578,12.305-7.178-4.579-2.599-8.731-4.955-13.498-7.661,0,2.403.014,4.27-.004,6.136-.015,1.566-.648,2.828-2.34,2.82-1.641-.008-2.379-1.177-2.39-2.784-.004-.531-.096-1.08.005-1.59,1.086-5.463-1.069-8.754-6.233-10.935-4.463-1.885-8.536-4.699-12.767-7.128-1.04-.597-1.911-1.022-3.187-.288-9.74,5.601-19.528,11.118-29.314,16.668.557,1.219,1.663,1.458,2.54,1.958,11.332,6.461,22.7,12.86,33.999,19.378,1.77,1.021,3.161,1.247,4.876-.011,1.532-1.123,3.275-1.955,4.919-2.926,1.482-.876,3.059-1.469,4.15.368,1.124,1.893-.301,2.908-1.75,3.753-9.986,5.824-19.974,11.646-29.965,17.463-6.966,4.056-13.975,8.041-20.883,12.193-2.18,1.31-3.953,1.3-6.163.007-24.899-14.571-49.85-29.053-74.778-43.575-4.315-2.514-4.297-5.21.026-7.689,4.508-2.586,9.001-5.201,13.582-7.652,1.782-.954,2.839-2.006,2.502-4.169-.178-1.14-.114-2.338-.012-3.497.154-1.757-.323-2.759-2.136-3.599-4.728-2.189-6.802-6.946-5.614-11.91,1.085-4.532,5.239-7.82,9.964-7.885,4.885-.067,9.209,3.193,10.37,7.817,1.216,4.846-.878,9.852-5.591,11.96-3.534,1.581-1.769,4.133-2.089,6.612ZM50.697,143.586c.821.602,1.202.937,1.633,1.189,11.999,6.994,24.026,13.942,35.982,21.01,1.635.967,2.698.395,4.014-.374,11.534-6.739,23.089-13.443,34.624-20.18.679-.397,1.588-.579,1.894-1.562-.231-.22-.419-.484-.675-.629-12.256-6.97-24.524-13.921-36.77-20.91-1.036-.591-1.862-.628-2.916-.026-12.424,7.094-24.87,14.148-37.785,21.482ZM15.099,123.077c9.735,5.678,19,11.014,28.178,16.494,1.791,1.07,3.097,1.048,4.891.013,11.481-6.62,23.038-13.107,34.554-19.665.67-.381,1.606-.531,1.851-1.618-9.671-5.489-19.368-10.951-29.009-16.51-1.377-.794-2.309-.376-3.458.289-4.22,2.443-8.308,5.22-12.766,7.122-4.989,2.129-7.3,5.237-6.252,10.645.119.612.032,1.273-.019,1.906-.127,1.569-.87,2.744-2.55,2.635-1.455-.094-2.196-1.184-2.22-2.644-.031-1.858-.007-3.716-.007-6.131-4.583,2.593-8.613,4.873-13.192,7.464ZM154.894,90.833c-.089-3.035-2.787-5.646-5.804-5.617-3.198.031-5.751,2.784-5.608,6.049.139,3.173,2.659,5.474,5.878,5.366,3.114-.104,5.624-2.734,5.534-5.799ZM30.795,96.634c3.133-.044,5.662-2.588,5.648-5.68-.014-3.047-2.633-5.693-5.676-5.736-3.196-.045-5.827,2.668-5.745,5.926.079,3.166,2.57,5.535,5.774,5.49Z"/>
      <path class="cls-1" d="M134.677,53.519c.01,20.718-14.117,38.816-34.261,43.599-2.738.65-4.027,2.541-5.581,4.353-4.178,4.873-6.069,4.988-9.982.081-1.996-2.503-4.264-4.018-7.417-4.913-22.269-6.318-35.703-27.844-31.962-50.869,3.577-22.01,24.078-38.289,46.766-37.136,23.659,1.202,42.426,21.052,42.437,44.885ZM89.516,100.306c1.574-1.839,2.837-3.124,3.872-4.573,1.257-1.761,2.908-2.563,4.983-3.016,21.032-4.587,34.691-24.945,30.997-46.103-3.333-19.091-19.944-33.109-39.403-33.254-19.51-.145-36.419,14.073-39.858,33.514-3.316,18.747,7.667,37.95,25.834,44.28,5.364,1.869,10.765,3.089,13.576,9.15Z"/>
      <path class="cls-1" d="M100.473,140.288c-.131,3.617-1.966,6.873-5.77,8.583-1.953.877-2.413,2.004-2.26,3.889.119,1.474.08,2.974-.041,4.45-.116,1.411-.839,2.42-2.422,2.403-1.416-.015-2.434-1.012-2.24-2.186.837-5.05-1.316-8.07-5.384-11.016-3.685-2.669-3.652-8.596-1.116-12.522,2.485-3.849,7.234-5.617,11.666-4.344,4.622,1.327,7.619,5.357,7.567,10.744ZM95.745,139.468c-.068-3.138-2.593-5.559-5.767-5.531-3.166.029-5.649,2.508-5.653,5.646-.005,3.224,2.754,5.907,5.928,5.767,3.084-.136,5.56-2.788,5.492-5.882Z"/>
      <path class="cls-1" d="M68.677,73.106c5.481-5.159,11.024-9.586,18.565-10.25.64-1.931.27-3.688.311-5.397-1.496-.733-2.893-.34-4.238-.426-6.972-.448-11.959-7.475-10.023-14.12.518-1.779,1.738-2.541,3.468-2.78,4.176-.575,7.923.108,12.029,2.385,2.913-5.421,7.971-6.256,13.56-5.894,3.269.212,4.518,1.411,4.645,4.742.28,7.354-4.095,12.035-11.494,12.286-.843.029-1.688.004-2.782.004v8.863c2.267.683,4.492,1.335,6.705,2.026,1.636.511,2.642,1.564,2.019,3.333-.596,1.689-2.085,1.69-3.465,1.159-10.276-3.96-18.354-.244-25.425,7.153,8.365,8.095,25.513,8.37,34.727-.126-.824-1.356-3.134-2.498-1.392-4.497,2.036-2.338,3.531.227,5.18.863,7.14-6.274,9.564-19.374,5.509-29.521-7.671-19.2-32.408-24.352-47.13-9.826-1.367,1.349-2.799,3.799-4.901,1.702-2.218-2.213.284-3.807,1.702-5.212,10.66-10.558,27.243-12.656,40.23-5.152,13.216,7.635,19.694,23.11,15.775,37.681-3.969,14.756-17.1,24.917-32.28,24.979-22.614.092-38.798-21.405-32.437-43.092.239-.813.498-1.624.812-2.41.579-1.45,1.592-2.368,3.206-1.775,1.594.585,1.819,1.842,1.266,3.383-1.787,4.98-2.451,10.065-1.459,15.33,1.026,5.443,3.272,10.24,7.316,14.591ZM78.021,45.183c-.055,5.803,4.295,8.648,9.47,6.388-.072-5.408-2.67-7.205-9.47-6.388ZM101.929,41.708c-6.853-.759-9.786,1.492-9.131,6.81,6.558.936,9.534-1.221,9.131-6.81Z"/>
    </g>
  </g>
</svg>