<?xml version="1.0" encoding="UTF-8"?>
<svg id="Capa_1" xmlns="http://www.w3.org/2000/svg" viewBox="0 0 180.05 180.05">
  <defs>
    <style>
      .cls-1 {
        fill: #5d7f6f;
      }
    </style>
  </defs>
  <g id="hPeuEU">
    <g>
      <path class="cls-1" d="M170.254,123.071c-3.369,11.182-6.774,22.458-10.165,33.739-2.396,7.973-4.036,9.215-12.291,9.216-23.168.002-46.337,0-69.505,0-.909,0-1.817-.001-2.725-.018-1.654-.031-3.033-.599-3.045-2.463-.013-2.024,1.408-2.643,3.222-2.641,5.899.007,11.797.003,18.11.003-1.186-4.029-2.271-7.786-3.397-11.53-2.384-7.926-4.836-15.833-7.151-23.779-.528-1.812-1.023-3.179-3.329-2.903-.697.083-1.621-.294-2.186-.765-3.634-3.029-2.149-7.156-1.905-10.828.198-2.984,2.762-3.872,5.526-3.885.556-.002,1.111-.065,2.199-.133-2.547-1.908-5.139-2.606-7.474-3.789-.884-.448-1.516-.042-2.172.434-1.011.733-2.021,1.467-3.031,2.202-6.629,4.826-10.075,4.783-16.354-.204-6.55,5.035-9.848,5.201-16.599-.054-2.868-2.233-5.198-2.857-8.439-.929-2.806,1.669-5.953,2.776-8.974,4.072-3.079,1.321-4.918,3.622-5.427,6.893-2.322,14.905-4.599,29.817-6.891,44.719,1.223.813,2.499.457,3.699.459,16.808.027,33.617.015,50.425.026,1.13,0,2.307-.066,3.378.218,1.183.314,1.842,1.266,1.72,2.599-.107,1.167-.737,1.93-1.867,2.113-1.001.162-2.033.178-3.051.179-18.285.01-36.57.013-54.855.003-5.027-.003-5.386-.492-4.588-5.621,2.319-14.911,4.673-29.818,6.89-44.744.824-5.548,3.594-9.421,8.746-11.623,2.502-1.069,4.969-2.222,7.473-3.288,2.26-.962,4.182-1.802,4.926-4.78.877-3.511,8.065-6.408,12.074-5.469,1.244-1.884.897-4.139,1.27-6.211.261-1.449-4.325-4.714-6.583-4.845-1.472-.085-2.956.004-4.426-.1-7.442-.526-12.859-6.096-13.127-13.532-.09-2.495-.025-4.997-.014-7.495.008-1.701.748-2.956,2.541-2.99,1.875-.036,2.467,1.335,2.502,2.985.055,2.611-.094,5.238.145,7.83.483,5.238,4.238,8.302,9.563,7.94-4.306-8.985-2.18-18.537-2.452-27.859-.084-2.895,2.17-4.564,4.996-4.508,5.321.106,10.395-.317,14.915-3.582,1.651-1.192,3.584-.682,5.086.526,3.971,3.196,8.457,4.032,13.427,3.606,3.263-.28,5.414,1.493,5.49,4.674.165,6.915.622,13.863-.392,20.746-.309,2.094-1.252,4.094-1.904,6.135,4.506.993,9.174-2.449,9.309-7.518.248-9.305.263-18.629-.051-27.931-.174-5.142-2.661-9.513-6.306-13.233-2.034-2.076-3.884-2.406-6.199-.528-2.522,2.046-5.388,2.9-8.581,1.697-1.649-.622-3.269-1.688-3.688-3.325-.983-3.84-3.635-4.07-6.798-3.861-2.94.195-5.955-.155-8.83.348-10.36,1.814-17.351,10.303-17.685,21.141-.073,2.383-.002,4.77-.079,7.153-.051,1.571-.904,2.651-2.522,2.623-1.398-.024-2.352-.957-2.436-2.381-.55-9.264.073-18.218,6.967-25.458,4.735-4.972,10.445-7.964,17.343-8.365,3.509-.204,7.038-.17,10.556-.121,3.536.049,6.094,1.744,7.316,5.09,1.092,2.99,2.695,3.136,5.198,1.542,6.094-3.882,9.318-3.374,14.169,2.055,4.411,4.936,6.735,10.715,6.755,17.361.025,8.291.082,16.582-.004,24.872-.09,8.656-5.607,14.125-14.285,14.458-2.085.08-4.089-.202-6.204,1.052-3.293,1.952-4.245,4.282-3.032,7.759.218.626.215,1.329.362,2.323,4.688-1.939,7.648,1.382,11.043,3.391.376.223.865.597.925.962.904,5.488,5.95,5.746,9.652,7.644,2.703,1.385,5.632,2.33,7.973,4.421,1.046-1.308.616-2.603.619-3.788.035-13.969.012-27.938.028-41.908.007-5.592,1.713-7.273,7.358-7.279,12.606-.014,25.213-.017,37.819.001,5.533.008,7.298,1.802,7.321,7.401.023,5.664.005,11.328.005,17.497,3.768,0,7.248-.021,10.728.005,5.156.038,6.853,1.764,6.911,7.011.015,1.361.023,2.729-.088,4.083-.117,1.422-.954,2.369-2.405,2.389-1.61.022-2.526-.977-2.606-2.55-.091-1.803-.021-3.615-.021-5.669h-13.346c-1.167,3.262,1.159,7.257-1.987,9.987-2.303,1.998-5.226,1.173-7.884,1.149-4.439-.041-4.801-.867-5.63-11.131h-13.239v22.849h41.707c.674-1.857.266-3.79.334-5.674.068-1.903.089-3.916,2.651-3.886,2.627.031,2.419,2.176,2.522,3.998.101,1.784-.295,3.606.337,5.426,3.171,1.047,7.041-.968,9.663,2.061,2.095,2.42,1.099,5.453,1.145,8.217.068,4.056-1.319,5.169-6.814,5.896ZM87.816,122.901c3.59,11.935,7.079,23.539,10.573,35.142.603,2.001,1.921,2.883,4.052,2.878,15.899-.037,31.799-.047,47.698.009,2.467.009,3.773-1.093,4.416-3.351.808-2.835,1.701-5.645,2.546-8.469,2.593-8.668,5.182-17.337,7.832-26.209h-77.117ZM113.417,107.03c0-5.915,0-11.457,0-16.999,0-11.063.055-11.119,10.928-11.119,4.878,0,9.756.035,14.633-.023,1.304-.016,2.715.437,4.111-.666,0-3.05.062-6.219-.017-9.385-.078-3.128.354-6.286-.269-9.31h-13.2c-.686,10.193-.971,10.885-5.406,10.881-2.657-.003-5.588.931-7.923-.94-3.281-2.628-1.027-6.663-2.136-10.006h-13.147v47.567h12.426ZM71.382,47.296c-4.215.466-8.262.541-11.577-1.563-3.6-2.286-6.539-2.558-10.353-.387-3.435,1.956-7.709,1.295-11.899,1.787.159,6.806-.784,13.509.56,20.108,1.576,7.738,9.087,13.371,16.914,13.077,8.274-.311,15.621-6.618,16.261-14.66.474-5.963.093-11.995.093-18.363ZM171.843,112.635h-90.755c-.321,1.744-.526,3.276.173,4.88h90.582v-4.88ZM49.411,85.228c.673,3.133-2.94,6.425.574,9.039,3.898,2.9,6.285,2.904,9.514-.235,2.722-2.646-.286-5.777.158-8.804h-10.247ZM51.13,100.798c-2.494-1.348-4.905-2.371-6.997-3.848-3.066-2.164-5.543-1.656-7.947,1.039.346.312.654.643,1.013.906,1.916,1.408,3.81,2.849,5.777,4.184,3.328,2.259,5.512,1.72,8.154-2.281ZM58.296,100.639c2.659,6.662,7.792,3.417,14.576-2.98-1.71-.787-2.943-3.007-5.09-2.035-3.266,1.479-6.36,3.338-9.487,5.015ZM124.1,59.586c-1.465-.491-2.845-.619-4.331.118-.031,1.899-.499,3.783.343,5.62,1.436.044,2.775.459,4.073-.345.281-1.814.398-3.581-.085-5.393ZM141.719,89.829c.489-1.88.488-3.741-.013-5.632-1.389-.364-2.69-.419-4.164.059-.368,1.868-.356,3.713-.022,5.563,1.509.466,2.807.478,4.199.01Z"/>
      <path class="cls-1" d="M57.098,117.276c0,.787.085,1.585-.018,2.358-.202,1.516-1.016,2.504-2.664,2.443-1.5-.055-2.219-1.025-2.321-2.406-.107-1.455-.077-2.921-.071-4.383.008-1.803.714-3.218,2.701-3.12,1.743.087,2.431,1.403,2.412,3.082-.007.675-.001,1.35-.001,2.025-.013,0-.025,0-.038,0Z"/>
      <path class="cls-1" d="M51.957,149.895c.072-.883.07-1.904.257-2.889.211-1.109.98-1.722,2.128-1.82,1.32-.112,2.402.563,2.541,1.72.251,2.096.243,4.255.052,6.361-.11,1.218-1.207,1.885-2.469,1.827-1.261-.058-2.123-.776-2.316-2.048-.151-.994-.13-2.014-.193-3.152Z"/>
      <path class="cls-1" d="M57.064,133.706c0,.907.129,1.837-.03,2.715-.25,1.383-1.133,2.193-2.626,2.129-1.34-.058-2.143-.822-2.256-2.102-.139-1.578-.143-3.173-.114-4.759.03-1.631.578-2.982,2.513-2.962,1.864.02,2.522,1.258,2.577,2.936.023.681.004,1.362.004,2.044-.023,0-.046,0-.069,0Z"/>
      <path class="cls-1" d="M108.308,151.809c.142,1.856-.395,2.925-1.851,3.217-1.578.316-2.64-.416-3.026-1.985-1.865-7.583-3.719-15.169-5.56-22.759-.393-1.618-.104-3.045,1.747-3.438,2.021-.43,2.824.892,3.242,2.621,1.649,6.821,3.319,13.637,4.982,20.454.187.768.378,1.535.465,1.891Z"/>
      <path class="cls-1" d="M144.384,152.127c.698-2.926,1.422-6.013,2.171-9.094,1.098-4.512,2.212-9.02,3.325-13.528.416-1.684,1.185-3.125,3.224-2.662,1.982.45,2.209,1.928,1.765,3.72-1.797,7.256-3.541,14.525-5.31,21.788-.409,1.681-1.156,3.061-3.215,2.681-1.435-.265-2.046-1.299-1.961-2.906Z"/>
      <path class="cls-1" d="M138.773,129.1c-.73,8.249-1.36,15.45-2.011,22.649-.165,1.821-.714,3.557-2.958,3.305-2.215-.249-2.378-2.01-2.202-3.862.675-7.083,1.301-14.171,1.972-21.255.159-1.683.659-3.235,2.762-3.151,2.129.085,2.402,1.671,2.436,2.314Z"/>
      <path class="cls-1" d="M121.146,151.559c.223,1.764-.179,3.292-2.201,3.506-2.063.219-2.696-1.272-2.856-3.006-.676-7.309-1.339-14.62-1.994-21.931-.143-1.596.14-3.054,2.035-3.315,2.035-.28,2.85,1.024,3.017,2.815.683,7.309,1.335,14.62,1.999,21.93Z"/>
    </g>
  </g>
</svg>