<?xml version="1.0" encoding="UTF-8"?>
<svg id="Capa_1" xmlns="http://www.w3.org/2000/svg" viewBox="0 0 180.05 180.05">
  <defs>
    <style>
      .cls-1 {
        fill: #5d7f6f;
      }
    </style>
  </defs>
  <g id="tzyOK6">
    <g>
      <path class="cls-1" d="M147.577,147.567h-3.939c-38.903,0-77.807.002-116.71-.001-10.334,0-15.35-5.049-15.35-15.435-.001-35.314-.005-70.629.003-105.943.002-9.563,6.039-15.196,15.566-14.564,3.281.217,5.255,2.168,5.307,5.505.077,4.981.02,9.964.02,14.857,1.353.824,2.604.492,3.786.492,38.903.02,77.807.016,116.71.018,10.551,0,15.504,4.98,15.504,15.583,0,35.212.004,70.424-.002,105.636-.002,9.674-5.839,15.238-15.414,14.726-3.452-.184-5.418-2.146-5.464-5.662-.064-4.892-.016-9.785-.016-15.213ZM32.477,37.8v4.156c0,24.905,0,49.811,0,74.716q0,8.996-8.853,10.074c-3.811.464-6.656,3.612-6.767,7.487-.114,4.001,2.696,7.398,6.628,7.894,1.31.165,2.649.13,3.975.13,37.987.006,75.974-.066,113.961.067,7.209.025,14.611-1.459,21.823,2.226v-3.794c0-30.928.003-61.855-.002-92.783-.001-7.687-2.535-10.171-10.344-10.172-38.804-.002-77.608,0-116.412,0h-4.01ZM27.333,121.312v-4.007c0-20.289,0-40.579,0-60.868,0-12.133-.09-24.267.065-36.398.037-2.911-1.038-3.483-3.585-3.11-4.633.679-6.998,3.746-7,9.477-.012,31.301-.008,62.602.004,93.903,0,.999-.218,2.04.437,3.197,2.977-1.622,6.212-2.348,10.08-2.194ZM152.914,147.737v15.216c3.645.641,6.656-.065,8.796-3.02,1.898-2.62,2.049-5.52.503-8.331-1.907-3.466-5.068-4.428-9.299-3.865Z"/>
      <path class="cls-1" d="M55.734,84.816c.61-2.898.299-5.449.329-7.977.059-4.898-.057-9.8.059-14.696.099-4.179,2.458-6.944,6.512-7.674,6.925-1.248,13.861-2.448,20.814-3.526,5.138-.796,9.089,2.765,9.117,8.17.056,10.818.019,21.637.02,32.455,0,1.101,0,2.202,0,3.337,1.849.58,3.416.49,5.326.094,0-8.314.026-16.55-.018-24.785-.011-2.103.01-4.41,1.646-5.696,2.672-2.1,3.639-4.588,4.006-7.888.38-3.423,3.621-5.647,7.297-5.786,2.529-.096,5.066-.018,7.968-.018,0-1.841-.031-3.441.008-5.04.042-1.705,1.004-2.744,2.661-2.724,1.519.018,2.4,1.041,2.443,2.598.045,1.609.01,3.219.01,5.162,2.778,0,5.199-.05,7.618.01,4.857.121,8.056,3.241,8.095,8.092.014,1.771.326,2.949,1.984,3.965,2.565,1.573,3.331,4.236,3.324,7.156-.015,6.532.083,13.066-.05,19.595-.043,2.121.54,3.061,2.719,3.457,5.719,1.039,7.779,3.645,7.795,9.474.026,9.185.022,18.371,0,27.557-.012,5.245-1.757,6.986-7.002,6.987-33.695.008-67.39.008-101.084,0-5.256-.001-6.967-1.729-6.97-6.978-.007-12.758-.006-25.515,0-38.273.002-5.45,1.602-7.02,7.163-7.046,2.731-.013,5.462-.002,8.212-.002ZM123.877,131.541c.057-1.012.141-1.817.142-2.622.011-10.092-.05-20.184.036-30.275.052-6.101,4.201-9.423,10.019-8.328,1.764.332,3.499.992,5.589.789,0-7.283.007-14.506-.005-21.729-.003-1.706-.92-2.763-2.604-2.772-10.401-.052-20.802-.046-31.204-.027-1.705.003-2.736,1.042-2.748,2.675-.062,8.536-.029,17.074-.029,25.712,3.175.631,6.123.263,9.046.325,4.909.103,6.661,1.781,6.688,6.607.021,3.772.004,7.543.004,11.315,0,6.09,0,12.18,0,18.264,1.786.478,3.264.408,5.065.066ZM61.256,131.566h10.202v-41.394h-25.736v41.41h10.358c0-1.219-.014-2.219.003-3.22.034-1.944-.221-4.254,2.668-4.177,2.587.069,2.532,2.165,2.508,4.063-.013,1.012-.002,2.024-.002,3.317ZM82.139,131.681c0-1.455,0-2.565,0-3.675,0-8.777.017-17.555-.009-26.332-.009-2.92.848-5.287,3.909-6.15,1.329-.375,1.434-1.185,1.433-2.28-.015-11.227-.008-22.454-.012-33.68-.001-2.609-1.256-3.745-3.883-3.302-4.827.815-9.657,1.606-14.486,2.41-8.76,1.459-7.799.254-7.831,9.152-.02,5.581-.004,11.162-.004,16.992,3.157,0,5.903-.013,8.65.003,5.448.032,7.07,1.666,7.075,7.184.012,12.145-.006,24.291.022,36.436.003,1.074-.364,2.249.509,3.241h4.627ZM150.114,131.67c0-10.347-.009-20.336.008-30.326.003-1.913-1.125-2.728-2.786-3.062-4.597-.923-9.187-1.89-13.802-2.713-3.331-.594-4.26.245-4.271,3.656-.025,8.164-.008,16.328-.009,24.492,0,2.618,0,5.236,0,7.953h20.86ZM113.263,131.658v-31.005h-25.608v31.005h25.608ZM134.184,61.115c.57-4.171-.103-5.034-3.951-5.058-5.814-.037-11.628-.031-17.442-.003-4.141.02-4.734.758-4.104,5.062h25.498Z"/>
      <path class="cls-1" d="M113.549,71.686c2.209.087,5.035-.484,5.088,2.554.057,3.28-2.885,2.761-5.052,2.738-2.133-.022-5.125.63-5.081-2.683.044-3.335,3.08-2.412,5.046-2.609Z"/>
      <path class="cls-1" d="M113.525,87.478c-2.079-.153-5.074.574-5.022-2.731.053-3.304,3.066-2.533,5.185-2.578,2.085-.045,4.902-.489,4.951,2.536.053,3.284-2.9,2.654-5.115,2.773Z"/>
      <path class="cls-1" d="M129.053,77c-1.765-.234-4.803.749-4.832-2.62-.029-3.358,2.952-2.542,5.065-2.679.403-.026.81.003,1.215-.004,1.973-.033,3.873.254,3.815,2.766-.054,2.339-1.931,2.517-3.746,2.537-.405.004-.81,0-1.515,0Z"/>
      <path class="cls-1" d="M129.36,82.184c.81,0,1.628-.073,2.427.016,1.465.163,2.501.904,2.552,2.492.056,1.754-1.028,2.592-2.632,2.711-1.511.113-3.037.082-4.554.031-1.709-.056-3.034-.746-3.002-2.672.032-1.919,1.375-2.546,3.082-2.604.708-.024,1.418-.004,2.126-.004,0,.01,0,.02,0,.03Z"/>
      <path class="cls-1" d="M66.509,101.421c.001,2.264-.233,4.136-2.549,4.157-2.467.022-2.757-1.869-2.733-3.86.022-1.851.24-3.66,2.558-3.716,2.578-.063,2.674,1.952,2.724,3.419Z"/>
      <path class="cls-1" d="M50.808,114.837c-.13-1.888.25-3.706,2.467-3.801,2.494-.107,2.75,1.865,2.754,3.836.004,1.85-.227,3.753-2.485,3.817-2.428.069-2.853-1.823-2.736-3.852Z"/>
      <path class="cls-1" d="M56.024,101.68c-.006,1.907-.078,3.929-2.653,3.892-2.278-.033-2.605-1.786-2.59-3.68.015-1.945.143-3.886,2.673-3.892,2.365-.005,2.544,1.866,2.57,3.68Z"/>
      <path class="cls-1" d="M66.509,114.499c.016,2.242-.245,4.236-2.72,4.187-2.223-.044-2.558-1.862-2.568-3.755-.01-2.007.315-3.93,2.728-3.905,2.225.023,2.612,1.879,2.56,3.474Z"/>
      <path class="cls-1" d="M74.218,69.14c-1.628.002-3.261.072-4.884-.018-1.616-.09-2.72-.899-2.717-2.66.003-1.617,1.039-2.472,2.514-2.515,3.456-.099,6.919-.107,10.375-.008,1.446.041,2.547.859,2.578,2.474.033,1.75-1.067,2.602-2.678,2.701-1.724.106-3.459.024-5.189.026Z"/>
      <path class="cls-1" d="M74.344,74.388c1.729-.002,3.463-.086,5.185.024,1.468.095,2.545.876,2.555,2.485.012,1.738-1.081,2.629-2.705,2.668-3.355.08-6.715.079-10.071.002-1.63-.037-2.702-.924-2.689-2.673.012-1.62,1.053-2.398,2.54-2.482,1.723-.097,3.456-.023,5.185-.024Z"/>
      <path class="cls-1" d="M139.708,121.375c-1.95-.299-5.028.88-5.013-2.604.016-3.478,3.08-2.458,5.107-2.494,1.97-.035,4.846-.839,4.943,2.368.105,3.475-2.899,2.516-5.038,2.73Z"/>
      <path class="cls-1" d="M139.685,110.934c-1.993-.257-5.048.814-4.991-2.655.057-3.46,3.124-2.411,5.147-2.458,1.975-.046,4.853-.803,4.907,2.408.057,3.44-2.935,2.501-5.063,2.704Z"/>
      <path class="cls-1" d="M97.904,116.162c0,2.343-.005,4.686.001,7.03.005,1.866-.694,3.353-2.718,3.334-1.845-.017-2.572-1.427-2.577-3.165-.012-4.788-.025-9.577.006-14.365.011-1.683.573-3.11,2.553-3.142,2.152-.034,2.712,1.458,2.729,3.278.021,2.343.005,4.686.005,7.029Z"/>
      <path class="cls-1" d="M108.349,116.249c.004,2.445.027,4.89-.004,7.334-.02,1.633-.806,2.853-2.481,2.938-1.88.095-2.75-1.196-2.766-2.942-.045-4.991-.049-9.983.018-14.974.021-1.593.8-2.775,2.601-2.762,1.777.013,2.56,1.155,2.607,2.766.074,2.544.02,5.093.024,7.639Z"/>
    </g>
  </g>
</svg>