<?xml version="1.0" encoding="UTF-8"?>
<svg id="Capa_1" xmlns="http://www.w3.org/2000/svg" viewBox="0 0 180.05 180.05">
  <defs>
    <style>
      .cls-1 {
        fill: #5d7f6f;
      }
    </style>
  </defs>
  <g id="EJFCNk">
    <g>
      <path class="cls-1" d="M61.108,55.699c.558-3.231,1.023-6.159,1.583-9.069.315-1.634,1.216-2.858,3.075-2.356,1.633.441,1.863,1.765,1.553,3.316-.534,2.678-1.23,5.349-.941,8.338,4.769.511,9.456,1.166,13.989,2.645,4.048,1.321,7.966,2.93,11.528,5.252,1.743,1.137,3.091.845,4.615-.246,2.934-2.101,4.462-5.217,5.333-8.449,1.108-4.108.841-8.448.24-12.64-.403-2.81-2.703-4.053-5.395-3.908-5.739.309-9.72-1.787-12.038-7.292-1.266-3.006-6.977-3.318-8.986-.725-1.358,1.754-2.556,3.642-3.712,5.539-.951,1.561-2.143,2.556-3.871,1.462-1.649-1.043-1.06-2.554-.254-3.914,8.049-13.57,19.801-22.084,35.386-24.414,19.299-2.885,35.197,3.695,47.452,18.916.912,1.133,1.659,2.017,3.366,1.7,2.881-.535,4.757.857,6.12,3.413,16.749,31.398-2.639,72.084-37.668,78.971-31.994,6.29-61.398-14.555-66.032-46.812-.916-6.379-.162-7.945,4.656-9.727ZM122.026,106.886c1.262.601,2.207.036,3.176-.245,29.504-8.556,44.345-41.124,31.685-69.283-1.095-2.435-2.428-2.959-4.842-2.639-24.825,3.281-43.611,24.486-43.79,49.549-.057,8.061,1.59,15.723,5.328,22.888,1.318-.255,1.993-1.123,2.778-1.788,5.791-4.916,10.516-10.735,14.419-17.23,6.766-11.26,10.54-23.513,12.006-36.517.202-1.791.508-3.634,2.773-3.475,1.808.127,2.257,1.599,2.063,3.308-2.126,18.757-8.427,35.782-20.836,50.268-1.501,1.752-3.126,3.399-4.759,5.165ZM106.475,103.083c-2.282-7.652-3.414-14.61-2.982-21.755.082-1.347-.89-2.117-1.63-2.97-7.313-8.43-16.405-13.935-27.302-16.378-4.431-.993-8.907-1.664-13.464-1.018.207,22.475,18.986,44.703,43.997,47.205-.484-.972-1.454-1.235-2.239-1.713-5.167-3.145-10.133-6.572-14.703-10.547-6.456-5.616-12.025-11.942-15.667-19.786-.71-1.528-1.176-3.173.849-4.036,1.765-.753,2.689.394,3.411,1.889,6.263,12.961,17.091,21.276,29.73,29.108ZM143.806,27.541c-4.559-4.977-9.45-7.999-14.717-10.571-2.532-1.236-4.096-1.101-5.568,1.583-1.503,2.742-3.018,6.1-6.413,6.669-6.134,1.028-12.404,1.735-18.308-1.294-2.804-1.438-4.614-3.922-6.324-6.549-3.928,1.739-7.341,3.861-10.62,6.787,3.173.778,5.846,1.936,6.9,4.687,1.555,4.057,4.313,5.209,8.413,5.098,5.305-.144,9.483,3.612,9.899,8.798.772,9.623.225,18.917-8.646,25.451,2.081,1.928,3.948,3.657,6.047,5.6,1.129-4.792,2.485-9.009,4.433-13.028,1.951-4.025,4.296-7.798,7.214-11.176,1.295-1.499,1.896-3.016,2.183-5.032,1.323-9.301,7.229-18.05,18.711-17.049,1.973.172,3.974.024,6.798.024ZM97.387,15.525c2.619,5.031,5.761,6.05,15.967,5.691,4.53-.159,4.935-4.158,7.411-6.859-8.285-1.614-15.852-1.402-23.378,1.168ZM139.753,32.552c-9.643-.617-13.897,1.818-15.188,8.695,4.819-3.609,9.848-6.378,15.188-8.695Z"/>
      <path class="cls-1" d="M18.642,129.487c0,1.682.072,3.061-.02,4.429-.094,1.403-.757,2.465-2.328,2.506-1.585.041-2.317-.995-2.404-2.403-.104-1.687-.172-3.408.044-5.076.371-2.871,2.368-4.473,5.594-4.515,5.404-.07,10.811.065,16.213-.052,3.562-.077,5.929,1.25,6.756,4.893,1.858.056,2.871-1.257,4.023-2.26,7.102-6.186,14.285-6.902,22.458-2.111,2.549,1.494,5.242,2.094,8.171,2.174,4.496.123,9.158-.881,13.343,1.74.804.503,1.389-.168,1.973-.574,1.565-1.088,3.111-2.205,4.664-3.31,6.832-4.864,11.892-4.148,17.152,2.704,3.232-2.265,6.416-4.652,9.756-6.797,4.221-2.712,9.396-2.042,12.807,1.437,3.286,3.352,3.881,8.626,1.418,12.602-.851,1.374-2.007,2.452-3.312,3.384-10.175,7.261-20.336,14.54-30.527,21.778-5.984,4.25-12.731,6.12-20.018,6.131-12.717.02-25.433.006-38.15.006-1.157,0-2.313,0-3.726,0-.664,4.544-3.705,5.42-7.632,5.289-4.975-.166-9.96-.013-14.941-.049-4.197-.03-6.073-1.816-6.119-5.972-.068-6.253-.016-12.507-.021-18.761-.002-1.8.189-3.708,2.475-3.661,2.266.046,2.386,1.967,2.382,3.757-.013,6.455-.005,12.911-.005,19.629h18.692v-36.919h-18.718ZM42.442,161.311h3.13c12.817,0,25.634-.088,38.45.034,7.055.067,13.306-1.971,18.983-6.086,6.944-5.034,13.943-9.991,20.916-14.984,3.013-2.158,6.089-4.235,9.005-6.517,1.891-1.479,2.633-3.537,1.825-5.956-.796-2.381-2.536-3.613-4.952-3.839-1.795-.168-3.22.808-4.619,1.812-8.775,6.296-17.582,12.546-26.337,18.87-2.479,1.791-5.153,2.996-8.203,3.031-6.884.08-13.77.037-20.654.037-1.73,0-3.395-.408-3.338-2.488.057-2.055,1.737-2.374,3.46-2.369,4.449.012,8.898.024,13.346-.005,4.224-.028,6.729-2.082,6.746-5.464.018-3.426-2.434-5.439-6.682-5.484-.424-.005-.848-.02-1.271.002-6.241.324-12.072-.535-17.654-3.898-4.411-2.657-9.299-1.912-13.387,1.342-2.73,2.173-5.231,4.6-8.765,5.179v26.784ZM94.964,141.526c4.366-3.121,8.656-6.356,13.127-9.317,2.443-1.618,1.859-2.922.106-4.383-1.389-1.156-3.09-1.566-4.768-.977-3.343,1.174-5.827,3.739-8.674,5.716-.511.355-.459.942-.281,1.443.846,2.377.629,4.763.49,7.518Z"/>
    </g>
  </g>
</svg>