<?xml version="1.0" encoding="UTF-8"?>
<svg xmlns="http://www.w3.org/2000/svg" xmlns:xlink="http://www.w3.org/1999/xlink" viewBox="0 0 280 280">
  <defs>
    <style>
      .cls-1 {
        fill: none;
      }

      .cls-2 {
        isolation: isolate;
      }

      .cls-3 {
        fill: #999;
        mix-blend-mode: multiply;
      }

      .cls-4 {
        fill: #5d7f6f;
      }

      .cls-5 {
        clip-path: url(#clippath);
      }
    </style>
    <clipPath id="clippath">
      <rect class="cls-1" x="-1253" y="-717" width="1920" height="623" transform="translate(-586 -811) rotate(-180)"/>
    </clipPath>
  </defs>
  <g class="cls-2">
    <g id="Capa_1">
      <g class="cls-5">
        <image width="7008" height="4672" transform="translate(894.078 -1164) rotate(-180) scale(.316 -.316)" xlink:href="../../Editables/shutterstock_2420587683.jpg"/>
        <rect class="cls-3" x="-1299" y="-846" width="1967" height="993" transform="translate(-631 -699) rotate(-180)"/>
        <rect class="cls-3" x="-1299" y="-846" width="1967" height="993" transform="translate(-631 -699) rotate(-180)"/>
      </g>
      <g id="o1AzNc">
        <g>
          <path class="cls-4" d="M212.648,71.937c-11.782-1.248-23.029-2.439-35.043-3.711,1.342,3.696,2.781,6.509,3.272,9.478.266,1.606-1.089,3.48-1.712,5.233-1.787-.858-4.365-1.252-5.199-2.67-1.808-3.074-2.922-6.613-3.959-10.07-1.714-5.716,1.736-10.326,7.638-9.792,13.226,1.196,26.434,2.635,39.617,4.236,5.612.682,7.243,5.085,3.973,9.833-1.35,1.96-2.832,3.828-4.345,5.86,15.688,15.305,26.102,33.252,31.371,54.192,16.312,64.825-29.266,130.28-95.632,137.267-61.449,6.469-114.924-35.492-123.267-96.725-6.108-44.832,17.708-91.037,57.786-112.108,8.578-4.51,16.298-2.194,21.015,6.305,4.95,8.917,3.01,16.632-5.588,21.593-27.24,15.717-41.702,39.355-42.037,70.696-.437,40.974,32.99,76.642,72.859,78.894,43.75,2.472,80.344-27.177,85.472-69.372,3.013-24.794-4.401-46.246-21.255-65.034-.989.942-1.852,1.654-2.586,2.481-4.577,5.153-8.712,4.549-11.26-1.74-1.423-3.513-3.047-7.01-3.869-10.673-.389-1.735.89-3.845,1.414-5.785,1.864.982,4.323,1.525,5.45,3.052,1.581,2.142,2.171,5.014,3.117,7.405,2.541-1.298,5.275-3.908,7.371-3.469,2.835.594,5.63,3.143,7.664,5.519,22.876,26.726,28.94,57.161,16.243,89.777-12.771,32.807-37.808,51.935-73.106,55.199-55.025,5.087-99.798-39.572-94.842-94.561,2.718-30.157,18.093-53.046,44.34-68.423,5.541-3.246,6.654-6.003,4.346-10.849-2.827-5.936-6.294-6.854-12.591-3.337-69.557,38.852-70.802,138.733-2.24,179.679,44.37,26.498,102.156,15.862,134.256-24.713,32.154-40.642,29.338-99.298-6.546-136.383q-7.438-7.687-2.127-17.284Z"/>
          <path class="cls-4" d="M144.266,48.975c-.137,1.723-.287,2.737-.288,3.752-.015,15.692-.01,31.383-.01,47.553,20.331,2.45,36.279,11.82,46.581,29.619,7.39,12.768,9.301,26.565,6.346,40.985-5.817,28.385-32.964,48.308-62.186,45.729-28.395-2.506-51.427-26.725-52.848-54.69-1.411-27.77,17.719-57.399,53.827-61.542v-30.416c-3.969-.345-7.931-.35-11.753-1.084-12.466-2.395-20.911-12.382-21.469-24.996-.676-15.284.331-16.725,15.493-15.615,6.068.444,11.956,3.342,17.476,4.988,1.36-3.768,2.922-8.645,4.897-13.347,1.072-2.551,3.269-4.447,6.191-2.707,2.999,1.786,2.009,4.329.405,6.682-3.565,5.228-3.098,11.032-2.78,16.794,17.072,3.219,27.659-7.318,25.31-25.536-3.486.181-7.074.729-10.58.4-1.811-.17-3.475-1.898-5.206-2.922,1.295-1.525,2.427-4.153,3.915-4.372,4.73-.697,9.638-.935,14.38-.429,1.889.201,4.416,2.479,5.122,4.38,4.291,11.553-2.119,27.767-13.37,33.438-3.721,1.875-8.155,2.442-12.331,3.262-2.134.419-4.418.073-7.121.073ZM190.514,158.76c.1-27.58-22.622-50.487-50.224-50.633-27.614-.146-50.488,22.412-50.779,50.078-.291,27.705,22.709,50.901,50.483,50.913,27.578.013,50.42-22.756,50.519-50.358ZM135.618,61.216c3.375-20.018-12.075-28.266-25.056-24.98-2.684,17.331,7.272,27.385,25.056,24.98Z"/>
          <path class="cls-4" d="M172.339,158.756c.102-17.171-12.797-31.149-29.884-32.382-17.159-1.238-32.043,10.632-34.538,27.485-.247,1.668-.45,3.613-1.429,4.813-.736.903-3.424,1.551-3.945,1.025-1.254-1.265-2.526-3.333-2.426-4.995,1.008-16.74,14.766-32.075,31.44-35.395,23.69-4.718,45.122,10.719,48.445,34.892,3.076,22.373-14.637,43.138-38.091,44.654-15.566,1.006-31.408-8.466-38.126-22.857-1.235-2.645-3.037-5.833.624-7.67,3.71-1.862,4.978,1.418,6.324,4.128,7.006,14.11,21.843,21.294,36.558,17.774,14.865-3.556,24.958-16.236,25.049-31.471Z"/>
          <path class="cls-4" d="M147.867,146.271c-3.87,0-6.316-.265-8.656.117-1.094.178-2.59,1.488-2.788,2.502-.178.911.927,2.519,1.898,3.114,1.886,1.155,4.067,1.836,6.141,2.677,4.286,1.738,7.333,4.598,7.968,9.352.677,5.073-1.418,8.998-5.321,12.2-1.479,1.214-2.738,2.805-3.766,4.434-1.775,2.811-3.798,3.296-6.353,1.182-2.099-1.737-4.372-3.347-6.124-5.394-1.364-1.593-2.043-3.771-3.027-5.689,2.078-.422,4.154-1.155,6.235-1.172,1.817-.015,3.89,1.525,5.399,1.023,1.984-.66,4.186-2.36,4.978-4.184.392-.903-1.883-3.485-3.455-4.589-2.076-1.457-4.753-2.023-6.985-3.299-6.87-3.928-7.481-12.675-1.413-17.732,2.583-2.153,4.884-6.112,7.536-6.313,2.811-.214,6.118,2.78,8.745,4.937,1.217,1,1.945,3.424,1.723,5.04-.135.984-2.507,1.659-2.735,1.794Z"/>
        </g>
      </g>
    </g>
  </g>
</svg>