<?xml version="1.0" encoding="UTF-8"?>
<svg xmlns="http://www.w3.org/2000/svg" xmlns:xlink="http://www.w3.org/1999/xlink" viewBox="0 0 280 280">
  <defs>
    <style>
      .cls-1 {
        fill: none;
      }

      .cls-2 {
        isolation: isolate;
      }

      .cls-3 {
        fill: #999;
        mix-blend-mode: multiply;
      }

      .cls-4 {
        fill: #5d7f6f;
      }

      .cls-5 {
        clip-path: url(#clippath);
      }
    </style>
    <clipPath id="clippath">
      <rect class="cls-1" x="0" y="-717" width="1920" height="623" transform="translate(1920 -811) rotate(-180)"/>
    </clipPath>
  </defs>
  <g class="cls-2">
    <g id="Capa_1">
      <g class="cls-5">
        <image width="7008" height="4672" transform="translate(2147.078 -1164) rotate(-180) scale(.316 -.316)" xlink:href="../../Editables/shutterstock_2420587683.jpg"/>
        <rect class="cls-3" x="-46" y="-846" width="1967" height="993" transform="translate(1875 -699) rotate(-180)"/>
        <rect class="cls-3" x="-46" y="-846" width="1967" height="993" transform="translate(1875 -699) rotate(-180)"/>
      </g>
      <g id="Y8EPZ4">
        <g>
          <path class="cls-4" d="M221.554,95.924c-7.092-2.016-7.824-3.834-4.252-10.147,1.37-2.421,2.738-4.844,4.078-7.214-2.046-1.4-5.305-2.482-5.603-4.108-.428-2.331.903-5.283,2.183-7.579,6.03-10.808,12.299-21.482,18.8-32.755-13.017,5.377-26.208,24.46-28.216,39.718-1.543,11.726-.074,23.128,4.374,33.921,8.24,19.995,15.457,40.184,17.251,62.544,2.267-3.832,4.543-7.658,6.799-11.496,4.149-7.056,7.353-7.15,11.357-.242,6.618,11.416,13.196,22.856,19.761,34.303,3.588,6.256,2.861,8.094-4.217,10.342,1.483,2.624,2.941,5.194,4.389,7.769,3.398,6.043,2.566,8.02-4.516,9.87,1.777,3.137,3.586,6.137,5.205,9.236,2.588,4.954.909,7.905-4.652,8.048-5.35.137-10.706.03-16.656.03,0,6.184.517,11.955-.16,17.583-.563,4.685,3.599,13.195-4.454,13.048-7.78-.142-3.62-8.58-4.197-13.327-.665-5.467-.155-11.077-.155-17.293-4.412,0-8.481-.329-12.447.167-1.512.189-3.021,2.089-4.133,3.519-6.466,8.315-12.721,16.795-19.254,25.055-2.026,2.562-4.951,3.789-7.602.722-2.44-2.824-.375-4.896,1.501-7.215,5.815-7.186,11.918-14.235,16.845-22.011,3.374-5.325,4.971-11.775,7.347-17.681-6.503-1.791-7.224-3.587-3.611-9.969,1.37-2.421,2.736-4.844,4.06-7.187-2.058-1.415-5.158-2.43-5.63-4.161-.558-2.048,1.208-4.698,1.865-7.116,1.002-3.692,2.659-7.39,2.746-11.116.495-21.304-4.08-41.585-12.11-61.339-3.879-9.541-7.094-19.677-8.497-29.835-3.333-24.127,6.106-43.633,24.596-58.937,11.166-9.242,23.931-15.556,37.757-19.837,3.199-.991,6.189-1.338,7.442,2.3,1.297,3.765-1.507,5.056-4.593,6.19-6.739,2.476-13.365,5.259-20.05,7.921,8.017,13.9,15.611,27.032,23.168,40.185,3.605,6.275,2.87,8.133-4.204,10.335,1.479,2.627,2.93,5.2,4.378,7.775,3.414,6.071,2.594,8.042-4.508,9.882,1.775,3.135,3.577,6.128,5.196,9.218,2.598,4.958.932,7.927-4.607,8.073-5.351.141-10.71.03-16.687.03,0,8.396-.037,16.333.018,24.269.024,3.406-.327,6.876-4.608,6.782-4.274-.094-4.413-3.658-4.391-7,.051-7.782.016-15.564.016-24.049-5.886,0-11.397.065-16.905-.017-6.393-.095-8.072-2.922-5.103-8.442.792-1.472,1.692-2.886,2.508-4.346.81-1.449,1.577-2.922,2.38-4.418ZM227.681,67.76c7.276,2.117,7.98,3.85,4.408,10.166-1.451,2.566-2.908,5.128-4.398,7.755,7.282,2.025,7.983,3.762,4.374,10.154-1.427,2.527-2.843,5.061-4.686,8.345h30.667c-2.355-4.214-4.436-7.475-6.06-10.95-2.547-5.448,1.7-6.464,5.564-7.384q-7.537-15.452.067-18.401c-4.863-8.38-9.704-16.723-14.919-25.71-5.366,9.3-10.172,17.628-15.016,26.024ZM257.399,210.612q-7.324-15.307.239-18.082c-4.867-8.412-9.71-16.781-14.924-25.793-5.347,9.26-10.156,17.587-14.999,25.972,7.369,2.278,7.977,3.945,4.147,10.666-1.368,2.401-2.739,4.802-4.139,7.258,7.235,2.134,7.927,3.845,4.376,10.161-1.426,2.536-2.828,5.084-4.503,8.098h30.341c-1.656-2.905-3-5.274-4.353-7.638-3.868-6.758-3.32-8.289,3.816-10.642Z"/>
          <path class="cls-4" d="M16.293,162.71c-6.955-1.663-7.913-3.659-4.792-9.297,1.524-2.751,3.114-5.466,4.699-8.242-7.251-2.269-7.906-4.022-4.08-10.669,6.58-11.432,13.164-22.861,19.807-34.257,3.746-6.426,7.038-6.472,10.728-.14,6.735,11.557,13.404,23.152,20.066,34.751,3.571,6.217,2.851,8.022-4.212,10.344,1.479,2.619,2.937,5.188,4.383,7.764,3.369,5.999,2.52,7.992-4.526,9.848,1.864,3.297,3.818,6.441,5.463,9.739,2.19,4.388.504,7.34-4.381,7.514-5.529.197-11.071.045-16.895.045v18.043c.4.029.874.209,1.046.054,12.905-11.616,28.958-15.327,45.379-18.167,12.436-2.151,24.876-4.287,37.266-6.683,3.234-.626,6.396-1.965,9.399-3.383,10.119-4.777,14.852-12.368,12.917-23.397-1.589-9.055-4.158-18.113-7.614-26.634-12.242-30.175-7.31-55.887,16.505-78.087,9.356-8.721,19.545-16.602,29.779-24.301,4.057-3.052,9.144-4.936,14.024-6.571,1.54-.516,3.93,1.506,5.931,2.367-.975,1.937-1.513,5.093-2.993,5.625-17.247,6.199-29.638,19.11-42.364,31.159-19.532,18.492-23.002,40.189-13.201,65.27,3.946,10.098,7.238,20.765,8.662,31.462,2.047,15.378-4.868,26.85-19.645,31.754-13.283,4.409-27.398,6.321-41.159,9.275-8.525,1.83-17.165,3.2-25.59,5.401-13.373,3.493-23.267,12.052-31.208,23.035-10.206,14.116-15.891,30.145-19.457,47.011-.707,3.344-1.467,6.721-5.716,5.762-4.118-.929-3.615-4.351-2.983-7.703,3.314-17.577,9.972-33.761,19.683-48.764,1.208-1.867,1.929-4.369,1.991-6.602.23-8.349.092-16.709.092-25.917-5.715,0-11.209.054-16.702-.014-6.718-.083-8.355-2.9-5.149-8.744.804-1.465,1.708-2.875,2.529-4.331.725-1.287,1.399-2.604,2.316-4.322ZM52.313,134.611c-4.895-8.47-9.756-16.881-14.989-25.934-5.339,9.273-10.196,17.71-15.13,26.279,7.112,1.706,8.015,3.595,4.885,9.281-1.565,2.843-3.162,5.669-4.804,8.607,7.039,1.681,7.933,3.592,4.776,9.301-1.559,2.818-3.154,5.615-4.926,8.767h30.45c-1.721-3.026-3.157-5.545-4.587-8.068-3.623-6.39-2.949-8.083,4.364-10.242-1.406-2.458-2.777-4.854-4.148-7.25-3.874-6.767-3.328-8.292,4.11-10.742Z"/>
          <path class="cls-4" d="M120.813,60.074c1.7,2.98,3.179,5.538,4.625,8.114,3.329,5.93,2.478,7.907-4.533,9.847,1.86,3.287,3.82,6.427,5.458,9.727,2.174,4.381.463,7.211-4.444,7.489-2.779.158-5.573.035-8.361.036-2.744.001-5.489,0-8.795,0,0,6.391.465,12.334-.15,18.162-.477,4.522,3.401,12.672-4.468,12.513-7.567-.153-3.703-8.222-4.201-12.8-.616-5.663-.147-11.444-.147-17.876-5.504,0-10.637.02-15.771-.005-7.898-.038-9.469-2.65-5.679-9.385,1.45-2.577,2.894-5.157,4.367-7.78-7.118-2.094-7.848-3.901-4.32-10.155,1.452-2.574,2.884-5.159,4.355-7.792-7.198-1.959-7.955-3.778-4.3-10.14,6.658-11.59,13.325-23.177,20.059-34.723,3.713-6.366,6.992-6.34,10.724.061,6.826,11.708,13.619,23.435,20.354,35.195,3.233,5.645,2.254,7.728-4.772,9.51ZM114.856,67.748c-1.411-2.458-2.787-4.849-4.157-7.245-3.855-6.744-3.309-8.263,4.115-10.746-4.893-8.46-9.753-16.863-14.985-25.911-5.343,9.281-10.197,17.711-15.13,26.279,7.122,1.703,8.019,3.598,4.878,9.297-1.563,2.836-3.148,5.66-4.781,8.595,7.031,1.676,7.922,3.593,4.751,9.313-1.556,2.808-3.15,5.594-4.922,8.737h30.432c-1.715-3.027-3.145-5.55-4.575-8.074-3.606-6.367-2.936-8.051,4.373-10.246Z"/>
          <path class="cls-4" d="M139.556,217.24c-4.249-2.732-7.995-4.671-11.175-7.295-4.83-3.985-6.931-4.196-11.469.026-8.481,7.891-15.846,7.834-24.405.061-1.555-1.412-3.99-1.841-5.591-3.22-1.705-1.468-2.903-3.526-4.322-5.326,2.054-1.137,4.462-3.584,6.088-3.144,3.589.972,7.144,2.957,10.06,5.331,5.127,4.175,7.078,4.43,11.874-.079,8.068-7.586,15.816-7.507,24.028-.044,1.677,1.524,4.28,2,6.061,3.446,1.645,1.335,3.869,3.377,3.791,5.01-.076,1.591-2.747,3.057-4.94,5.234Z"/>
          <path class="cls-4" d="M153.985,248.09c-3.774-1.746-6.978-3.064-10.022-4.683-3.167-1.684-6.341-3.443-9.19-5.596-1.42-1.073-3.244-3.459-2.877-4.61.521-1.631,3.243-4.017,4.415-3.715,3.803.979,7.843,2.394,10.853,4.811,6.184,4.964,7.485,5.296,13.079.03,7.237-6.813,15.527-6.766,22.855-.195,1.959,1.756,4.836,2.465,6.887,4.148,1.622,1.331,2.625,3.416,3.903,5.166-1.842,1.193-3.906,3.611-5.479,3.326-3.307-.599-6.822-2.046-9.422-4.163-7.362-5.993-7.097-5.993-14.748.21-2.878,2.333-6.704,3.496-10.254,5.271Z"/>
          <path class="cls-4" d="M78.37,261.508c-3.849-1.718-7.084-2.968-10.131-4.574-3.336-1.758-6.674-3.614-9.656-5.892-1.368-1.045-2.982-3.657-2.53-4.749.663-1.601,3.44-3.766,4.683-3.419,3.785,1.055,7.741,2.61,10.766,5.044,5.819,4.683,7.346,5.002,12.679-.036,7.467-7.055,15.667-6.992,23.245-.117,1.819,1.65,4.509,2.313,6.442,3.871,1.653,1.333,2.796,3.298,4.164,4.984-1.968,1.26-4.16,3.802-5.857,3.507-3.286-.572-6.735-2.208-9.333-4.353-6.799-5.611-7.366-5.594-13.946-.104-2.985,2.49-6.893,3.874-10.525,5.837Z"/>
          <path class="cls-4" d="M158.979,178.754c3.803,2.702,7.368,4.445,9.837,7.179,3.442,3.812,5.645,3.597,8.834-.232,6.335-7.606,14.392-7.441,20.916-.197,1.39,1.544,3.746,2.205,5.184,3.722,1.456,1.535,2.325,3.627,3.451,5.475-1.94,1.042-4.312,3.356-5.732,2.872-3.339-1.137-6.738-3.118-9.168-5.661-3.34-3.496-5.447-3.353-8.487.222-6.725,7.907-14.415,7.771-21.259.213-1.387-1.532-3.807-2.106-5.287-3.585-1.395-1.394-3.139-3.506-2.96-5.104.174-1.553,2.594-2.855,4.673-4.903Z"/>
          <path class="cls-4" d="M170.6,96.202c6.57-3.741,10.738-3.519,17.042,1.904,1.17,1.006,1.987,4.539,1.356,5.102-1.517,1.355-4.478,2.778-5.98,2.133-3.733-1.604-6.722-1.993-10.513.048-3.031,1.632-11.989-2.427-13.662-5.355-1.725-3.018.492-6.694,4.193-6.339,2.46.236,4.816,1.554,7.563,2.507Z"/>
          <path class="cls-4" d="M179.508,131.96c6.502-3.766,11.086-3.484,17.132,1.939,1.141,1.024,1.864,4.568,1.218,5.12-1.55,1.324-4.627,2.726-6.018,2.012-3.785-1.944-6.793-1.643-10.508.118-3.204,1.518-12.032-2.533-13.622-5.489-1.64-3.049.659-6.656,4.362-6.249,2.453.27,4.79,1.601,7.436,2.55Z"/>
          <path class="cls-4" d="M175.111,56.033c6.389-3.78,11.196-3.421,17.059,2.016,1.079,1.001,1.805,3.517,1.301,4.776-.523,1.306-2.795,2.768-4.202,2.672-2.436-.166-4.794-1.48-7.507-2.424-6.592,3.76-10.606,3.526-17.049-1.857-1.137-.95-1.991-3.415-1.568-4.726.426-1.323,2.671-2.991,4.001-2.894,2.611.191,5.139,1.502,7.964,2.436Z"/>
        </g>
      </g>
    </g>
  </g>
</svg>