<?xml version="1.0" encoding="UTF-8"?>
<svg xmlns="http://www.w3.org/2000/svg" xmlns:xlink="http://www.w3.org/1999/xlink" viewBox="0 0 280 280">
  <defs>
    <style>
      .cls-1 {
        fill: none;
      }

      .cls-2 {
        isolation: isolate;
      }

      .cls-3 {
        fill: #999;
        mix-blend-mode: multiply;
      }

      .cls-4 {
        fill: #5d7f6f;
      }

      .cls-5 {
        clip-path: url(#clippath);
      }
    </style>
    <clipPath id="clippath">
      <rect class="cls-1" x="-417.667" y="-717" width="1920" height="623" transform="translate(1084.667 -811) rotate(-180)"/>
    </clipPath>
  </defs>
  <g class="cls-2">
    <g id="Capa_1">
      <g class="cls-5">
        <image width="7008" height="4672" transform="translate(1729.411 -1164) rotate(-180) scale(.316 -.316)" xlink:href="../../Editables/shutterstock_2420587683.jpg"/>
        <rect class="cls-3" x="-463.667" y="-846" width="1967" height="993" transform="translate(1039.667 -699) rotate(-180)"/>
        <rect class="cls-3" x="-463.667" y="-846" width="1967" height="993" transform="translate(1039.667 -699) rotate(-180)"/>
      </g>
      <g id="_x31_V8aIK">
        <g>
          <path class="cls-4" d="M135.957,106.432c5.856-10.811-.876-16.041-7.793-21.743-7.477,10.626-18.049,13.663-30.201,12.342-12.94-1.407-22.55-8.4-29.716-18.855-4.311-6.289-8.06-12.961-12.106-19.433-4.158-6.652-8.437-13.053-16.397-16-3.728-1.38-3.573-5.279.542-6.913,5.648-2.243,11.616-3.998,17.608-4.969,6.183-1.002,12.563-1.06,18.848-.966,1.509.023,2.985,2.281,4.476,3.512-1.588,1.286-3.078,3.523-4.781,3.698-8.289.855-16.636,1.159-24.86,1.651,8.05,12.428,15.201,24.115,23.008,35.345,8.366,12.034,19.879,17.862,34.815,15.007,5.437-1.039,9.74-3.934,12.912-9.987-8.323-3.806-16.399-7.509-24.486-11.189-1.962-.893-4.287-1.331-5.84-2.676-1.342-1.163-1.824-3.317-2.687-5.033,1.856-.559,4.103-2.086,5.503-1.519,8.599,3.482,17.011,7.426,25.473,11.245,1.316.594,2.566,1.332,4.415,2.301,1.001-9.217-1.224-17.047-8.208-22.091-5.78-4.175-12.812-6.629-19.333-9.752-1.172-.561-2.825-.329-3.786-1.071-1.275-.984-2.09-2.566-3.102-3.891,1.439-1.068,2.849-3.022,4.32-3.069,19.764-.632,39.229,19.568,37.443,39.143-.408,4.469.267,7.44,3.9,10.057,1.669,1.202,2.676,3.324,4.445,5.63,2.51-5.318,4.546-9.258,6.194-13.355.47-1.169.089-2.887-.368-4.189-5.714-16.272-.491-31.47,14.611-40.241,17.057-9.907,35.802-11.682,54.97-9.462,6.514.754,12.92,2.829,19.221,4.794,1.693.528,3.823,2.821,3.897,4.39.061,1.291-2.586,2.758-4.104,4.065-3.353,2.886-7.36,5.252-9.991,8.682-4.223,5.504-7.366,11.822-11.306,17.563-3.651,5.32-7.4,10.649-11.715,15.424-11.315,12.522-34.381,16.548-50.136,3.784-2.686,9.258-5.209,17.956-8.057,27.774,3.309,0,5.225,0,7.141,0,36.385,0,72.769-.005,109.154.005,7.068.002,7.68.627,7.684,7.653.025,45.683.045,91.366.066,137.049,0,.997.009,1.994-.023,2.99-.198,6.171-.778,6.76-7.008,6.76-80.412.007-160.824.008-241.236-.001-6.561,0-6.992-.463-6.993-7.182-.005-46.348-.004-92.695-.002-139.043,0-7.851.355-8.227,8.052-8.228,36.717-.006,73.434-.003,110.151-.003,1.963,0,3.927,0,5.385,0ZM259.723,214.645c-2.512,0-4.482,0-6.451,0-53.989,0-107.978.023-161.968-.055-3.326-.005-8.563,1.574-8.531-3.888.029-5.099,5.085-3.62,8.288-3.624,54.155-.07,108.311-.05,162.466-.05h6.033v-55.687c-3.217,1.327-5.792,2.359-8.343,3.446-8.378,3.571-16.888,3.881-25.086-.077-8.44-4.075-16.448-4.037-24.805.135-6.831,3.41-14.58,4.21-21.275,1.031-10.805-5.132-20.905-5.583-31.354.186-1.39.767-3.092.971-5.064,1.56,0,2.522-.242,5.018.105,7.429.167,1.162,1.223,2.771,2.252,3.146,10.913,3.979,21.928,9.5,32.695-.392.117-.108.297-.146.441-.228,2.389-1.352,5.183-2.067,6.238.983.472,1.365-1.15,4.252-2.634,5.335-3.41,2.489-7.319,4.295-11.187,6.47,2.029,4.166,3.822,7.892,5.657,11.597,1.223,2.47,1.799,5.275-1.261,6.22-1.357.419-4.145-1.333-5.182-2.851-2.131-3.12-3.466-6.776-5.244-10.151-.675-1.281-1.427-3.064-2.557-3.472-6.143-2.217-12.415-4.077-19.354-6.286,0,3.875.455,6.935-.165,9.759-.392,1.783-2.389,3.214-3.665,4.804-1.232-1.639-3.166-3.134-3.537-4.949-.596-2.918-.16-6.046-.16-9.113-12.391,2.3-23.647,4.957-26.926,18.759-.075.315-.2.749-.437.875-1.803.961-3.639,1.86-5.465,2.778-.408-1.998-1.637-4.282-1.061-5.938,1.439-4.136,3.698-7.988,5.713-12.13-4.238-2.333-8.018-4.39-11.773-6.491-2.561-1.433-4.044-3.769-1.625-5.916,1.166-1.034,4.757-.982,6.07.062,8.678,6.895,17.661,6.858,27.137,2.166.146-.072.32-.085.479-.135q8.186-2.574,7.828-11.019c-.02-.47-.267-.931-.325-1.124-3.461-1.269-6.805-2.232-9.918-3.69-7.424-3.477-14.714-3.441-22.066.105-9.104,4.391-18.238,4.368-27.34-.013-7.356-3.54-14.684-3.624-22.052-.041-9.09,4.42-18.207,4.373-27.367.146-2.042-.943-4.194-1.649-6.708-2.624v55.334c2.237,0,4.048,0,5.859,0,13.788,0,27.576-.008,41.364.011,2.705.004,5.786-.09,5.879,3.673.093,3.752-2.881,3.884-5.658,3.895-3.322.014-6.645.005-9.967.005-12.432,0-24.864,0-37.574,0v38.657h239.581v-38.623ZM143.946,121.994c1.822,0,3.438,0,5.054,0,12.286,0,24.572,0,36.859,0,7.471,0,14.954-.217,22.405.175,1.667.088,4.316,2.113,4.597,3.606.564,3.004-2.152,3.573-4.685,3.558-1.162-.007-2.324.006-3.487.006-18.429,0-36.859,0-55.288,0h-5.393v19.985c1.052-.151,1.722-.16,2.334-.354,1.103-.35,2.22-.715,3.245-1.241,9.878-5.071,19.669-4.92,29.604.011,6.641,3.296,13.532,3.161,20.163-.132,9.59-4.762,18.992-4.644,28.753-.274,3.65,1.634,8.147,2.95,11.933,2.353,6.44-1.016,12.635-3.624,18.89-5.692.511-.169.971-1.319.987-2.023.093-4.065.045-8.134.045-12.402-2.271-.1-3.739-.217-5.206-.221-9.298-.021-18.601.142-27.888-.175-1.575-.054-3.081-2.134-4.619-3.278,1.555-1.298,2.932-3.037,4.72-3.763,1.569-.636,3.599-.138,5.425-.138,9.079,0,18.157,0,27.323,0v-7.653h-115.771v7.653ZM156.545,72.423c6.451,6.727,14.164,7.52,22.327,6.282,12.218-1.853,19.853-9.928,26.159-19.711,6.432-9.978,12.889-19.939,19.326-29.894-11.331-3.29-23.663-3.273-36.071-1.23-9.738,1.603-19.167,4.124-27.138,10.344-8.518,6.646-11.848,17.21-7.71,26.925,1.242-1.742,1.915-3.525,3.201-4.348,7.204-4.608,14.44-9.2,21.959-13.253,1.46-.787,5.407.171,6.145,1.483,1.769,3.147-1.176,4.568-3.755,5.594-1.694.674-3.429,1.247-5.116,1.939-7.879,3.233-14.245,8.32-19.328,15.871ZM19.971,129.601c0,4.927-1.092,9.665.406,13.35.912,2.243,5.82,2.86,8.932,4.209.152.066.299.145.447.219,7.181,3.602,14.365,3.528,21.542-.004,9.258-4.555,18.544-4.615,27.801-.074,7.372,3.616,14.638,3.586,22.008-.046,9.074-4.472,18.206-4.368,27.366-.083,2.267,1.061,4.708,1.748,7.275,2.682v-20.253H19.971ZM20.12,121.656h115.817v-7.376H20.12v7.376Z"/>
          <path class="cls-4" d="M62.623,222.653c6.264.031,11.391,5.111,11.427,11.322.035,6.093-5.204,11.448-11.312,11.565-6.364.121-11.655-5.229-11.566-11.697.086-6.318,5.105-11.221,11.452-11.19ZM62.488,228.388c-1.81,2.71-3.673,4.297-3.661,5.87.009,1.206,2.607,3.527,3.652,3.32,1.49-.295,3.391-2.32,3.644-3.849.201-1.218-1.802-2.799-3.635-5.341Z"/>
          <path class="cls-4" d="M178.446,222.653c6.377-.084,11.408,4.74,11.547,11.073.144,6.523-5.008,11.848-11.424,11.808-6.117-.038-11.387-5.311-11.429-11.437-.043-6.188,5.069-11.362,11.306-11.445ZM184.463,234.069c-2.88-1.918-4.472-3.783-6.04-3.763-1.223.015-3.312,2.341-3.36,3.699-.044,1.245,2.095,3.562,3.334,3.605,1.553.053,3.169-1.732,6.067-3.54Z"/>
          <path class="cls-4" d="M145.256,236.921c-2.56,1.749-4.013,3.505-5.434,3.479-1.206-.022-2.374-2.101-3.559-3.27,1.261-1.232,2.369-3.139,3.834-3.471,1.081-.245,2.627,1.567,5.16,3.261Z"/>
          <path class="cls-4" d="M31.505,247.362c-1.686-2.888-3.304-4.439-3.208-5.875.08-1.187,2.221-3.145,3.386-3.101,1.234.048,3.319,2.033,3.348,3.213.035,1.445-1.68,2.932-3.525,5.762Z"/>
          <path class="cls-4" d="M247.839,225.364c1.915,2.33,3.886,3.703,3.75,4.817-.18,1.467-2.018,2.731-3.142,4.082-1.26-1.063-3.442-2.044-3.546-3.21-.129-1.443,1.467-3.04,2.939-5.689Z"/>
          <path class="cls-4" d="M96.134,226.393c2.246-1.723,3.694-3.651,4.769-3.461,1.494.263,2.709,2.114,4.043,3.286-1.291,1.208-2.441,3.087-3.921,3.399-1.077.227-2.59-1.616-4.892-3.223Z"/>
          <path class="cls-4" d="M217.368,236.669c1.629,2.259,3.505,3.751,3.293,4.835-.291,1.485-2.165,2.66-3.361,3.968-1.189-1.322-3.061-2.519-3.337-4.01-.199-1.08,1.72-2.551,3.405-4.793Z"/>
        </g>
      </g>
    </g>
  </g>
</svg>