<?xml version="1.0" encoding="UTF-8"?>
<svg id="Capa_1" xmlns="http://www.w3.org/2000/svg" viewBox="0 0 280 280">
  <defs>
    <style>
      .cls-1 {
        fill: #5d7f6f;
      }
    </style>
  </defs>
  <g id="noNVQl">
    <g>
      <path class="cls-1" d="M117.801,219.563c0,10.937.027,21.421-.008,31.905-.036,10.9-5.431,16.337-16.226,16.35-18.494.022-36.989.03-55.483-.003-10.24-.019-15.82-5.46-15.867-15.681-.086-18.661.018-37.322-.052-55.983-.021-5.483,1.73-10.096,6.205-13.616-12.127-14.769-19.634-31.184-23.024-49.609C3.334,78.501,41.684,23.314,96.209,13.68c28.453-5.027,54.581.423,78.462,16.61,2.046,1.387,4.05,2.054,6.483,2.028,7.164-.075,14.329-.033,21.493-.01,2.629.008,5.357.251,5.287,3.752-.068,3.359-2.647,3.76-5.348,3.755-8.331-.017-16.662-.047-24.992.013-5.728.042-7.862,2.091-7.882,7.83-.066,18.827-.06,37.655-.006,56.483.017,5.898,1.962,8.061,7.68,8.094,18.994.109,37.989.109,56.982,0,5.696-.033,7.649-2.225,7.664-8.109.049-18.828.055-37.655-.005-56.483-.018-5.695-2.177-7.733-7.898-7.821-3.498-.054-6.998-.006-10.497-.023-2.664-.013-4.723-1.012-4.648-3.973.07-2.762,2.197-3.478,4.569-3.498,3.998-.034,8.004-.152,11.994.028,8.321.374,13.923,5.573,14.028,13.882.25,19.824.245,39.655.009,59.48-.101,8.449-5.992,13.861-14.429,14.065-5.126.124-10.257.023-15.775.023-1.252,22.781-8.771,42.872-22.627,60.527,3.17,3.111,6.117,6.004,9.299,9.127,6.953-4.126,13.055-2.356,18.269,3.764.537.63,1.135,1.565,1.81,1.668,9.212,1.41,12.969,9.784,19.168,14.996,3.685,3.098,7.312,6.45,10.198,10.268,4.191,5.543,7.458,11.749,11.407,17.508,2.536,3.699,1.228,8.281-1.811,11.557-5.094,5.491-10.369,10.844-15.912,15.875-4.119,3.739-10.571,4.242-14.159.249-5.418-6.029-13.894-7.191-19.011-13.736-4.788-6.123-10.907-11.208-16.459-16.73-2.023-2.012-4.001-3.935-3.939-7.18.043-2.256-2.093-3.309-3.488-4.64-4.603-4.392-6.211-9.405-3.335-15.306.809-1.659.602-2.625-.631-3.877-2.331-2.365-4.482-4.909-6.978-7.678-7.85,5.887-15.503,10.8-23.901,14.416-.917.395-1.836.784-2.763,1.154-2.686,1.07-5.714,2.466-7.209-1.295-1.395-3.509,1.665-4.506,4.133-5.571,32.21-13.896,51.751-38.122,58.888-72.39.81-3.891,1.105-7.889,1.636-11.816-2.466-1.479-4.768-.755-7.004-.703-7.165,50.401-35.858,78.675-86.739,84.93-.828,1.813-.488,4.047-.045,6.563,4.728.702,9.271-.553,13.836-1.055,2.646-.291,4.902-.016,5.388,2.916.486,2.934-1.577,4.138-4.177,4.453-4.931.597-9.871,1.132-15.422,1.763ZM196.631,119.811c-6.13,0-11.928.01-17.725-.002-11.539-.025-16.83-5.265-16.847-16.756-.024-16.658-.105-33.316.076-49.972.036-3.302-1.11-5.109-3.848-6.738-11.354-6.755-23.491-10.804-36.712-11.769-35.121-2.563-68.004,17.84-81.273,50.57-13.177,32.503-3.84,69.947,22.97,92.519,2.319,1.953,4.675,2.786,7.696,2.747,10.493-.135,20.988-.011,31.482-.064,4.739-.024,8.83,1.273,12.008,4.984,2.733,3.192,3.224,7.131,3.608,11.023,37.043.517,76.257-31.307,78.564-76.543ZM37.806,224.202c0,9.483-.059,18.967.023,28.449.045,5.202,2.081,7.589,7.111,7.624,19.298.138,38.598.133,57.896.011,5.14-.032,7.283-2.299,7.307-7.449.087-19.132.084-38.265.004-57.397-.022-5.39-2.261-7.574-7.62-7.59-18.966-.059-37.932-.056-56.898-.004-5.645.015-7.764,2.185-7.805,7.907-.069,9.483-.019,18.966-.018,28.449ZM53.869,179.842c-37.46-38.537-30.621-87.922-10.917-115.13,11.178-15.435,25.473-26.723,43.526-32.898,26.801-9.168,52.399-5.724,76.607,8.51,1.636-2.082,2.942-3.744,4.206-5.353-.292-.459-.401-.826-.646-.984-1.257-.812-2.527-1.61-3.832-2.341-12.689-7.107-26.244-11.472-40.81-12.013-40.82-1.517-72.237,15.303-91.212,51.282-19.099,36.213-14.696,71.625,9.515,104.692,3.768,5.146,8.078,5.346,13.565,4.235ZM226.631,250.116c7.783-7.771,15.849-15.825,23.339-23.303-7.29-7.262-14.853-14.796-21.824-21.74-7.602,7.6-15.655,15.651-23.281,23.276,7.11,7.11,14.588,14.589,21.766,21.766ZM254.837,234.767c-6.834,6.834-13.383,13.383-19.961,19.96,5.704,7.196,7.111,7.305,13.626.786,2.35-2.352,4.703-4.701,7.055-7.05,6.602-6.593,6.516-7.872-.72-13.696ZM200.848,220.56c5.634-5.734,11.32-11.512,16.991-17.305.91-.93,1.751-1.927,2.605-2.872-6.069-7.34-7.179-7.408-13.614-.976-2.462,2.46-4.924,4.92-7.385,7.381-6.342,6.343-6.243,7.718,1.403,13.772ZM200.078,194.992c-2.531-3.042-5.265-5.856-8.042-8.053-1.888,1.675-3.56,3.159-5.372,4.768,2.944,2.998,5.355,6.12,8.73,8.261,1.841-1.532,3.516-2.862,4.683-4.976Z"/>
      <path class="cls-1" d="M202.232,81.474c5.839-6.427,11.305-12.465,16.798-18.478,1.803-1.973,3.743-4.538,6.621-2.002,3.086,2.719.709,5.02-1.232,7.16-5.927,6.536-11.904,13.028-17.752,19.634-2.471,2.791-4.838,3.056-7.729.684-3.859-3.166-7.814-6.218-11.783-9.247-2.091-1.596-3.422-3.525-1.707-5.91,1.978-2.75,4.315-1.596,6.464.092,3.259,2.561,6.531,5.106,10.32,8.067Z"/>
      <path class="cls-1" d="M97.424,105.141c-3.36-7.852-2.78-15.765-2.035-23.494,1.093-11.333,10.565-18.882,21.748-18.163,10.845.698,18.713,9.245,18.924,20.613.065,3.495-.038,6.993.031,10.487.07,3.549-.603,6.93-2.196,10.05,1.265,1.683,3.107,1.449,4.563,2.028,9.368,3.73,15.118,10.436,15.646,20.565.519,9.962.348,19.972.141,29.954-.133,6.394-4.456,10.548-10.887,10.59-18.478.123-36.958.129-55.436,0-6.582-.046-10.887-4.464-10.988-11.089-.145-9.487-.228-18.983.034-28.465.311-11.241,7.018-18.687,20.456-23.079ZM104.729,113.437c-11.296-2.037-19.848,4.509-20.275,15.68-.33,8.65-.005,17.322-.129,25.982-.056,3.894,1.706,5.305,5.457,5.288,17.323-.079,34.648-.074,51.971-.008,3.872.015,5.269-1.673,5.189-5.488-.177-8.492.044-16.991-.086-25.484-.169-11.03-8.561-17.806-20.159-15.997.838,7.199,1.842,14.408,2.472,21.65.575,6.62-8.421,15.651-14.496,14.867-6.457-.834-13.383-9.809-12.555-16.293.86-6.74,1.741-13.477,2.611-20.198ZM103.057,89.503c-.905,6.677-.593,12.693,5.52,16.632,4.62,2.977,9.514,2.983,14.104-.004,5.993-3.9,6.658-9.847,5.74-16.628h-25.364ZM115.843,142.015c2.111-1.782,5.981-2.678,5.827-5.999-.312-6.717-1.522-13.393-2.354-20.025h-7.277c-.687,5.077-1.013,10.071-2.106,14.89-1.255,5.53.845,8.86,5.911,11.134ZM103.374,81.371h24.581c-1.453-6.844-6.331-10.742-12.774-10.529-6.17.203-10.711,4.253-11.807,10.529Z"/>
      <path class="cls-1" d="M76.406,227.823c-6.658,0-13.316-.023-19.974.012-2.681.014-5.317-.288-5.491-3.605-.182-3.464,2.512-3.85,5.169-3.853,13.483-.016,26.965-.013,40.448-.004,2.656.002,5.38.374,5.261,3.787-.114,3.267-2.716,3.697-5.438,3.678-6.658-.046-13.316-.015-19.974-.015Z"/>
      <path class="cls-1" d="M71.436,242.821c-5.14,0-10.281-.017-15.421.007-2.779.013-5.169-.673-5.077-3.982.087-3.124,2.589-3.463,5.034-3.468,10.447-.021,20.893-.009,31.34-.011,2.73,0,5.26.598,5.084,3.945-.153,2.92-2.446,3.553-5.041,3.525-5.306-.058-10.612-.017-15.919-.017Z"/>
      <path class="cls-1" d="M68.475,212.817c-4.323,0-8.647.011-12.97-.004-2.669-.01-4.68-1.015-4.576-3.998.098-2.816,2.265-3.412,4.596-3.42,8.646-.029,17.293-.031,25.939,0,2.327.008,4.468.572,4.552,3.44.089,3.028-1.908,3.972-4.571,3.979-4.323.012-8.647.003-12.97.003Z"/>
    </g>
  </g>
</svg>