<?xml version="1.0" encoding="UTF-8"?>
<svg id="Capa_1" xmlns="http://www.w3.org/2000/svg" viewBox="0 0 280 280">
  <defs>
    <style>
      .cls-1 {
        fill: #5d7f6f;
      }
    </style>
  </defs>
  <g id="aYG1kE">
    <g>
      <path class="cls-1" d="M228.07,138.989c2.986-11.636,10.011-18.637,21.351-21.518v-38.638c-11.085-2.875-18.414-9.807-21.187-21.018-1.541-.956-3.075-.597-4.535-.598-31.901-.022-63.801-.007-95.702-.032-3.443-.003-6.918-.068-7.909,4.211-.913,3.947,1.921,5.582,4.807,7.154,6.848,3.731,13.658,7.532,20.711,11.431,6.237-6.665,13.585-11.017,23.045-11.016,13.638.002,25.01,8.678,28.527,21.941,3.369,12.707-2.452,26.291-14.041,32.766-11.487,6.418-26.241,4.38-35.19-5.352-2.84-3.088-5.519-4.282-9.81-4.844-16.272-2.129-32.546-4.71-47.652-11.763-.56-.261-1.204-.341-2.099-.585v16.275c11.262,2.867,18.451,9.934,21.393,21.583,10.552,0,20.989,0,31.427,0,1.495,0,2.992-.031,4.486.019,3.25.108,5.554,1.486,5.538,5.019-.016,3.515-2.26,4.948-5.559,4.957-6.812.019-13.624.013-20.436.014-10.634.001-21.267.025-31.901-.007-10.181-.03-15.154-5.082-15.176-15.395-.023-10.802-.004-21.604-.005-32.406,0-7.589-3.622-10.633-11.477-9.652q-1.452,10.548-12.522,10.548c-11.464,0-22.929.023-34.393-.01-5.878-.017-7.41-1.512-7.416-7.318-.025-24.928-.02-49.855-.004-74.783.004-6.236,1.413-7.671,7.548-7.684,12.461-.027,24.922-.011,37.383-.007,7.485.002,8.159.552,9.488,7.979,15.364,0,30.795,0,46.226,0,6.48,0,12.96.04,19.439-.009,9.143-.07,17.287,2.719,24.503,8.319,6.955,5.397,13.999,10.683,20.876,16.176,2.207,1.762,4.414,2.515,7.246,2.5,19.771-.102,39.543-.069,59.315-.048,10.227.011,15.298,5.065,15.308,15.286.024,23.764.025,47.529,0,71.293-.011,10.213-5.054,15.196-15.356,15.212-16.615.025-33.23.007-49.845.007-.498,0-.997-.015-1.495,0-3.608.111-6.449-.989-6.359-5.15.083-3.852,2.846-4.862,6.207-4.859,9.803.008,19.606.001,29.408,0,1.813,0,3.626,0,5.833,0ZM66.564,30.353v50.981c6.038-1.339,10.55,1.142,15.03,4.274,3.239,2.265,6.889,3.966,10.433,5.767,13.821,7.026,28.88,9.486,43.967,11.844,6.04.944,9.448-.379,10.754-4.345,1.328-4.035-.419-7.047-5.89-10.097-7.82-4.359-15.737-8.552-23.443-13.104-6.201-3.663-8.835-10.583-7.044-17.149,1.782-6.535,7.609-11.036,14.726-11.31,2.155-.083,4.315-.02,6.473-.021,10.53,0,21.06,0,31.59,0-5.714-5.283-11.014-10.499-17.58-14.049-2.955-1.597-6.168-2.723-9.486-2.738-23.053-.103-46.106-.054-69.529-.054ZM22.687,22.523v69.154h33.27V22.523H22.687ZM168.178,78.961c-3.852-.162-7.898,1.479-11.546,4.323-2.015,1.57-2.921,3.001-1.441,5.76,2.956,5.51,2.73,11.343-.785,16.491-1.943,2.847-1.033,4.357.924,6.285,6.122,6.033,15.957,7.297,23.375,2.913,7.334-4.334,10.983-13.095,8.914-21.405-2.088-8.387-9.796-14.338-19.44-14.367ZM238.77,57.77c1.81,5.309,5.23,8.646,10.663,10.494.727-11.487-.043-12.217-10.663-10.494ZM88.404,128.219c-.777,11.202-.162,11.795,10.324,10.322-1.562-5.6-4.055-8.158-10.324-10.322ZM249.457,127.974c-5.64,1.925-8.93,5.376-10.9,10.756q11.546.743,10.9-10.756Z"/>
      <path class="cls-1" d="M213.661,181.98c1.488-3.696,4.385-4.197,7.796-4.166,12.959.116,25.919.023,38.879.058,5.815.016,7.312,1.531,7.317,7.416.023,24.928.021,49.856.002,74.784-.005,6.154-1.447,7.572-7.655,7.584-12.794.024-25.589-.099-38.38.066-4.382.057-7.534-.992-8.134-6.043-21.307,0-42.398.124-63.486-.046-12.778-.103-25.588.886-38.334-.706-14.813-1.85-27.709-7.967-38.458-18.258-9.72-9.306-19.206-18.864-28.595-28.506-7.128-7.321-7.089-17.711-.28-24.603,6.8-6.883,17.609-6.825,25.002.365,7.861,7.646,15.512,15.507,23.303,23.226,3.524,3.492,7.268,6.708,12.437,8.311-.181-4.818.11-9.229,2.724-13.175,3.619-5.463,8.776-7.942,15.174-8.008,7.31-.074,14.636-.316,21.926.066,4.777.25,7.923-1.264,10.967-5.017,11.11-13.697,25.721-19.324,43.229-17.53,4.836.496,9.376,2.049,14.565,4.182ZM213.777,251.672c0-18.983-.049-37.24.057-55.497.015-2.516-1.349-3.425-3.174-4.428-14.811-8.135-33.928-4.85-45.547,7.924-2.122,2.333-4.202,4.721-6.101,7.235-1.764,2.336-3.925,3.308-6.831,3.266-6.974-.102-13.951-.053-20.926-.019-3.317.016-6.684-.197-9.937.295-4.153.629-6.5,3.42-6.168,7.696.308,3.971,2.745,6.285,6.779,6.662,1.483.139,2.987.072,4.481.072,16.11.005,32.221-.034,48.331.026,5.271.02,7.976,3.003,6.433,6.791-1.251,3.073-3.867,3.177-6.631,3.173-17.605-.029-35.211-.134-52.815.023-14.416.129-26.538-4.919-36.623-15.15-7.23-7.334-14.57-14.558-21.819-21.873-1.935-1.953-3.985-3.546-6.901-3.389-3.11.167-5.35,1.678-6.527,4.58-1.372,3.381-.172,6.157,2.234,8.568,8.683,8.7,17.344,17.422,26.076,26.073,12.151,12.038,26.779,18.028,43.922,17.986,25.577-.062,51.155-.016,76.732-.016,4.786,0,9.573,0,14.957,0ZM224.134,188.097v69.154h33.264v-69.154h-33.264Z"/>
      <path class="cls-1" d="M221.196,103.143c-3.335-.36-5.32-1.96-5.305-5.09.014-2.879,1.901-4.726,4.714-4.79,3.08-.07,5.035,1.844,5.041,4.96.006,2.9-1.999,4.335-4.45,4.921Z"/>
      <path class="cls-1" d="M173.928,143.635c-.31,3.035-1.727,5.023-4.595,5.239-3.138.236-5.149-1.63-5.276-4.69-.129-3.108,1.865-5.025,4.943-5.049,2.891-.023,4.348,1.992,4.928,4.501Z"/>
    </g>
  </g>
</svg>