<?xml version="1.0" encoding="UTF-8"?>
<svg id="Capa_1" xmlns="http://www.w3.org/2000/svg" viewBox="0 0 280 280">
  <defs>
    <style>
      .cls-1 {
        fill: #5d7f6f;
      }
    </style>
  </defs>
  <g id="O7Dau6">
    <g>
      <path class="cls-1" d="M30.329,225.201c-2.242-3.763-4.121-6.515-5.013-9.738-1.685-6.088,1.837-11.051,8.144-11.542,7.545-.588,14.389,1.457,21.013,6.173v-13.935c-2.04-1.411-4.293-.766-6.392-.937-10.329-.839-19.106-7.544-22.405-17.26-2.368-6.975,1.045-11.928,8.334-12.35,7.357-.426,14.08,1.348,20.744,6.431,0-7.897.041-14.669-.018-21.44-.026-3.033.206-6.141,4.004-6.235,4.114-.102,4.436,3.096,4.4,6.353-.075,6.754-.023,13.51-.023,21.346,6.555-5.006,13.092-6.823,20.311-6.47,7.83.382,11.487,5.559,8.542,12.898-4.01,9.995-11.423,15.708-22.273,16.698-1.821.166-3.649.251-5.472.392-.145.011-.278.17-.762.483v13.883c5.965-4.013,12.03-6.262,18.93-6.085,8.96.231,12.757,5.708,9.269,13.93-.957,2.257-2.309,4.346-3.737,6.988h22.785c-1.368-2.921-2.978-5.734-4.035-8.742-2.289-6.517,1.356-11.707,8.194-12.138,7.396-.467,14.105,1.477,20.597,6.203v-13.995c-2.111-1.507-4.714-.699-7.114-.945-10.055-1.031-19-8.283-21.882-17.952-1.844-6.187,1.499-11.085,7.893-11.553,7.527-.551,14.523.968,21.114,6.252v-14.666c-3.772-.579-7.455-.091-11.004-1.163-8.755-2.647-14.8-8.087-17.785-16.752-2.257-6.551,1.223-11.781,8.098-12.248,7.376-.501,14.122,1.445,21.043,6.512,0-4.028-.014-7.092.004-10.156.016-2.706,1.16-4.573,4.067-4.622,2.886-.049,4.184,1.712,4.229,4.451.049,2.994.011,5.99.011,8.883,1.792,1.101,2.628-.394,3.638-1.01,5.315-3.245,11.12-4.392,17.239-4.057,7.122.389,10.557,5.736,8.193,12.56-3.418,9.869-12.542,16.763-22.94,17.285-1.804.091-3.617.013-5.314.013-1.328,2.575-.651,4.939-.766,7.215-.115,2.262-.025,4.534-.025,7.936,6.651-5.17,13.391-6.897,20.751-6.478,7.277.414,10.851,5.455,8.284,12.337-3.85,10.32-11.323,16.158-22.369,17.229-1.966.191-3.945.251-6.209.39-.835,4.725-.426,9.246-.278,14.457,6.128-4,12.16-6.341,19.054-6.163,8.995.233,12.816,5.67,9.348,13.884-.956,2.265-2.315,4.359-3.746,7.007h22.933c-1.397-2.736-2.876-5.124-3.882-7.697-2.938-7.519.796-12.864,8.814-13.182,7.088-.282,13.403,1.777,19.624,6.169v-14.061c-2.161-1.128-4.383-.604-6.501-.784-10.266-.872-19.023-7.692-22.248-17.454-2.213-6.699,1.165-11.689,8.115-12.119,7.38-.456,14.186,1.127,20.644,6.252v-14.666c-3.68-.539-7.36-.055-10.902-1.119-8.758-2.632-14.823-8.04-17.817-16.71-2.334-6.759,1.293-11.937,8.505-12.324,6.417-.344,10.586.827,20.158,5.753.771-4.672.393-9.174.233-13.795-3.169-.323-5.998-.43-8.757-.927-10.053-1.809-16.802-7.652-20.18-17.245-2.311-6.563,1.317-11.683,8.198-12.054,7.369-.398,14.185,1.116,20.929,6.664,0-8.425-.088-15.659.035-22.89.067-3.901,2.654-5.874,5.713-4.686,2.546.989,2.608,3.175,2.607,5.398-.003,6.949-.001,13.898-.001,21.783,6.658-4.699,13.287-6.732,20.669-6.296,7.249.429,10.9,5.434,8.422,12.297-3.455,9.564-10.249,15.354-20.331,17.066-2.608.443-5.273.553-8.331.858-.801,4.509-.398,9.005-.226,14.453,6.304-4.581,12.64-6.617,19.654-6.4,8.325.257,12.106,5.805,8.851,13.538-4.277,10.159-12.1,15.575-23.093,16.358-1.635.117-3.285.016-5.211.016-.693,4.913-.407,9.448-.198,14.976,6.358-4.852,12.888-6.681,20.099-6.334,7.877.379,11.484,5.477,8.563,12.875-3.966,10.045-11.408,15.7-22.238,16.714-1.962.184-3.935.259-6.253.406v13.655c1.179.835,1.956-.45,2.821-1.01,5.393-3.487,11.331-4.644,17.645-4.321,6.895.352,10.439,5.474,8.419,12.067-.93,3.035-2.751,5.611-4.811,9.23,3.397,0,6.122-.099,8.836.02,6.343.278,9.409,3.407,9.478,9.77.082,7.498.053,14.998.01,22.497-.043,7.456-3.111,10.428-10.796,10.437-19.165.024-38.329.008-57.494.008-57.994,0-115.988,0-173.982,0-11.917,0-13.751-1.867-13.751-13.996,0-5.999-.022-11.998.006-17.996.036-7.619,2.967-10.601,10.537-10.743,2.317-.043,4.636-.007,7.814-.007ZM258.939,234.243H20.8c-.241,2.817-.794,5.266.603,8.049,1.884,0,3.852,0,5.82,0,30.483,0,60.965-.003,91.448.011,1.66,0,3.347-.011,4.973.267,1.994.342,3.268,1.614,3.394,3.74.139,2.36-1.148,3.871-3.293,4.365-1.591.366-3.31.231-4.972.231-30.649.01-61.298-.003-91.947.032-1.951.002-3.986-.479-5.939.562-.506,2.437-.677,4.854.194,7.468h238.252c.008-2.859.503-5.285-.444-8.054-3.612,0-7.083.002-10.554,0-7.496-.006-14.992.026-22.487-.045-2.671-.025-4.597-1.409-4.679-4.166-.084-2.807,1.849-4.16,4.496-4.325,2.324-.145,4.661-.081,6.993-.083,8.77-.007,17.54-.003,26.233-.003.737-3.126.859-5.529.049-8.049ZM246.08,97.718c-9.585-1.505-17.085,3.1-19.619,11.792,9.707,1.469,16.894-2.73,19.619-11.792ZM245.98,174.317c-10.404-.842-17.562,3.76-19.496,12.291,10.312.853,17.409-3.514,19.496-12.291ZM215.604,109.518c-2.392-8.801-11.256-14.028-19.432-11.456,2.69,8.775,9.706,12.912,19.432,11.456ZM53.699,186.62c-3.026-9.241-10.319-13.637-19.534-12.071,1.73,8.376,8.79,12.823,19.534,12.071ZM83.762,174.479c-9.729-1.418-18.027,3.833-19.225,12.166,10.408.708,17.553-3.813,19.225-12.166ZM134.558,186.497c-2.182-8.805-10.581-13.887-19.412-11.746,2.359,8.621,9.457,12.916,19.412,11.746ZM164.775,174.41c-9.95-1.226-18.193,4.066-19.101,12.263,10.501.604,17.724-4.033,19.101-12.263ZM196.158,174.329c.653,7.734,11.513,14.485,19.439,12.169-2.004-8.506-9.187-13.066-19.439-12.169ZM145.304,148.191c10.62.865,18.643-4.319,19.208-12.127-9.957-.925-16.473,3.093-19.208,12.127ZM196.05,136.168c3.062,9.276,11.396,13.988,19.658,11.472-3.196-8.841-9.667-12.685-19.658-11.472ZM115.262,135.987c1.609,8.765,10.897,14.27,19.4,11.649-3.191-8.674-8.966-12.24-19.4-11.649ZM226.172,147.931c9.869,1.608,17.982-3.34,19.631-11.678-9.249-1.508-15.937,2.371-19.631,11.678ZM83.727,213.164c-8.879-2.061-16.881,2.684-19.329,11.462,9.447,1.706,17.296-2.948,19.329-11.462ZM196.13,212.978c2.802,9.21,10.568,13.665,19.486,11.474-2.89-8.705-9.783-12.851-19.486-11.474ZM115.1,213c2.701,9.13,10.554,13.631,19.468,11.457-2.949-8.733-9.857-12.883-19.468-11.457ZM164.994,213.066c-9.585-1.696-17.457,3.122-19.487,11.712,9.73,1.24,16.566-2.746,19.487-11.712ZM245.97,213.032c-9.72-1.559-17.688,3.409-19.301,11.791,9.911,1.09,16.743-2.974,19.301-11.791ZM34.113,212.959c2.293,8.918,10.14,13.504,19.378,11.599-2.703-8.618-9.669-12.883-19.378-11.599Z"/>
      <path class="cls-1" d="M71.672,37.643c19.004-.036,34.343,15.298,34.223,34.212-.118,18.621-15.509,33.96-34.103,33.987-18.901.027-34.153-15.352-34.09-34.375.062-18.861,15.054-33.789,33.97-33.824ZM97.225,71.469c-.098-14.082-11.414-25.397-25.44-25.438-14.101-.041-25.767,11.678-25.685,25.801.082,14.208,11.722,25.524,26.042,25.317,14.128-.204,25.181-11.521,25.083-25.68Z"/>
      <path class="cls-1" d="M20.643,67.367c3.365.316,8.074-.959,8.164,4.141.098,5.49-4.756,4.396-8.239,4.391-3.477-.005-8.408,1.132-8.346-4.286.062-5.433,5.091-3.84,8.421-4.247Z"/>
      <path class="cls-1" d="M75.958,20.859c0,1.327.131,2.67-.028,3.977-.297,2.434-1.682,4.04-4.219,4.034-2.561-.006-3.944-1.64-4.113-4.099-.17-2.478-.099-4.973-.103-7.46-.004-2.786.946-5.17,4.035-5.256,3.332-.093,4.503,2.255,4.471,5.32-.012,1.161-.002,2.323-.002,3.484-.014,0-.027,0-.041,0Z"/>
      <path class="cls-1" d="M122.562,75.901c-1.322,0-2.655.111-3.963-.024-2.468-.255-3.991-1.685-4.029-4.188-.039-2.544,1.481-3.996,3.981-4.155,2.47-.157,4.954-.123,7.432-.095,2.949.033,5.4.902,5.219,4.452-.16,3.138-2.372,4.064-5.17,4.05-1.157-.006-2.314,0-3.47,0,0-.013,0-.026,0-.038Z"/>
      <path class="cls-1" d="M75.962,123.118c0,1.321.105,2.653-.023,3.962-.238,2.442-1.537,4.007-4.109,4.081-2.594.075-4.041-1.386-4.209-3.884-.177-2.632-.14-5.282-.107-7.923.036-2.847,1.22-4.955,4.355-4.818,3.062.134,4.165,2.26,4.132,5.113-.013,1.156-.002,2.313-.002,3.47-.012,0-.025,0-.037,0Z"/>
      <path class="cls-1" d="M119.23,103.645c-3.472-1.6-7.331-3.199-10.259-6.239-1.268-1.316-1.094-3.088.004-4.609,1.206-1.671,2.953-2.466,4.788-1.575,2.977,1.446,5.875,3.116,8.61,4.98,1.617,1.102,2.129,2.945,1.217,4.89-.786,1.676-2.209,2.398-4.36,2.553Z"/>
      <path class="cls-1" d="M103.711,119.238c-.202,2.309-1.062,3.697-2.74,4.384-1.949.798-3.745.195-4.847-1.468-1.742-2.629-3.318-5.384-4.759-8.192-.947-1.845-.344-3.63,1.241-4.91,1.404-1.134,3.161-1.564,4.602-.307,3.344,2.919,4.889,6.98,6.505,10.493Z"/>
      <path class="cls-1" d="M35.218,48.119c-.368,3.07-2.067,4.621-4.751,4.011-3.743-.85-6.932-3.08-9.865-5.49-1.372-1.127-1.391-2.942-.622-4.595.695-1.494,1.973-2.482,3.55-2.182,4.324.821,7.863,3.246,11.042,6.163.51.468.484,1.52.646,2.092Z"/>
      <path class="cls-1" d="M24.3,103.706c-2.323-.322-3.79-.946-4.454-2.74-.64-1.727-.485-3.524.993-4.532,2.867-1.955,5.891-3.719,8.996-5.271,1.605-.802,3.267-.108,4.445,1.319,1.193,1.446,1.444,3.295.372,4.627-2.794,3.471-7.049,4.726-10.352,6.597Z"/>
      <path class="cls-1" d="M103.758,23.939c-1.613,3.633-3.184,7.689-6.501,10.582-1.289,1.124-3.174.878-4.622-.278-1.609-1.285-2.2-3.04-1.263-4.874,1.43-2.799,3.022-5.528,4.735-8.163,1.113-1.711,2.887-2.108,4.842-1.451,1.819.612,2.457,2.078,2.809,4.184Z"/>
      <path class="cls-1" d="M113.031,52.293c-2.542-.038-3.802-.939-4.572-2.614-.825-1.795-.299-3.538,1.08-4.481,2.861-1.957,5.907-3.692,9.037-5.183,1.547-.737,3.296-.185,4.452,1.322,1.114,1.453,1.544,3.199.308,4.594-2.927,3.303-6.914,4.949-10.305,6.361Z"/>
      <path class="cls-1" d="M48.246,35.079c-1.66.078-2.868-.726-3.686-2.07-1.456-2.392-2.974-4.763-4.195-7.275-1.041-2.141-.75-4.334,1.502-5.588,2.119-1.18,4.282-.817,5.661,1.285,1.622,2.474,3.234,5.015,4.374,7.727,1.345,3.199-.523,5.923-3.655,5.92Z"/>
      <path class="cls-1" d="M43.807,123.929c-2.882-.414-4.794-2.332-3.683-5.392,1.166-3.213,3.05-6.275,5.135-9.011,1.813-2.379,5.338-1.693,6.637.869,1.6,3.155-4.252,13.369-8.089,13.535Z"/>
      <path class="cls-1" d="M174.14,250.912c-10.642,0-21.285-.011-31.927.007-3.222.006-6.375-.36-6.264-4.523.104-3.889,3.254-4.089,6.193-4.091,21.285-.017,42.569-.016,63.854-.003,3.146.002,6.425.25,6.251,4.507-.156,3.811-3.161,4.118-6.18,4.112-10.642-.021-21.285-.008-31.927-.008Z"/>
    </g>
  </g>
</svg>