<?xml version="1.0" encoding="UTF-8"?>
<svg id="Capa_1" xmlns="http://www.w3.org/2000/svg" viewBox="0 0 280 280">
  <defs>
    <style>
      .cls-1 {
        fill: #5d7f6f;
      }
    </style>
  </defs>
  <g id="qEcZ9o">
    <path class="cls-1" d="M46.345,138.03c-3.402-1.703-6.304-1.829-9.89.29-7.277,4.298-16.518.144-18.347-8.167-2.128-9.674-4.038-19.434-5.285-29.253-1.122-8.829,2.456-16.196,10.292-20.586,8.637-4.839,17.592-9.139,26.572-13.322,4.35-2.026,9.155-2.801,14.016-2.013,2.546.413,4.372,1.841,4.04,4.654-.288,2.435-1.997,3.795-4.464,3.587-6.34-.535-11.725,2.032-17.108,4.845-5.646,2.95-11.418,5.659-17.071,8.595-6.528,3.39-8.894,8.178-7.649,15.282.637,3.636,1.418,7.248,2.137,10.883,3.102.862,5.772-.536,8.752-.604.978-2.829.183-5.58-.288-8.3-.571-3.297.545-5.409,3.743-6.632,6.112-2.337,12.134-4.911,18.243-7.26,5.597-2.153,8.134-.108,7.296,5.915-1.61,11.561-3.336,23.105-5.099,35.242,14.042,3.344,27.916,6.647,42.598,10.143,1.38-8.006,2.719-15.751,4.046-23.497.389-2.268.794-4.534,1.101-6.814.335-2.49,1.281-4.572,4.002-4.915,2.804-.353,4,1.699,4.984,3.922,3.939,8.899,8.167,17.679,11.793,26.703,2.789,6.941,7.466,11.406,14.957,13.812,1.754-3.123,3.539-6.302,5.243-9.337-.337-.594-.436-1.058-.675-1.146-8.262-3.066-11.769-9.859-14.587-17.597-3.327-9.135-7.339-18.021-11.085-27.002-2.731-6.546-7.233-11.148-14.071-13.084-2.016,1.263-1.807,3.28-2.536,4.807-3.307,6.928-10.971,10.35-18.259,8.026-6.907-2.203-11.493-9.461-9.724-16.77,1.364-5.636,1.891-10.821-.376-16.389-1.501-3.687-.058-7.695.92-11.478.793-3.066,1.618-6.124,2.459-9.297-2.297-1.897-5.085-1.799-7.489-2.704-2.396-.901-4.131-2.41-3.427-5.158.683-2.668,2.8-3.528,5.398-2.995,2.423.497,4.814,1.153,7.202,1.735,9.552-14.035,16.452-17.708,27.26-14.539,10.449,3.065,14.949,10.581,15.222,25.484,1.646,1.494,3.888,1.527,5.882,2.086,3.105.87,5.537,2.296,4.425,5.862-1.003,3.217-3.73,3.188-6.597,2.402-10.576-2.899-21.174-5.72-31.768-8.555-2.366-.633-4.748-1.205-7.654-1.939-1.264,4.743-2.715,9.082-3.536,13.537-1.145,6.214,2.81,12.358,8.641,14.154,6.022,1.856,12.341-.82,15.308-6.517.489-.94.791-1.976,1.266-2.924,1.152-2.296,3.096-2.825,5.359-2.037,2.235.778,2.681,2.663,2.354,4.765-.624,4.016-3.279,6.958-6.076,10.745,12.961,4.575,17.322,15.836,21.659,27.118.508,1.321,1.182,2.592,1.56,3.948,4.436,15.902,13.024,27.974,29.128,34.231,7.244,2.815,8.793,9.643,7.389,17.2,2.753,1.682,4.809,2.012,5.522-1.971.374-2.088.846-4.164,1.373-6.219.756-2.946,1.424-6.465,5.553-5.609,4.101.851,3.506,4.219,2.813,7.29-.731,3.24-1.48,6.476-2.289,10.013,3.482.902,6.527,1.722,9.588,2.476,2.933.722,4.315,2.553,3.463,5.459-.788,2.686-2.92,3.259-5.516,2.652-2.917-.682-5.857-1.267-8.902-1.919-2.001,2.212-1.59,4.985-2.686,8.042,7.926,1.762,15.412,3.847,23.038,4.987,6.008.898,11.665-3.743,12.995-9.486,1.45-6.263-1.53-12.455-7.471-14.767-2.943-1.145-6.146-1.61-9.217-2.436-2.981-.802-6.355-1.647-5.259-5.772.964-3.629,4.003-3.38,6.967-2.561,1.363.377,2.733.816,4.128.976,18.062,2.064,26.84,23.067,12.246,38.043,4.629.485,8.8,1.4,12.831,4.328,6.728-10.352,17.187-8.131,26.958-8.085,3.982.018,4.838,2.875,4.53,6.317-.898,10.004-9.375,18.241-19.713,19.09-1.725.142-3.459.165-5.691.266,0,3.74.015,7.242-.007,10.743-.009,1.372.524,2.099,1.839,2.803,11.61,6.218,12.897,7.951,15.645,20.25,7.958,1.878,13.654,6.285,15.778,14.614.761,2.983.382,5.518-2.816,6.394-2.971.814-4.33-1.136-5.27-3.843-2.291-6.593-4.918-8.531-11.676-8.523-4.097.005-5.809-1.473-5.403-5.727.824-8.623-3.411-14.599-10.693-15.555-7.285-.957-12.859,3.679-14.374,12.217-.51,2.873-1.817,4.537-4.763,4.695-3.751.201-6.811,1.771-9.233,4.594-1.883,2.195-3.968,2.467-6.632,1.335-6.82-2.897-9.629-1.995-12.965,4.259-1.47,2.757-3.193,4.059-6.356,3.021-3.351-1.1-6.254-.099-8.806,2.216-2.177,1.975-4.523,2.275-6.493-.097-2.026-2.439-1.145-5.25,1.219-6.38,8.819-4.217,17.419-8.864,26.255-13.034.882-.416,2.276-.498,3.132-.095,6.126,2.885,10.125-2.589,15.197-3.757,1.581-.364,1.631-2.127,2.122-3.442,1.937-5.189,5.128-9.847,10.318-11.53,6.048-1.962,6.025-5.716,4.992-10.858-14.306.158-23.295-6.472-25.393-21.398-8.122-1.881-16.204-3.731-24.275-5.63-7.086-1.667-7.694-2.705-5.996-9.94.636-2.71,1.287-5.417,1.975-8.312-4.838-1.402-9.009-2.86-13.79-1.167-3.711,1.314-7.36-.365-10.604-2.283-12.496-7.387-26.898-8.043-40.458-12.215-1.85,5.076-2.323,9.274,1.286,13.299,2.111,2.355,3.765,5.141,5.479,7.826,1.394,2.184,1.487,4.545-.832,6.094-2.214,1.479-4.461.917-6.035-1.287-3.19-4.467-6.475-8.882-9.389-13.526-2.796-4.456.965-8.913.154-14.391-13.252-3.165-27.078-6.467-40.556-9.686-1.655.637-1.701,1.851-1.754,2.819-.477,8.649-3.521,16.556-6.907,24.367-1.964,4.532-1.723,8.887.559,13.278,3.427,6.594,6.666,13.286,10.037,19.911,2.77,5.444,2.338,10.533-1.36,15.415-5.317,7.018-10.568,14.086-16.533,22.048,5.156,0,9.306-.049,13.455.022,1.93.033,2.749-1.366,3.766-2.55,5.077-5.915,10.069-11.906,15.236-17.742,3.776-4.264,4.59-8.999,3.045-14.335-1.723-5.948-3.321-11.932-5.121-17.856-.727-2.393-1.012-4.529,1.268-6.186,2.398-1.742,4.3-.496,6.151,1.095,8.331,7.16,16.686,14.291,25.009,21.459,4.231,3.644,4.893,8.385,4.039,13.569-1.204,7.308-2.388,14.619-3.637,22.266h14.27c2.076-9.685,4.39-19.449,6.191-29.306.948-5.19-2.84-8.87-5.447-12.845-1.843-2.811-5.564-6.013-1.346-9.08,4.194-3.049,5.958,1.402,8.189,4.035,6.857,8.093,8.785,16.946,5.569,27.235-2.049,6.558-3.048,13.444-4.511,20.154.648,1.805,2.483,1.914,3.747,2.754,6.031,4.01,9.341,12.064,7.784,19.064-.602,2.71-2.364,3.798-4.972,3.798-9.391,0-18.793.264-28.169-.111-7.756-.31-12.674-6.511-11.623-14.691,1.308-10.177,2.938-20.332,4.974-30.387,1.174-5.799.666-10.229-4.726-13.724-3.618-2.345-6.671-5.563-10.884-9.167.664,2.758.956,4.288,1.402,5.771,2.508,8.334.833,15.674-4.938,22.205-4.918,5.564-9.665,11.279-14.663,17.133,4.944,4.081,8.528,8.785,9.627,15.005,1.041,5.89-.583,7.941-6.464,7.969-9.745.047-19.493-.097-29.236.054-5.992.092-10.865-1.678-13.673-7.247-2.852-5.656-.941-10.533,2.655-15.226,7.326-9.56,14.371-19.338,21.775-28.837,2.541-3.259,2.831-5.987.8-9.611-3.37-6.015-6.229-12.314-9.371-18.459-3.352-6.556-3.715-13.206-.755-19.967,3.635-8.302,6.612-16.754,6.522-26.039ZM111.98,41.166c1.386-8.134-2.307-14.141-9.277-15.715-6.503-1.469-12.502,2.232-14.534,9.28,7.798,2.108,15.592,4.214,23.811,6.436ZM65.041,254.83c-2.447-5.53-5.605-8.521-11.079-8.476-5.469.044-10.943.143-16.406-.042-3.11-.105-5.435.768-5.578,4.047-.145,3.31,2.149,4.492,5.243,4.482,8.99-.03,17.981-.011,27.819-.011ZM129.471,254.833c-1.226-5.678-3.272-8.169-7.433-8.347-6.496-.277-13.013-.073-19.405-.073-1.764,6.734-.711,8.353,5.286,8.406,7.061.062,14.123.015,21.553.015ZM51.99,100.863c-2.558-.378-4.115,1.058-5.945,1.47-4.158.936-5.646,3.147-4.751,7.532,1.052,5.151,1.632,10.426,2.013,15.676.216,2.979,1.757,3.328,4.668,3.252,1.337-9.303,2.673-18.594,4.015-27.93ZM119.726,146.008c-3.173-6.986-5.926-13.045-8.679-19.104-.373.106-.746.212-1.119.318-.864,5.161-1.727,10.323-2.623,15.678,3.847,1.609,7.608,2.24,12.421,3.108ZM147.24,154.607c3.751,1.555,6.482,4.847,10.616,2.448,2.044-1.186,2.934-3.082,2.531-5.382-.735-4.196-4.375-4.994-7.798-6.682-1.753,3.152-3.363,6.046-5.349,9.616ZM83.271,76.863c-1.63,3.346-1.788,6.311.954,8.865,1.817,1.692,4.03,2.135,6.388,1.212,3.186-1.246,4.248-3.706,4.186-7.237-4.277.162-7.82-1.391-11.529-2.84ZM249.526,191.302c-11.678-.707-14.81.988-15.141,7.95,8.374.653,11.867-1.101,15.141-7.95ZM209.48,195.558c3.406,7.115,7.644,9.104,15.476,7.619-1.563-7.129-3.923-8.326-15.476-7.619ZM25.174,122.285c1.163,3.95-.068,9.199,6.067,9.005,3.658-.116,4.421-3.547,2.558-10.104-2.759-.55-5.427-.097-8.625,1.099Z"/>
  </g>
</svg>