<?xml version="1.0" encoding="UTF-8"?>
<svg xmlns="http://www.w3.org/2000/svg" xmlns:xlink="http://www.w3.org/1999/xlink" viewBox="0 0 280 280">
  <defs>
    <style>
      .cls-1 {
        fill: none;
      }

      .cls-2 {
        isolation: isolate;
      }

      .cls-3 {
        fill: #999;
        mix-blend-mode: multiply;
      }

      .cls-4 {
        fill: #5d7f6f;
      }

      .cls-5 {
        clip-path: url(#clippath);
      }
    </style>
    <clipPath id="clippath">
      <rect class="cls-1" x="-835.333" y="-717" width="1920" height="623" transform="translate(249.333 -811) rotate(-180)"/>
    </clipPath>
  </defs>
  <g class="cls-2">
    <g id="Capa_1">
      <g class="cls-5">
        <image width="7008" height="4672" transform="translate(1311.745 -1164) rotate(-180) scale(.316 -.316)" xlink:href="../../Editables/shutterstock_2420587683.jpg"/>
        <rect class="cls-3" x="-881.333" y="-846" width="1967" height="993" transform="translate(204.333 -699) rotate(-180)"/>
        <rect class="cls-3" x="-881.333" y="-846" width="1967" height="993" transform="translate(204.333 -699) rotate(-180)"/>
      </g>
      <g id="TkWUCB">
        <g>
          <path class="cls-4" d="M255.342,154.408c9.566,16.329.294,32.036-12.144,35.802-5.805,1.757-11.286.503-17.112-.624-5.226-1.011-11.123,1.617-16.419.758-6.652-1.078-10.761-6.266-12.704-12.798-1.601-5.382-5.581-6.782-9.764-3.352-28.299,23.202-66.403,23.271-94.51-.077-2.623-2.179-4.625-1.671-7.195-.915-25.517,7.508-52.507-3.221-65.828-26.135-13.224-22.747-9.326-51.455,9.607-69.747,2.191-2.117,4.649-6.251,8.213-2.869,3.839,3.643-.564,5.779-2.76,7.91-16.882,16.386-20.234,41.917-8.043,61.858,12.332,20.171,36.833,29.002,59.07,20.932,4.411-1.601,7.148-.834,10.584,2.23,24.016,21.416,59.455,22.296,84.432,2.382q7.42-5.916,16.448-3.751c3.787-7.551,9.715-12.245,18.712-12.142.699.008,1.56-.556,2.086-1.104,9.448-9.849,20.128-10.434,31.62-4.194,14.539-15.721,14.229-43.921-.565-61.802-13.728-16.592-35.634-22.564-55.967-14.938-3.701,1.388-6.165.983-8.832-1.829-2.157-2.273-5.137-3.779-7.221-6.102-1.039-1.159-.888-3.385-1.275-5.129,1.889-.228,4.757-1.358,5.512-.539,5.738,6.22,12.038,5.315,19.631,3.913,23.559-4.35,46.21,5.899,58.222,26.035,12.749,21.372,11.77,42.712-1.981,63.456-.549.829-1.091,1.663-1.817,2.771ZM218.941,161.729c-9.283-.788-14.801,3.714-15.064,10.408-.259,6.586,5.404,13.377,11.31,11.443,7.189-2.354,13.329-1.15,20.222.124,7.192,1.329,13.902-4.364,15.936-11.589,1.991-7.073-1.305-14.665-7.904-18.203-6.75-3.619-14.67-1.96-19.882,3.909-1.651,1.859-3.826,3.251-4.618,3.908Z"/>
          <path class="cls-4" d="M151.414,234.808c9.8,2.52,11.039,6.12,5.303,13.713-3.711,4.913-7.374,9.866-11.203,14.685-3.525,4.435-7.69,4.483-11.164.086-4.435-5.613-8.772-11.31-12.969-17.103-3.452-4.765-1.863-9.311,3.872-10.396,3.11-.588,3.134-2.238,3.125-4.517-.031-7.823-.079-15.648.019-23.47.077-6.188,1.917-7.89,8.186-7.993q14.831-.245,14.831,14.363c0,6.808,0,13.615,0,20.631ZM151.409,243.08c-6.723.706-7.744-2.6-7.596-7.571.277-9.281.079-18.576.079-28.02h-8.004c0,9.483-.132,18.628.054,27.767.099,4.859-.262,8.916-7.744,7.647,4.353,5.695,7.911,10.351,11.721,15.335,3.998-5.275,7.482-9.872,11.489-15.158Z"/>
          <path class="cls-4" d="M102.377,234.942c9.583,2.118,11.035,5.99,5.578,13.236-3.805,5.053-7.572,10.139-11.511,15.087-3.509,4.409-7.654,4.389-11.166-.034-3.83-4.822-7.492-9.778-11.208-14.69-5.761-7.615-4.524-11.247,5.267-13.719,0-8.252-.014-16.69.004-25.127.018-8.542,1.346-9.861,9.839-9.882,13.075-.032,13.196.087,13.196,13.002,0,7.301,0,14.603,0,22.128ZM94.886,207.427h-8.008c0,9.036-.139,17.8.053,26.556.111,5.057.372,9.846-7.38,9.392,3.992,5.231,7.475,9.794,11.323,14.835,3.913-5.125,7.469-9.783,11.562-15.143-6.746.714-7.78-2.563-7.63-7.533.279-9.255.08-18.524.08-28.107Z"/>
          <path class="cls-4" d="M149.953,87.927c15.383.047,27.953,12.758,27.744,28.053-.207,15.182-12.631,27.487-27.805,27.538-15.38.052-27.997-12.505-27.983-27.85.014-15.348,12.591-27.789,28.044-27.742ZM149.881,136.011c11.3-.029,20.229-9.048,20.187-20.39-.041-11.243-9.215-20.411-20.357-20.344-11.172.067-20.273,9.29-20.238,20.509.036,11.253,9.117,20.254,20.407,20.225Z"/>
          <path class="cls-4" d="M178.494,244.567c2.974,3.907,6.464,8.491,10.411,13.676,3.849-5.062,7.396-9.727,11.509-15.136-7.09.77-7.697-3.046-7.575-7.969.227-9.12.065-18.25.065-27.682h-8.058c0,1.967.503,4.221-.158,6.056-.536,1.486-2.331,3.082-3.843,3.428-.817.187-2.946-2.011-3.189-3.365-.491-2.733-.113-5.624-.054-8.45.01-.488.095-1.046.345-1.446,4.336-6.913,11.146-3.22,16.861-3.622,4.017-.283,5.566,3.102,5.594,6.843.062,8.324.027,16.649.061,24.973.004.981.188,1.961.307,3.117,1.015.244,1.956.467,2.896.697,5.314,1.301,7.19,5.729,3.988,10.196-4.361,6.085-8.918,12.039-13.614,17.869-3.116,3.869-7.307,3.718-10.5-.259-3.854-4.8-7.505-9.765-11.227-14.671-6.032-7.952-4.888-11.46,4.806-13.935.145-1.68-.084-3.626.573-5.203.535-1.283,2.26-3.066,3.228-2.935,1.4.19,3.497,1.762,3.697,3.003.522,3.243.838,6.822-.07,9.879-.552,1.856-3.532,2.99-6.053,4.937Z"/>
          <path class="cls-4" d="M91.999,32.36c-.098,15.711-13.022,25.14-26.674,21.55-2.06-.542-4.523-.496-6.584.069-9.798,2.685-19.228-2.672-21.458-12.445-2.164-9.48,4.47-18.294,14.663-19.934,2.078-.334,4.154-1.709,5.875-3.058,6.928-5.429,14.457-6.696,22.401-2.996,7.791,3.63,11.53,10.169,11.777,16.814ZM56.609,29.216c-6.314-.489-9.856,1.308-11.529,5.738-1.409,3.731-.633,7.309,2.475,9.972,3.433,2.942,7.109,2.652,11.151.863,1.787-.79,4.461-.83,6.272-.088,7.227,2.962,14.259,1.147,17.809-5.064,3.373-5.902,1.722-13.368-3.819-17.27-5.853-4.122-12.955-2.837-18.217,2.997-1.372,1.521-3.461,2.396-4.144,2.851Z"/>
          <path class="cls-4" d="M68.29,60.208c6.675,1.245,12.146,1.917,17.397,3.378,3.076.856,5.023.531,7.549-1.51,20.251-16.366,43.044-20.714,68.064-13.788,1.12.31,2.532.441,3.236,1.191,1.309,1.395,2.196,3.185,3.259,4.811-1.91.714-3.902,2.203-5.714,2.009-8.547-.918-17.044-3.292-25.559-3.297-15.767-.01-29.475,6.316-41.011,17-2.816,2.608-5.144,3.297-8.834,1.828-11.272-4.486-22.752-4.296-34.207-.446-.788.265-1.643.922-2.333.774-1.739-.373-3.402-1.102-5.095-1.689.841-1.734,1.329-4.63,2.581-5.011,7.102-2.16,14.388-3.718,20.667-5.25Z"/>
          <path class="cls-4" d="M102.628,87.006c4.49,1.563,9.148,2.787,13.378,4.876,1.455.718,1.843,3.597,2.719,5.488-2.029.317-4.453,1.501-6.014.79-5.022-2.286-9.94-3.57-15.446-2.226-10.688,2.609-17.408,13.147-15.197,24.052,2.07,10.214,12.333,17.606,22.704,15.772,3.086-.546,6.086-2.504,8.721-4.383,2.237-1.595,4.18-3.197,6.43-.673,2.287,2.566.364,4.58-1.464,6.414-8.38,8.405-23.712,8.528-33.877.279-9.316-7.56-12.784-19.857-8.762-31.068,4.023-11.215,14.464-18.469,26.808-19.322Z"/>
          <path class="cls-4" d="M213.495,22.551c9.133.075,16.453,7.447,16.447,16.564-.005,9.055-7.418,16.548-16.459,16.64-9.193.093-16.784-7.601-16.673-16.9.108-9.1,7.557-16.379,16.685-16.304ZM222.508,38.91c-.121-5.024-4.39-9.025-9.461-8.867-4.832.15-8.81,4.191-8.85,8.991-.042,5.004,4.132,9.117,9.224,9.088,5.094-.028,9.209-4.199,9.088-9.212Z"/>
          <path class="cls-4" d="M194.902,141.225c2.45,0,4.442-.471,6.032.127,1.736.653,3.1,2.297,4.626,3.509-1.419,1.32-2.728,3.598-4.279,3.778-4.427.513-8.972.423-13.436.095-4.297-.316-5.618-3.369-3.15-7.029,2.786-4.13,5.878-8.052,8.765-12.116,1.053-1.482,2.363-3.017,2.705-4.7.297-1.465-.605-3.174-.978-4.775-1.701.49-4.265.463-4.929,1.573-1.569,2.625-3.21,4.824-6.142,2.894-3.095-2.038-1.603-5.058-.079-7.512,3.032-4.884,9.412-6.483,14.459-3.78,5.096,2.729,7.38,8.592,4.761,14.089-2.184,4.583-5.235,8.753-8.356,13.848Z"/>
        </g>
      </g>
    </g>
  </g>
</svg>