<svg width="284" height="55" xmlns="http://www.w3.org/2000/svg" xmlns:xlink="http://www.w3.org/1999/xlink" xml:space="preserve" overflow="hidden"><defs><clipPath id="clip0"><path d="M612.696 95.258C612.696 108.601 623.265 119.417 636.303 119.417 649.342 119.417 659.911 108.611 659.911 95.258 659.911 81.9056 649.333 71.0899 636.303 71.0899 623.265 71.0899 612.696 81.9056 612.696 95.258"/></clipPath><radialGradient cx="602.379" cy="585.105" r="5.0722" gradientUnits="userSpaceOnUse" spreadMethod="pad" id="fill1" gradientTransform="matrix(9.83394 0 0 9.83394 -5669.57 -5739.22)"><stop offset="0" stop-color="#F2F2F5"/><stop offset="0.2198" stop-color="#F2F2F5"/><stop offset="0.2614" stop-color="#E9E9EC"/><stop offset="0.3305" stop-color="#D1D1D2"/><stop offset="0.4178" stop-color="#ABA9AA"/><stop offset="0.4945" stop-color="#848180"/><stop offset="0.5659" stop-color="#767271"/><stop offset="0.6758" stop-color="#9F9C9A"/><stop offset="0.8077" stop-color="#494242"/><stop offset="1" stop-color="#494242"/></radialGradient><clipPath id="clip2"><path d="M656.064 84.1035C660.389 93.1608 656.275 109.215 635.11 98.9762 628.719 95.8899 607.903 96.586 605.084 116.523 611.557 114.792 617.829 116.56 623.715 118.327 627.911 119.582 631.896 120.846 635.624 120.846 637.47 120.846 639.26 120.534 640.959 119.765 641.886 119.344 645.559 117.595 646.496 117.054 655.917 111.642 658.791 106.358 660.177 96.7783 661.408 88.2796 656.422 75.5957 643.539 72.0149 646.578 73.0222 652.134 75.8796 656.064 84.1035M643.539 72.024C642.208 71.5936 641.363 71.5203 641.363 71.5203 642.116 71.6668 642.841 71.8317 643.539 72.024"/></clipPath><radialGradient cx="634.871" cy="605.587" r="5.0722" gradientUnits="userSpaceOnUse" spreadMethod="pad" id="fill3" gradientTransform="matrix(20.3063 0 0 20.3063 -12636.5 -12224.8)"><stop offset="0" stop-color="#1B1515"/><stop offset="0.4727" stop-color="#4A8236"/><stop offset="1" stop-color="#4A8236"/></radialGradient><clipPath id="clip4"><path d="M608.72 107.017C610.29 106.55 617.507 95.6427 633.301 98.5641 633.879 98.674 634.467 98.9487 635.082 99.0861 635.082 99.0861 634.449 98.6099 633.301 98.4176 631.969 98.2069 629.876 97.8681 627.342 97.8681 621.952 97.8773 614.615 99.4158 608.72 107.017"/></clipPath><linearGradient x1="225.123" y1="30.2489" x2="251.412" y2="30.2489" gradientUnits="userSpaceOnUse" spreadMethod="pad" id="fill5"><stop offset="0" stop-color="#739D32"/><stop offset="0.9394" stop-color="#B6C028"/><stop offset="1" stop-color="#B6C028"/></linearGradient></defs><g transform="translate(-383 -71)"><path d="M5.92527 47.4846C5.80622 46.7062 5.0461 46.3765 3.94713 46.3765 3.0588 46.3765 2.17046 46.5963 2.17046 47.3014 2.17046 47.97 3.43428 48.0616 4.71641 48.263 5.98938 48.4645 7.25319 48.7667 7.25319 49.8199 7.25319 50.9738 5.59558 51.4409 4.14861 51.4409 2.36278 51.4409 0.860859 50.8548 0.860859 49.536L1.86825 49.536C1.86825 50.4427 2.98553 50.8456 4.1944 50.8456 5.14684 50.8456 6.20917 50.6441 6.20917 49.8565 6.20917 49.1147 4.94536 48.9865 3.67239 48.7942 2.40857 48.6019 1.12644 48.3546 1.12644 47.3564 1.12644 46.2574 2.56426 45.772 4.01124 45.772 5.64137 45.772 6.86855 46.2941 6.94182 47.4846L5.92527 47.4846Z" fill="#4B8236" transform="matrix(1.00265 0 0 1 383 71.0899)"/><path d="M14.2866 45.9094 15.4588 45.9094 18.5634 51.3127 17.3912 51.3127 16.5212 49.6825 13.1601 49.6825 12.2627 51.3127 11.1728 51.3127 14.2866 45.9094ZM13.4898 49.0781 16.1823 49.0781 14.8544 46.5596 14.8361 46.5596 13.4898 49.0781Z" fill="#4B8236" transform="matrix(1.00265 0 0 1 383 71.0899)"/><path d="M23.1241 45.9094 24.2506 45.9094 28.445 50.287 28.4633 50.287 28.4633 45.9094 29.4707 45.9094 29.4707 51.3127 28.3076 51.3127 24.1498 46.9718 24.1315 46.9718 24.1315 51.3127 23.1241 51.3127Z" fill="#4B8236" transform="matrix(1.00265 0 0 1 383 71.0899)"/><path d="M36.9162 45.9094 38.0884 45.9094 41.2022 51.3127 40.0208 51.3127 39.1508 49.6825 35.7897 49.6825 34.9014 51.3127 33.8116 51.3127 36.9162 45.9094ZM36.1286 49.0781 38.8302 49.0781 37.5023 46.5596 37.4748 46.5596 36.1286 49.0781Z" fill="#4B8236" transform="matrix(1.00265 0 0 1 383 71.0899)"/><path d="M45.772 45.9094 48.5011 45.9094C50.9555 45.9094 52.3292 46.7428 52.3292 48.4828 52.3292 50.2961 51.157 51.3127 48.5011 51.3127L45.772 51.3127 45.772 45.9094ZM46.8252 50.7082 48.5836 50.7082C49.3071 50.7082 51.2577 50.5709 51.2577 48.5836 51.2577 47.3014 50.5617 46.5138 48.611 46.5138L46.8252 46.5138 46.8252 50.7082Z" fill="#4B8236" transform="matrix(1.00265 0 0 1 383 71.0899)"/><path d="M60.5532 45.7812C63.0808 45.7812 64.3629 47.1458 64.3629 48.611 64.3629 50.0855 63.09 51.4409 60.5532 51.4409 58.0255 51.4409 56.7434 50.0855 56.7434 48.611 56.7434 47.1366 58.0255 45.7812 60.5532 45.7812M60.5532 50.8365C62.4947 50.8365 63.3097 49.7009 63.3097 48.611 63.3097 47.5212 62.4947 46.3856 60.5532 46.3856 58.6117 46.3856 57.7966 47.5212 57.7966 48.611 57.7966 49.7009 58.6208 50.8365 60.5532 50.8365" fill="#4B8236" transform="matrix(1.00265 0 0 1 383 71.0899)"/><path d="M69.2259 45.9094 72.9715 45.9094C74.4643 45.9094 75.3892 46.4589 75.3892 47.3289 75.3892 47.9791 74.968 48.5103 74.0064 48.7026L74.0064 48.7209C74.9313 48.84 75.1237 49.2979 75.1969 49.8291 75.261 50.3602 75.2152 50.9555 75.664 51.3218L74.4826 51.3218C74.1804 51.102 74.3452 50.5159 74.1987 49.9848 74.0888 49.4536 73.9056 48.9957 72.8799 48.9957L70.2882 48.9957 70.2882 51.3127 69.2259 51.3127 69.2259 45.9094ZM72.4953 48.4004C73.4935 48.4004 74.3361 48.2264 74.3361 47.4388 74.3361 46.9076 73.9148 46.5138 72.9257 46.5138L70.2882 46.5138 70.2882 48.4004 72.4953 48.4004Z" fill="#4B8236" transform="matrix(1.00265 0 0 1 383 71.0899)"/><path d="M80.4353 45.9094 85.9302 45.9094 85.9302 46.5138 81.4977 46.5138 81.4977 48.2264 85.628 48.2264 85.628 48.84 81.4977 48.84 81.4977 50.7082 85.9668 50.7082 85.9668 51.3127 80.4353 51.3127Z" fill="#4B8236" transform="matrix(1.00265 0 0 1 383 71.0899)"/><path d="M95.418 47.4846C95.2989 46.7062 94.5388 46.3765 93.4398 46.3765 92.5515 46.3765 91.654 46.5963 91.654 47.3014 91.654 47.97 92.927 48.0616 94.2091 48.263 95.4821 48.4645 96.7459 48.7667 96.7459 49.8199 96.7459 50.9738 95.0883 51.4409 93.6413 51.4409 91.8555 51.4409 90.3535 50.8548 90.3535 49.536L91.3609 49.536C91.3609 50.4427 92.4691 50.8456 93.6779 50.8456 94.6304 50.8456 95.7019 50.6441 95.7019 49.8565 95.7019 49.1147 94.4289 48.9865 93.1651 48.7942 91.8921 48.6019 90.61 48.3546 90.61 47.3564 90.61 46.2574 92.0386 45.772 93.4948 45.772 95.1249 45.772 96.3521 46.2941 96.4253 47.4846L95.418 47.4846Z" fill="#4B8236" transform="matrix(1.00265 0 0 1 383 71.0899)"/><path d="M110.437 45.9094 111.609 45.9094 114.723 51.3127 113.551 51.3127 112.681 49.6825 109.32 49.6825 108.422 51.3127 107.333 51.3127 110.437 45.9094ZM109.65 49.0781 112.351 49.0781 111.023 46.5596 110.996 46.5596 109.65 49.0781Z" fill="#4B8236" transform="matrix(1.00265 0 0 1 383 71.0899)"/><path d="M119.101 45.9094 120.548 45.9094 123.057 50.4518 125.575 45.9094 127.022 45.9094 127.022 51.3127 126.015 51.3127 126.015 46.8161 125.997 46.8161 123.506 51.3127 122.608 51.3127 120.126 46.8161 120.099 46.8161 120.099 51.3127 119.101 51.3127Z" fill="#4B8236" transform="matrix(1.00265 0 0 1 383 71.0899)"/><path d="M132.352 45.9094 135.237 45.9094C135.942 45.9094 136.867 45.9094 137.344 46.1017 137.866 46.3124 138.278 46.697 138.278 47.2282 138.278 47.8051 137.829 48.2356 137.096 48.437L137.096 48.4554C138.076 48.5836 138.607 49.0873 138.607 49.7558 138.607 50.5526 137.774 51.3127 136.19 51.3127L132.343 51.3127 132.343 45.9094ZM133.415 48.2264 135.53 48.2264C136.739 48.2264 137.225 47.9333 137.225 47.3655 137.225 46.6146 136.446 46.5047 135.53 46.5047L133.415 46.5047 133.415 48.2264ZM133.415 50.7082 136.061 50.7082C136.977 50.7082 137.563 50.3236 137.563 49.7375 137.563 49.0323 136.721 48.84 135.833 48.84L133.415 48.84 133.415 50.7082Z" fill="#4B8236" transform="matrix(1.00265 0 0 1 383 71.0899)"/><path d="M143.608 45.9094 144.67 45.9094 144.67 51.3127 143.608 51.3127Z" fill="#4B8236" transform="matrix(1.00265 0 0 1 383 71.0899)"/><path d="M150.009 45.9094 155.513 45.9094 155.513 46.5138 151.072 46.5138 151.072 48.2264 155.211 48.2264 155.211 48.84 151.072 48.84 151.072 50.7082 155.541 50.7082 155.541 51.3127 150.009 51.3127Z" fill="#4B8236" transform="matrix(1.00265 0 0 1 383 71.0899)"/><path d="M160.385 45.9094 161.512 45.9094 165.697 50.287 165.724 50.287 165.724 45.9094 166.723 45.9094 166.723 51.3127 165.569 51.3127 161.411 46.9718 161.393 46.9718 161.393 51.3127 160.385 51.3127Z" fill="#4B8236" transform="matrix(1.00265 0 0 1 383 71.0899)"/><path d="M173.82 46.5047 171.164 46.5047 171.164 45.9094 177.529 45.9094 177.529 46.5047 174.873 46.5047 174.873 51.3127 173.82 51.3127Z" fill="#4B8236" transform="matrix(1.00265 0 0 1 383 71.0899)"/><path d="M183.116 45.9094 184.288 45.9094 187.392 51.3127 186.22 51.3127 185.35 49.6825 181.989 49.6825 181.101 51.3127 180.002 51.3127 183.116 45.9094ZM182.328 49.0781 185.03 49.0781 183.702 46.5596 183.674 46.5596 182.328 49.0781Z" fill="#4B8236" transform="matrix(1.00265 0 0 1 383 71.0899)"/><path d="M191.752 45.9094 192.805 45.9094 192.805 50.7082 197.018 50.7082 197.018 51.3127 191.752 51.3127Z" fill="#4B8236" transform="matrix(1.00265 0 0 1 383 71.0899)"/><path d="M201.514 45.9094 207.009 45.9094 207.009 46.5138 202.577 46.5138 202.577 48.2264 206.707 48.2264 206.707 48.84 202.577 48.84 202.577 50.7082 207.046 50.7082 207.046 51.3127 201.514 51.3127Z" fill="#4B8236" transform="matrix(1.00265 0 0 1 383 71.0899)"/><path d="M216.497 47.4846C216.378 46.7062 215.618 46.3765 214.519 46.3765 213.63 46.3765 212.733 46.5963 212.733 47.3014 212.733 47.97 214.006 48.0616 215.288 48.263 216.561 48.4645 217.825 48.7667 217.825 49.8199 217.825 50.9738 216.167 51.4409 214.72 51.4409 212.934 51.4409 211.423 50.8548 211.423 49.536L212.431 49.536C212.431 50.4427 213.539 50.8456 214.748 50.8456 215.7 50.8456 216.762 50.6441 216.762 49.8565 216.762 49.1147 215.499 48.9865 214.226 48.7942 212.953 48.6019 211.671 48.3546 211.671 47.3564 211.671 46.2574 213.108 45.772 214.555 45.772 216.185 45.772 217.413 46.2941 217.486 47.4846L216.497 47.4846Z" fill="#4B8236" transform="matrix(1.00265 0 0 1 383 71.0899)"/><path d="M35.744 30.9909C35.7806 32.0258 35.4967 33.0148 34.819 33.9673 34.1413 34.9014 33.2346 35.7348 32.0716 36.44 30.9085 37.1543 29.5348 37.7038 27.9688 38.1159 26.3936 38.5189 24.7085 38.7203 22.9043 38.7203L13.2243 38.7203C11.4201 38.7203 9.73503 38.5189 8.169 38.1159 6.61213 37.7038 5.22926 37.1451 4.02955 36.44 2.82984 35.7256 1.88656 34.9014 1.20887 33.9673 0.531168 33.024 0.155687 32.0258 0.128213 30.9909L0.128213 25.9082 11.9147 25.9082 11.9147 29.6447C11.933 30.3773 12.4 30.9818 13.27 31.4488 14.1309 31.925 15.1841 32.1631 16.4387 32.1631L19.5891 32.1631C20.8804 32.1631 21.9244 31.9342 22.7395 31.4488 23.5546 30.9818 23.9575 30.3773 23.985 29.6447L23.985 24.4246C23.9209 23.7377 23.4538 23.1424 22.5838 22.6296 21.7138 22.1076 20.7247 21.8603 19.5983 21.8603L12.9678 21.8603C11.1545 21.8603 9.48776 21.6588 7.94921 21.2467 6.41065 20.8255 5.06441 20.2668 3.90134 19.5616 2.74742 18.8473 1.84077 18.0322 1.19055 17.1164 0.540326 16.1915 0.0366323 15.1932 0.00915807 14.1217L0.00915807 9.02986C-0.0183161 7.94921 0.164845 6.94182 0.860859 5.99854 1.55687 5.05526 2.491 4.22187 3.67239 3.50754 4.86294 2.80237 6.22749 2.25289 7.80268 1.84077 9.37787 1.42866 11.063 1.22718 12.8671 1.22718L21.5032 1.22718C23.2615 1.22718 24.91 1.42866 26.4577 1.84077 27.9962 2.25289 29.3425 2.80237 30.5055 3.5167 31.6595 4.23103 32.5936 5.05526 33.2987 5.99854 33.9948 6.94182 34.3519 7.95836 34.3886 9.02986 34.4527 9.96398 34.1962 10.66 33.6376 11.0904 33.079 11.5209 32.2639 11.7773 31.2016 11.8597 30.1392 11.9513 28.8846 11.878 27.4376 11.6399 25.9815 11.4018 24.3879 11.0904 22.6571 10.7058L22.6845 10.4494C22.6662 9.71671 22.2358 9.08481 21.4116 8.55364 20.5782 8.01331 19.5433 7.74773 18.2887 7.74773L16.164 7.74773C15.0101 7.74773 14.0027 8.02247 13.1327 8.55364 11.1728 9.71671 11.7132 11.9971 11.7132 11.9971 11.7864 12.7297 12.2627 13.3616 13.1601 13.902 14.0576 14.4331 15.065 14.7079 16.1823 14.7079L22.6296 14.7079C24.4337 14.7079 26.1188 14.9093 27.6757 15.3215 29.2417 15.7244 30.6154 16.2831 31.7877 16.9882 32.9599 17.7026 33.9032 18.5359 34.6084 19.5067 35.3135 20.4683 35.7256 21.494 35.7531 22.5655L35.7531 30.9909Z" fill="#747E7D" transform="matrix(1.00265 0 0 1 383 71.0899)"/><path d="M76.5615 38.0243C68.5299 39.1416 64.7293 38.8211 64.8483 37.0627 63.5937 37.5756 62.3207 37.9877 61.0019 38.2899 59.6923 38.583 58.3461 38.7386 56.9724 38.7386L52.9794 38.7386C51.1753 38.7386 49.4902 38.5372 47.9242 38.1342 46.3582 37.7221 44.9753 37.1635 43.7756 36.4583 42.585 35.744 41.6418 34.9197 40.9641 33.9764 40.2864 33.024 39.9292 32.0349 39.9017 31.0001L39.9384 22.5655C39.9475 21.4848 40.2955 20.4683 40.9641 19.4975 41.6418 18.5268 42.5392 17.6934 43.684 16.9882 44.8196 16.2739 46.1567 15.7244 47.6861 15.3123 49.2155 14.9093 50.8365 14.7079 52.5582 14.7079L60.2235 14.7079C61.4232 14.7079 62.458 14.4423 63.3281 13.902 64.1889 13.3616 64.6102 12.7297 64.5919 12.0062L64.6194 10.4585C64.5919 9.72587 64.1614 9.09397 63.3281 8.5628 62.5038 8.02247 61.4598 7.75689 60.2143 7.75689L57.0548 7.75689C55.9009 7.75689 54.8843 8.02247 54.0143 8.5628 53.1535 9.09397 52.7322 9.73503 52.7505 10.4585L52.5307 10.7149 40.9549 10.7149 40.845 9.02986C40.8084 7.94921 41.1472 6.94182 41.8432 5.99854 42.5392 5.05526 43.4825 4.22187 44.6639 3.5167 45.8453 2.81153 47.219 2.25289 48.785 1.84077 50.3602 1.42866 52.0453 1.22718 53.8495 1.22718L63.5112 1.22718C65.3245 1.22718 67.0005 1.42866 68.5573 1.84077 70.1234 2.25289 71.4971 2.81153 72.6418 3.5167 73.8049 4.23103 74.7207 5.05526 75.3984 5.99854 76.0853 6.94182 76.4516 7.44551 76.5523 9.02986L76.5523 38.0243ZM64.5919 19.6624C63.5112 20.1752 62.3024 20.5507 60.9836 20.7888 59.6648 21.0178 58.2545 21.146 56.7526 21.146L55.91 21.146C54.7103 21.146 53.7029 21.4116 52.8695 21.9427 52.0545 22.4831 51.6057 23.115 51.5416 23.8476L51.6973 29.6447C51.7156 30.3773 52.1552 30.9818 53.0252 31.4488 53.8861 31.925 54.9484 32.154 56.1848 32.154L60.4433 32.154C61.643 32.154 62.6595 31.925 63.4929 31.4488 64.3171 30.9726 64.7476 30.3773 64.7659 29.6447L64.5919 19.6624Z" fill="#747E7D" transform="matrix(1.00265 0 0 1 383 71.0899)"/><path d="M104.695 1.22718C106.463 1.22718 108.102 1.42866 109.65 1.84077 111.197 2.25289 112.562 2.81153 113.734 3.5167 114.915 4.23103 115.84 5.05526 116.518 5.99854 117.205 6.94182 117.718 7.95836 117.745 9.02986L117.745 38.0243C116.024 38.6196 114.613 38.9126 113.166 38.8852 111.728 38.8669 110.465 38.583 109.402 38.0243 108.322 37.4565 107.488 36.6323 106.875 35.5333 106.27 34.4435 105.922 33.1156 105.95 31.577L105.95 10.4402C105.876 9.71671 105.373 9.07565 104.512 8.54448 103.651 8.00415 102.635 7.73857 101.426 7.73857L98.3302 7.73857C97.0847 7.73857 96.0315 8.00415 95.1707 8.54448 94.3098 9.07565 94.0809 9.71671 94.1541 10.4402L94.1541 38.0243 82.093 38.0243 82.093 1.8774C83.5308 1.7034 84.8037 1.53856 86.1317 1.39203 87.4596 1.23634 88.6593 1.18139 89.7491 1.22718 90.8298 1.27297 91.7364 1.42866 92.4599 1.71256 93.1925 1.99646 93.6688 2.43605 93.8885 3.04048 96.1964 1.83161 98.8156 1.22718 101.728 1.22718L104.695 1.22718Z" fill="#747E7D" transform="matrix(1.00265 0 0 1 383 71.0899)"/><path d="M158.526 38.0243C150.485 39.1416 146.685 38.8211 146.822 37.0627 145.568 37.5756 144.285 37.9877 142.967 38.2899 141.666 38.583 140.32 38.7386 138.946 38.7386L134.953 38.7386C133.149 38.7386 131.473 38.5372 129.907 38.1342 128.341 37.7221 126.958 37.1635 125.759 36.4583 124.568 35.744 123.625 34.9197 122.947 33.9764 122.26 33.024 121.912 32.0349 121.885 31.0001L121.921 22.5655C121.94 21.4848 122.279 20.4683 122.947 19.4975 123.625 18.5268 124.531 17.6934 125.667 16.9882 126.812 16.2739 128.149 15.7244 129.669 15.3123 131.199 14.9093 132.829 14.7079 134.541 14.7079L142.207 14.7079C143.415 14.7079 144.441 14.4423 145.311 13.902 146.172 13.3616 146.602 12.7297 146.575 12.0062L146.602 10.4585C146.575 9.72587 146.154 9.09397 145.32 8.5628 144.487 8.02247 143.452 7.75689 142.207 7.75689L139.056 7.75689C137.893 7.75689 136.886 8.02247 136.016 8.5628 135.155 9.09397 134.532 10.7241 134.532 10.7241L122.929 10.7241 122.81 9.04817C122.773 7.96752 123.112 6.96013 123.808 6.01685 124.504 5.07357 125.438 4.24019 126.629 3.53502 127.801 2.82984 129.184 2.2712 130.759 1.85909 132.325 1.44698 134.019 1.2455 135.814 1.2455L145.485 1.2455C147.289 1.2455 148.974 1.44698 150.531 1.85909 152.097 2.2712 153.462 2.82984 154.616 3.53502 155.779 4.24935 156.695 5.07357 157.381 6.01685 158.059 6.96013 158.545 7.96752 158.535 9.04817L158.535 38.0243ZM146.547 19.6624C145.476 20.1752 144.258 20.5507 142.948 20.7888 141.63 21.0178 140.219 21.146 138.717 21.146L137.875 21.146C136.684 21.146 135.668 21.4116 134.843 21.9427 134.019 22.4831 133.58 23.115 133.516 23.8476L133.671 29.6447C133.699 30.3773 134.138 30.9818 134.999 31.4488 135.869 31.925 136.922 32.154 138.168 32.154L142.426 32.154C143.626 32.154 144.643 31.925 145.485 31.4488 146.309 30.9726 146.731 30.3773 146.758 29.6447L146.547 19.6624Z" fill="#747E7D" transform="matrix(1.00265 0 0 1 383 71.0899)"/><path d="M204.839 1.22718C206.597 1.22718 208.255 1.42866 209.821 1.84077 211.387 2.25289 212.76 2.81153 213.933 3.5167 215.105 4.23103 216.048 5.05526 216.753 5.99854 217.449 6.94182 217.898 7.95836 217.935 9.02986L217.935 38.0243C216.561 38.5738 215.279 38.8211 213.887 38.7661 212.504 38.6929 211.24 38.3723 210.104 37.7679 208.96 37.1635 208.035 36.3209 207.339 35.2494 206.643 34.1688 206.212 32.8775 206.203 31.3847L206.203 10.4402C206.139 9.71671 205.617 9.07565 204.784 8.54448 203.959 8.00415 202.943 7.73857 201.725 7.73857L201.093 7.73857C200.534 7.73857 199.985 7.80268 199.444 7.93089 198.895 8.06826 198.419 8.24226 198.007 8.48037 197.585 8.71848 197.256 9.00238 197.036 9.35039 196.807 9.6984 196.871 10.0647 196.926 10.4494L196.926 38.0335 185.167 38.0335 185.167 10.4402C185.14 9.71671 184.599 9.07565 183.803 8.54448 182.987 8.00415 181.962 7.73857 180.716 7.73857L180.267 7.73857C179.022 7.73857 177.96 8.00415 177.099 8.54448 176.238 9.07565 176.018 9.71671 176.082 10.4402L176.082 38.0243 164.039 38.0243 164.039 1.8774C165.605 1.7034 166.979 1.58435 168.362 1.52024 169.745 1.45613 170.963 1.45613 172.007 1.52024 173.051 1.58435 173.893 1.74003 174.553 1.99646 175.221 2.25289 175.652 2.60089 175.835 3.04048 178.152 1.83161 180.826 1.22718 183.876 1.22718 186.019 1.22718 187.988 1.52024 189.783 2.12467 191.569 2.72911 193.07 3.52586 194.298 4.51493 194.554 4.24935 194.829 4.03871 195.094 3.86471 195.378 3.6907 195.635 3.53502 195.864 3.41596 196.148 3.24196 196.422 3.11374 196.725 3.03132 199.032 1.82246 201.734 1.22718 204.839 1.22718" fill="#747E7D" transform="matrix(1.00265 0 0 1 383 71.0899)"/><g clip-path="url(#clip0)"><path d="M229.089 0 276.18 0 276.18 48.318 229.089 48.318Z" fill="url(#fill1)" transform="matrix(1.00265 0 0 1 383 71.0899)"/></g><g clip-path="url(#clip2)"><path d="M221.497 0.439587 277.673 0.439587 277.673 49.765 221.497 49.765Z" fill="url(#fill3)" transform="matrix(1.00265 0 0 1 383 71.0899)"/></g><g clip-path="url(#clip4)"><path d="M225.124 24.5619 251.407 24.5619 251.407 35.9363 225.124 35.9363Z" fill="url(#fill5)" transform="matrix(1.00265 0 0 1 383 71.0899)"/></g></g></svg>